{
date = "2013-03-13 10:55:38 +0200";
familyName = "Open Sans Hebrew Condensed";
fontMaster = (
{
alignmentZones = (
"{1567, 16}",
"{1462, 24}",
"{1290, 30}",
"{1118, 22}",
"{0, -31}",
"{-492, -46}"
);
ascender = 1567;
capHeight = 1462;
descender = "-492";
id = UUID0;
italicAngle = 12;
weight = Bold;
xHeight = 1118;
}
);
glyphs = (
{
glyphname = A;
lastChange = "2013-03-13 10:44:06 +0200";
layers = (
{
layerId = UUID0;
name = "Bold Italic";
paths = (
{
closed = 1;
nodes = (
"518 1468 LINE",
"-156 0 LINE",
"116 0 LINE",
"278 369 LINE",
"659 369 LINE",
"665 0 LINE",
"938 0 LINE",
"887 1468 LINE"
);
},
{
closed = 1;
nodes = (
"658 1244 OFFCURVE",
"657 1188 OFFCURVE",
"655 1105 CURVE SMOOTH",
"654 1022 OFFCURVE",
"653 971 OFFCURVE",
"654 950 CURVE SMOOTH",
"660 610 LINE",
"384 610 LINE",
"492 856 OFFCURVE",
"560 1013 OFFCURVE",
"588 1082 CURVE SMOOTH",
"616 1151 OFFCURVE",
"640 1215 OFFCURVE",
"661 1272 CURVE"
);
}
);
width = 1094;
}
);
unicode = 0041;
},
{
glyphname = Aacute;
lastChange = "2013-03-13 10:44:06 +0200";
layers = (
{
layerId = UUID0;
name = "Bold Italic";
paths = (
{
closed = 1;
nodes = (
"471 1468 LINE",
"-203 0 LINE",
"69 0 LINE",
"232 369 LINE",
"613 369 LINE",
"618 0 LINE",
"891 0 LINE",
"840 1468 LINE"
);
},
{
closed = 1;
nodes = (
"612 1244 OFFCURVE",
"610 1188 OFFCURVE",
"608 1105 CURVE SMOOTH",
"608 1022 OFFCURVE",
"607 971 OFFCURVE",
"607 950 CURVE SMOOTH",
"613 610 LINE",
"337 610 LINE",
"445 856 OFFCURVE",
"514 1013 OFFCURVE",
"541 1082 CURVE SMOOTH",
"569 1151 OFFCURVE",
"594 1215 OFFCURVE",
"615 1272 CURVE"
);
},
{
closed = 1;
nodes = (
"780 1907 LINE",
"757 1872 OFFCURVE",
"721 1822 OFFCURVE",
"671 1757 CURVE SMOOTH",
"621 1692 OFFCURVE",
"578 1641 OFFCURVE",
"544 1606 CURVE",
"538 1579 LINE",
"725 1579 LINE",
"794 1628 OFFCURVE",
"868 1684 OFFCURVE",
"945 1747 CURVE SMOOTH",
"1021 1811 OFFCURVE",
"1071 1857 OFFCURVE",
"1093 1886 CURVE",
"1098 1907 LINE"
);
}
);
width = 1094;
}
);
unicode = 00C1;
},
{
glyphname = Acircumflex;
lastChange = "2013-03-13 10:44:06 +0200";
layers = (
{
layerId = UUID0;
name = "Bold Italic";
paths = (
{
closed = 1;
nodes = (
"471 1468 LINE",
"-203 0 LINE",
"69 0 LINE",
"232 369 LINE",
"613 369 LINE",
"618 0 LINE",
"891 0 LINE",
"840 1468 LINE"
);
},
{
closed = 1;
nodes = (
"612 1244 OFFCURVE",
"610 1188 OFFCURVE",
"608 1105 CURVE SMOOTH",
"608 1022 OFFCURVE",
"607 971 OFFCURVE",
"607 950 CURVE SMOOTH",
"613 610 LINE",
"337 610 LINE",
"445 856 OFFCURVE",
"514 1013 OFFCURVE",
"541 1082 CURVE SMOOTH",
"569 1151 OFFCURVE",
"594 1215 OFFCURVE",
"615 1272 CURVE"
);
},
{
closed = 1;
nodes = (
"612 1907 LINE",
"574 1855 OFFCURVE",
"480 1755 OFFCURVE",
"331 1606 CURVE",
"325 1579 LINE",
"493 1579 LINE",
"569 1631 OFFCURVE",
"644 1690 OFFCURVE",
"717 1757 CURVE",
"764 1686 OFFCURVE",
"814 1627 OFFCURVE",
"868 1579 CURVE",
"1036 1579 LINE",
"1042 1606 LINE",
"959 1749 OFFCURVE",
"907 1849 OFFCURVE",
"889 1907 CURVE"
);
}
);
width = 1094;
}
);
unicode = 00C2;
},
{
glyphname = Adieresis;
lastChange = "2013-03-13 10:44:06 +0200";
layers = (
{
layerId = UUID0;
name = "Bold Italic";
paths = (
{
closed = 1;
nodes = (
"475 1468 LINE",
"-199 0 LINE",
"73 0 LINE",
"236 369 LINE",
"617 369 LINE",
"622 0 LINE",
"895 0 LINE",
"844 1468 LINE"
);
},
{
closed = 1;
nodes = (
"616 1244 OFFCURVE",
"614 1188 OFFCURVE",
"612 1105 CURVE SMOOTH",
"611 1022 OFFCURVE",
"611 971 OFFCURVE",
"611 950 CURVE SMOOTH",
"617 610 LINE",
"341 610 LINE",
"449 856 OFFCURVE",
"518 1013 OFFCURVE",
"545 1082 CURVE SMOOTH",
"573 1151 OFFCURVE",
"598 1215 OFFCURVE",
"619 1272 CURVE"
);
},
{
closed = 1;
nodes = (
"464 1870 OFFCURVE",
"405 1822 OFFCURVE",
"387 1741 CURVE SMOOTH",
"370 1661 OFFCURVE",
"409 1614 OFFCURVE",
"492 1614 CURVE SMOOTH",
"575 1614 OFFCURVE",
"636 1665 OFFCURVE",
"652 1741 CURVE SMOOTH",
"669 1818 OFFCURVE",
"630 1870 OFFCURVE",
"547 1870 CURVE SMOOTH"
);
},
{
closed = 1;
nodes = (
"862 1870 OFFCURVE",
"802 1821 OFFCURVE",
"785 1741 CURVE SMOOTH",
"769 1664 OFFCURVE",
"808 1614 OFFCURVE",
"891 1614 CURVE SMOOTH",
"974 1614 OFFCURVE",
"1035 1662 OFFCURVE",
"1051 1741 CURVE SMOOTH",
"1069 1822 OFFCURVE",
"1027 1870 OFFCURVE",
"946 1870 CURVE SMOOTH"
);
}
);
width = 1094;
}
);
unicode = 00C4;
},
{
glyphname = Agrave;
lastChange = "2013-03-13 10:44:06 +0200";
layers = (
{
layerId = UUID0;
name = "Bold Italic";
paths = (
{
closed = 1;
nodes = (
"471 1468 LINE",
"-203 0 LINE",
"69 0 LINE",
"232 369 LINE",
"613 369 LINE",
"618 0 LINE",
"891 0 LINE",
"840 1468 LINE"
);
},
{
closed = 1;
nodes = (
"612 1244 OFFCURVE",
"610 1188 OFFCURVE",
"608 1105 CURVE SMOOTH",
"608 1022 OFFCURVE",
"607 971 OFFCURVE",
"607 950 CURVE SMOOTH",
"613 610 LINE",
"337 610 LINE",
"445 856 OFFCURVE",
"514 1013 OFFCURVE",
"541 1082 CURVE SMOOTH",
"569 1151 OFFCURVE",
"594 1215 OFFCURVE",
"615 1272 CURVE"
);
},
{
closed = 1;
nodes = (
"396 1907 LINE",
"391 1886 LINE",
"402 1855 OFFCURVE",
"434 1806 OFFCURVE",
"487 1739 CURVE SMOOTH",
"540 1672 OFFCURVE",
"587 1619 OFFCURVE",
"629 1579 CURVE",
"816 1579 LINE",
"822 1606 LINE",
"804 1639 OFFCURVE",
"783 1688 OFFCURVE",
"761 1751 CURVE SMOOTH",
"739 1815 OFFCURVE",
"723 1867 OFFCURVE",
"714 1907 CURVE"
);
}
);
width = 1094;
}
);
unicode = 00C0;
},
{
glyphname = Aring;
lastChange = "2013-03-13 10:44:06 +0200";
layers = (
{
layerId = UUID0;
name = "Bold Italic";
paths = (
{
closed = 1;
nodes = (
"483 1468 LINE",
"-192 0 LINE",
"80 0 LINE",
"243 369 LINE",
"624 369 LINE",
"629 0 LINE",
"902 0 LINE",
"852 1468 LINE"
);
},
{
closed = 1;
nodes = (
"623 1244 OFFCURVE",
"621 1188 OFFCURVE",
"619 1105 CURVE SMOOTH",
"619 1022 OFFCURVE",
"618 971 OFFCURVE",
"618 950 CURVE SMOOTH",
"624 610 LINE",
"348 610 LINE",
"456 856 OFFCURVE",
"525 1013 OFFCURVE",
"552 1082 CURVE SMOOTH",
"580 1151 OFFCURVE",
"605 1215 OFFCURVE",
"626 1272 CURVE"
);
},
{
closed = 1;
nodes = (
"766 1669 OFFCURVE",
"801 1630 OFFCURVE",
"788 1569 CURVE SMOOTH",
"775 1506 OFFCURVE",
"724 1468 OFFCURVE",
"667 1468 CURVE SMOOTH",
"600 1468 OFFCURVE",
"575 1506 OFFCURVE",
"588 1569 CURVE SMOOTH",
"601 1630 OFFCURVE",
"652 1669 OFFCURVE",
"709 1669 CURVE SMOOTH"
);
},
{
closed = 1;
nodes = (
"665 1802 OFFCURVE",
"601 1781 OFFCURVE",
"547 1739 CURVE SMOOTH",
"493 1698 OFFCURVE",
"459 1641 OFFCURVE",
"444 1569 CURVE SMOOTH",
"428 1496 OFFCURVE",
"438 1439 OFFCURVE",
"474 1397 CURVE SMOOTH",
"511 1356 OFFCURVE",
"565 1335 OFFCURVE",
"638 1335 CURVE SMOOTH",
"712 1335 OFFCURVE",
"777 1356 OFFCURVE",
"832 1399 CURVE SMOOTH",
"888 1442 OFFCURVE",
"923 1500 OFFCURVE",
"938 1571 CURVE SMOOTH",
"953 1640 OFFCURVE",
"941 1695 OFFCURVE",
"903 1738 CURVE SMOOTH",
"865 1781 OFFCURVE",
"811 1802 OFFCURVE",
"738 1802 CURVE SMOOTH"
);
}
);
width = 1094;
}
);
unicode = 00C5;
},
{
glyphname = Atilde;
lastChange = "2013-03-13 10:44:06 +0200";
layers = (
{
layerId = UUID0;
name = "Bold Italic";
paths = (
{
closed = 1;
nodes = (
"474 1468 LINE",
"-200 0 LINE",
"72 0 LINE",
"235 369 LINE",
"616 369 LINE",
"621 0 LINE",
"894 0 LINE",
"843 1468 LINE"
);
},
{
closed = 1;
nodes = (
"615 1244 OFFCURVE",
"613 1188 OFFCURVE",
"611 1105 CURVE SMOOTH",
"610 1022 OFFCURVE",
"610 971 OFFCURVE",
"610 950 CURVE SMOOTH",
"616 610 LINE",
"340 610 LINE",
"448 856 OFFCURVE",
"517 1013 OFFCURVE",
"544 1082 CURVE SMOOTH",
"572 1151 OFFCURVE",
"596 1215 OFFCURVE",
"618 1272 CURVE"
);
},
{
closed = 1;
nodes = (
"963 1880 LINE",
"932 1805 OFFCURVE",
"909 1772 OFFCURVE",
"864 1772 CURVE SMOOTH",
"784 1772 OFFCURVE",
"743 1878 OFFCURVE",
"628 1878 CURVE SMOOTH",
"504 1878 OFFCURVE",
"404 1781 OFFCURVE",
"345 1577 CURVE",
"486 1577 LINE",
"517 1660 OFFCURVE",
"547 1686 OFFCURVE",
"588 1686 CURVE SMOOTH",
"667 1686 OFFCURVE",
"703 1579 OFFCURVE",
"821 1579 CURVE SMOOTH",
"942 1579 OFFCURVE",
"1046 1677 OFFCURVE",
"1104 1880 CURVE"
);
}
);
width = 1094;
}
);
unicode = 00C3;
},
{
glyphname = AE;
lastChange = "2013-03-13 10:44:06 +0200";
layers = (
{
layerId = UUID0;
name = "Bold Italic";
paths = (
{
closed = 1;
nodes = (
"628 1462 LINE",
"-155 0 LINE",
"117 0 LINE",
"308 369 LINE",
"607 369 LINE",
"529 0 LINE",
"1184 0 LINE",
"1234 238 LINE",
"851 238 LINE",
"937 643 LINE",
"1292 643 LINE",
"1342 879 LINE",
"987 879 LINE",
"1061 1227 LINE",
"1444 1227 LINE",
"1494 1462 LINE"
);
},
{
closed = 1;
nodes = (
"658 610 LINE",
"435 610 LINE",
"726 1178 LINE",
"750 1227 LINE",
"789 1227 LINE"
);
}
);
width = 1425;
}
);
unicode = 00C6;
},
{
glyphname = B;
lastChange = "2013-03-13 10:44:06 +0200";
layers = (
{
layerId = UUID0;
name = "Bold Italic";
paths = (
{
closed = 1;
nodes = (
"284 1462 LINE",
"-26 0 LINE",
"414 0 LINE SMOOTH",
"537 0 OFFCURVE",
"641 37 OFFCURVE",
"728 112 CURVE SMOOTH",
"815 187 OFFCURVE",
"873 291 OFFCURVE",
"902 424 CURVE SMOOTH",
"942 612 OFFCURVE",
"897 725 OFFCURVE",
"740 766 CURVE",
"743 776 LINE",
"808 788 OFFCURVE",
"865 822 OFFCURVE",
"914 879 CURVE SMOOTH",
"964 936 OFFCURVE",
"997 1007 OFFCURVE",
"1015 1092 CURVE SMOOTH",
"1069 1349 OFFCURVE",
"961 1462 OFFCURVE",
"657 1462 CURVE SMOOTH"
);
},
{
closed = 1;
nodes = (
"615 647 OFFCURVE",
"658 582 OFFCURVE",
"630 451 CURVE SMOOTH",
"600 306 OFFCURVE",
"530 238 OFFCURVE",
"417 238 CURVE SMOOTH",
"280 238 LINE",
"367 647 LINE",
"500 647 LINE SMOOTH"
);
},
{
closed = 1;
nodes = (
"720 1227 OFFCURVE",
"761 1178 OFFCURVE",
"735 1057 CURVE SMOOTH",
"710 936 OFFCURVE",
"655 874 OFFCURVE",
"540 874 CURVE SMOOTH",
"415 874 LINE",
"490 1227 LINE",
"605 1227 LINE SMOOTH"
);
}
);
width = 1038;
}
);
unicode = 0042;
},
{
glyphname = C;
lastChange = "2013-03-13 10:44:06 +0200";
layers = (
{
layerId = UUID0;
name = "Bold Italic";
paths = (
{
closed = 1;
nodes = (
"598 1483 OFFCURVE",
"457 1417 OFFCURVE",
"337 1284 CURVE SMOOTH",
"218 1151 OFFCURVE",
"134 966 OFFCURVE",
"83 729 CURVE SMOOTH",
"33 492 OFFCURVE",
"38 307 OFFCURVE",
"98 176 CURVE SMOOTH",
"159 45 OFFCURVE",
"271 -20 OFFCURVE",
"436 -20 CURVE SMOOTH",
"547 -20 OFFCURVE",
"644 4 OFFCURVE",
"725 51 CURVE",
"777 293 LINE",
"681 244 OFFCURVE",
"595 219 OFFCURVE",
"518 219 CURVE SMOOTH",
"341 219 OFFCURVE",
"289 388 OFFCURVE",
"361 727 CURVE SMOOTH",
"396 890 OFFCURVE",
"445 1017 OFFCURVE",
"509 1108 CURVE SMOOTH",
"573 1199 OFFCURVE",
"645 1245 OFFCURVE",
"723 1245 CURVE SMOOTH",
"803 1245 OFFCURVE",
"861 1204 OFFCURVE",
"913 1163 CURVE",
"1050 1384 LINE",
"953 1457 OFFCURVE",
"867 1483 OFFCURVE",
"760 1483 CURVE SMOOTH"
);
}
);
width = 948;
}
);
unicode = 0043;
},
{
glyphname = Ccedilla;
lastChange = "2013-03-13 10:44:06 +0200";
layers = (
{
layerId = UUID0;
name = "Bold Italic";
paths = (
{
closed = 1;
nodes = (
"648 1483 OFFCURVE",
"507 1417 OFFCURVE",
"388 1284 CURVE SMOOTH",
"268 1151 OFFCURVE",
"184 966 OFFCURVE",
"134 729 CURVE SMOOTH",
"83 492 OFFCURVE",
"88 307 OFFCURVE",
"148 176 CURVE SMOOTH",
"209 45 OFFCURVE",
"321 -20 OFFCURVE",
"486 -20 CURVE SMOOTH",
"597 -20 OFFCURVE",
"695 4 OFFCURVE",
"776 51 CURVE",
"827 293 LINE",
"732 244 OFFCURVE",
"645 219 OFFCURVE",
"568 219 CURVE SMOOTH",
"391 219 OFFCURVE",
"339 388 OFFCURVE",
"411 727 CURVE SMOOTH",
"446 890 OFFCURVE",
"495 1017 OFFCURVE",
"559 1108 CURVE SMOOTH",
"624 1199 OFFCURVE",
"695 1245 OFFCURVE",
"773 1245 CURVE SMOOTH",
"853 1245 OFFCURVE",
"912 1204 OFFCURVE",
"963 1163 CURVE",
"1100 1384 LINE",
"1003 1457 OFFCURVE",
"917 1483 OFFCURVE",
"810 1483 CURVE SMOOTH"
);
},
{
closed = 1;
nodes = (
"351 0 LINE",
"238 -158 LINE",
"339 -175 OFFCURVE",
"384 -212 OFFCURVE",
"372 -268 CURVE SMOOTH",
"362 -312 OFFCURVE",
"329 -334 OFFCURVE",
"270 -334 CURVE SMOOTH",
"230 -334 OFFCURVE",
"191 -328 OFFCURVE",
"152 -317 CURVE",
"120 -471 LINE",
"156 -485 OFFCURVE",
"197 -492 OFFCURVE",
"246 -492 CURVE SMOOTH",
"445 -492 OFFCURVE",
"556 -403 OFFCURVE",
"586 -260 CURVE SMOOTH",
"608 -160 OFFCURVE",
"557 -99 OFFCURVE",
"471 -76 CURVE",
"524 0 LINE"
);
}
);
width = 948;
}
);
unicode = 00C7;
},
{
glyphname = D;
lastChange = "2013-03-13 10:44:06 +0200";
layers = (
{
layerId = UUID0;
name = "Bold Italic";
paths = (
{
closed = 1;
nodes = (
"284 1462 LINE",
"-26 0 LINE",
"332 0 LINE SMOOTH",
"517 0 OFFCURVE",
"671 64 OFFCURVE",
"796 191 CURVE SMOOTH",
"922 319 OFFCURVE",
"1011 504 OFFCURVE",
"1062 745 CURVE SMOOTH",
"1110 972 OFFCURVE",
"1101 1148 OFFCURVE",
"1032 1273 CURVE SMOOTH",
"964 1399 OFFCURVE",
"845 1462 OFFCURVE",
"675 1462 CURVE SMOOTH"
);
},
{
closed = 1;
nodes = (
"795 1227 OFFCURVE",
"851 1064 OFFCURVE",
"781 737 CURVE SMOOTH",
"710 404 OFFCURVE",
"583 238 OFFCURVE",
"384 238 CURVE SMOOTH",
"296 238 LINE",
"506 1227 LINE",
"615 1227 LINE SMOOTH"
);
}
);
width = 1143;
}
);
unicode = 0044;
},
{
glyphname = Eth;
lastChange = "2013-03-13 10:44:06 +0200";
layers = (
{
layerId = UUID0;
name = "Bold Italic";
paths = (
{
closed = 1;
nodes = (
"284 1462 LINE",
"153 842 LINE",
"24 842 LINE",
"-27 604 LINE",
"102 604 LINE",
"-26 0 LINE",
"332 0 LINE SMOOTH",
"517 0 OFFCURVE",
"671 64 OFFCURVE",
"796 191 CURVE SMOOTH",
"922 319 OFFCURVE",
"1011 504 OFFCURVE",
"1062 745 CURVE SMOOTH",
"1110 972 OFFCURVE",
"1101 1148 OFFCURVE",
"1032 1273 CURVE SMOOTH",
"964 1399 OFFCURVE",
"845 1462 OFFCURVE",
"675 1462 CURVE SMOOTH"
);
},
{
closed = 1;
nodes = (
"795 1227 OFFCURVE",
"851 1064 OFFCURVE",
"781 737 CURVE SMOOTH",
"710 404 OFFCURVE",
"583 238 OFFCURVE",
"384 238 CURVE SMOOTH",
"296 238 LINE",
"374 604 LINE",
"557 604 LINE",
"608 842 LINE",
"425 842 LINE",
"506 1227 LINE",
"615 1227 LINE SMOOTH"
);
}
);
width = 1143;
}
);
unicode = 00D0;
},
{
glyphname = E;
lastChange = "2013-03-13 10:44:06 +0200";
layers = (
{
layerId = UUID0;
name = "Bold Italic";
paths = (
{
closed = 1;
nodes = (
"284 1462 LINE",
"-26 0 LINE",
"633 0 LINE",
"683 238 LINE",
"296 238 LINE",
"382 643 LINE",
"741 643 LINE",
"791 879 LINE",
"432 879 LINE",
"506 1227 LINE",
"893 1227 LINE",
"943 1462 LINE"
);
}
);
width = 872;
}
);
unicode = 0045;
},
{
glyphname = Eacute;
lastChange = "2013-03-13 10:44:06 +0200";
layers = (
{
layerId = UUID0;
name = "Bold Italic";
paths = (
{
closed = 1;
nodes = (
"237 1462 LINE",
"-74 0 LINE",
"585 0 LINE",
"636 238 LINE",
"249 238 LINE",
"335 643 LINE",
"694 643 LINE",
"744 879 LINE",
"385 879 LINE",
"459 1227 LINE",
"846 1227 LINE",
"896 1462 LINE"
);
},
{
closed = 1;
nodes = (
"711 1907 LINE",
"688 1872 OFFCURVE",
"652 1822 OFFCURVE",
"602 1757 CURVE SMOOTH",
"552 1692 OFFCURVE",
"509 1641 OFFCURVE",
"475 1606 CURVE",
"469 1579 LINE",
"656 1579 LINE",
"725 1628 OFFCURVE",
"799 1684 OFFCURVE",
"876 1747 CURVE SMOOTH",
"952 1811 OFFCURVE",
"1002 1857 OFFCURVE",
"1024 1886 CURVE",
"1029 1907 LINE"
);
}
);
width = 872;
}
);
unicode = 00C9;
},
{
glyphname = Ecircumflex;
lastChange = "2013-03-13 10:44:06 +0200";
layers = (
{
layerId = UUID0;
name = "Bold Italic";
paths = (
{
closed = 1;
nodes = (
"237 1462 LINE",
"-74 0 LINE",
"585 0 LINE",
"636 238 LINE",
"249 238 LINE",
"335 643 LINE",
"694 643 LINE",
"744 879 LINE",
"385 879 LINE",
"459 1227 LINE",
"846 1227 LINE",
"896 1462 LINE"
);
},
{
closed = 1;
nodes = (
"523 1907 LINE",
"485 1855 OFFCURVE",
"391 1755 OFFCURVE",
"242 1606 CURVE",
"236 1579 LINE",
"404 1579 LINE",
"480 1631 OFFCURVE",
"555 1690 OFFCURVE",
"628 1757 CURVE",
"675 1686 OFFCURVE",
"725 1627 OFFCURVE",
"779 1579 CURVE",
"947 1579 LINE",
"953 1606 LINE",
"870 1749 OFFCURVE",
"818 1849 OFFCURVE",
"800 1907 CURVE"
);
}
);
width = 872;
}
);
unicode = 00CA;
},
{
glyphname = Edieresis;
lastChange = "2013-03-13 10:44:06 +0200";
layers = (
{
layerId = UUID0;
name = "Bold Italic";
paths = (
{
closed = 1;
nodes = (
"241 1462 LINE",
"-70 0 LINE",
"589 0 LINE",
"640 238 LINE",
"253 238 LINE",
"339 643 LINE",
"698 643 LINE",
"748 879 LINE",
"389 879 LINE",
"463 1227 LINE",
"850 1227 LINE",
"900 1462 LINE"
);
},
{
closed = 1;
nodes = (
"378 1870 OFFCURVE",
"319 1822 OFFCURVE",
"301 1741 CURVE SMOOTH",
"284 1661 OFFCURVE",
"323 1614 OFFCURVE",
"406 1614 CURVE SMOOTH",
"489 1614 OFFCURVE",
"550 1665 OFFCURVE",
"566 1741 CURVE SMOOTH",
"583 1818 OFFCURVE",
"544 1870 OFFCURVE",
"461 1870 CURVE SMOOTH"
);
},
{
closed = 1;
nodes = (
"776 1870 OFFCURVE",
"716 1821 OFFCURVE",
"699 1741 CURVE SMOOTH",
"683 1664 OFFCURVE",
"722 1614 OFFCURVE",
"805 1614 CURVE SMOOTH",
"888 1614 OFFCURVE",
"949 1662 OFFCURVE",
"965 1741 CURVE SMOOTH",
"983 1822 OFFCURVE",
"941 1870 OFFCURVE",
"860 1870 CURVE SMOOTH"
);
}
);
width = 872;
}
);
unicode = 00CB;
},
{
glyphname = Egrave;
lastChange = "2013-03-13 10:44:06 +0200";
layers = (
{
layerId = UUID0;
name = "Bold Italic";
paths = (
{
closed = 1;
nodes = (
"237 1462 LINE",
"-74 0 LINE",
"585 0 LINE",
"636 238 LINE",
"249 238 LINE",
"335 643 LINE",
"694 643 LINE",
"744 879 LINE",
"385 879 LINE",
"459 1227 LINE",
"846 1227 LINE",
"896 1462 LINE"
);
},
{
closed = 1;
nodes = (
"292 1907 LINE",
"287 1886 LINE",
"298 1855 OFFCURVE",
"330 1806 OFFCURVE",
"383 1739 CURVE SMOOTH",
"436 1672 OFFCURVE",
"483 1619 OFFCURVE",
"525 1579 CURVE",
"712 1579 LINE",
"718 1606 LINE",
"700 1639 OFFCURVE",
"679 1688 OFFCURVE",
"657 1751 CURVE SMOOTH",
"635 1815 OFFCURVE",
"619 1867 OFFCURVE",
"610 1907 CURVE"
);
}
);
width = 872;
}
);
unicode = 00C8;
},
{
glyphname = F;
lastChange = "2013-03-13 10:44:06 +0200";
layers = (
{
layerId = UUID0;
name = "Bold Italic";
paths = (
{
closed = 1;
nodes = (
"284 1462 LINE",
"-26 0 LINE",
"244 0 LINE",
"368 586 LINE",
"727 586 LINE",
"777 821 LINE",
"418 821 LINE",
"504 1227 LINE",
"889 1227 LINE",
"939 1462 LINE"
);
}
);
width = 838;
}
);
unicode = 0046;
},
{
glyphname = G;
lastChange = "2013-03-13 10:44:06 +0200";
layers = (
{
layerId = UUID0;
name = "Bold Italic";
paths = (
{
closed = 1;
nodes = (
"653 1483 OFFCURVE",
"492 1417 OFFCURVE",
"358 1284 CURVE SMOOTH",
"225 1151 OFFCURVE",
"134 968 OFFCURVE",
"84 733 CURVE SMOOTH",
"33 490 OFFCURVE",
"39 303 OFFCURVE",
"102 174 CURVE SMOOTH",
"167 45 OFFCURVE",
"284 -20 OFFCURVE",
"454 -20 CURVE SMOOTH",
"597 -20 OFFCURVE",
"737 7 OFFCURVE",
"875 61 CURVE",
"1035 811 LINE",
"588 811 LINE",
"537 571 LINE",
"718 571 LINE",
"647 236 LINE",
"599 225 OFFCURVE",
"553 219 OFFCURVE",
"509 219 CURVE SMOOTH",
"342 219 OFFCURVE",
"291 399 OFFCURVE",
"361 727 CURVE SMOOTH",
"395 886 OFFCURVE",
"452 1012 OFFCURVE",
"531 1104 CURVE SMOOTH",
"612 1197 OFFCURVE",
"704 1243 OFFCURVE",
"807 1243 CURVE SMOOTH",
"879 1243 OFFCURVE",
"951 1219 OFFCURVE",
"1023 1171 CURVE",
"1157 1393 LINE",
"1063 1453 OFFCURVE",
"959 1483 OFFCURVE",
"842 1483 CURVE SMOOTH"
);
}
);
width = 1112;
}
);
unicode = 0047;
},
{
glyphname = H;
lastChange = "2013-03-13 10:44:06 +0200";
layers = (
{
layerId = UUID0;
name = "Bold Italic";
paths = (
{
closed = 1;
nodes = (
"915 1462 LINE",
"792 881 LINE",
"433 881 LINE",
"556 1462 LINE",
"284 1462 LINE",
"-26 0 LINE",
"246 0 LINE",
"382 641 LINE",
"741 641 LINE",
"605 0 LINE",
"877 0 LINE",
"1187 1462 LINE"
);
}
);
width = 1161;
}
);
unicode = 0048;
},
{
glyphname = I;
lastChange = "2013-03-13 10:44:06 +0200";
layers = (
{
layerId = UUID0;
name = "Bold Italic";
paths = (
{
closed = 1;
nodes = (
"333 1462 LINE",
"23 0 LINE",
"279 0 LINE",
"589 1462 LINE"
);
}
);
width = 614;
}
);
unicode = 0049;
},
{
glyphname = Iacute;
lastChange = "2013-03-13 10:44:06 +0200";
layers = (
{
layerId = UUID0;
name = "Bold Italic";
paths = (
{
closed = 1;
nodes = (
"286 1462 LINE",
"-25 0 LINE",
"231 0 LINE",
"542 1462 LINE"
);
},
{
closed = 1;
nodes = (
"542 1907 LINE",
"519 1872 OFFCURVE",
"483 1822 OFFCURVE",
"433 1757 CURVE SMOOTH",
"383 1692 OFFCURVE",
"340 1641 OFFCURVE",
"306 1606 CURVE",
"300 1579 LINE",
"487 1579 LINE",
"556 1628 OFFCURVE",
"630 1684 OFFCURVE",
"707 1747 CURVE SMOOTH",
"783 1811 OFFCURVE",
"833 1857 OFFCURVE",
"855 1886 CURVE",
"860 1907 LINE"
);
}
);
width = 614;
}
);
unicode = 00CD;
},
{
glyphname = Icircumflex;
lastChange = "2013-03-13 10:44:06 +0200";
layers = (
{
layerId = UUID0;
name = "Bold Italic";
paths = (
{
closed = 1;
nodes = (
"286 1462 LINE",
"-25 0 LINE",
"231 0 LINE",
"542 1462 LINE"
);
},
{
closed = 1;
nodes = (
"372 1907 LINE",
"334 1855 OFFCURVE",
"240 1755 OFFCURVE",
"91 1606 CURVE",
"85 1579 LINE",
"253 1579 LINE",
"329 1631 OFFCURVE",
"404 1690 OFFCURVE",
"477 1757 CURVE",
"524 1686 OFFCURVE",
"574 1627 OFFCURVE",
"628 1579 CURVE",
"796 1579 LINE",
"802 1606 LINE",
"719 1749 OFFCURVE",
"667 1849 OFFCURVE",
"649 1907 CURVE"
);
}
);
width = 614;
}
);
unicode = 00CE;
},
{
glyphname = Idieresis;
lastChange = "2013-03-13 10:44:06 +0200";
layers = (
{
layerId = UUID0;
name = "Bold Italic";
paths = (
{
closed = 1;
nodes = (
"290 1462 LINE",
"-21 0 LINE",
"235 0 LINE",
"546 1462 LINE"
);
},
{
closed = 1;
nodes = (
"224 1870 OFFCURVE",
"165 1822 OFFCURVE",
"147 1741 CURVE SMOOTH",
"130 1661 OFFCURVE",
"169 1614 OFFCURVE",
"252 1614 CURVE SMOOTH",
"335 1614 OFFCURVE",
"396 1665 OFFCURVE",
"412 1741 CURVE SMOOTH",
"429 1818 OFFCURVE",
"390 1870 OFFCURVE",
"307 1870 CURVE SMOOTH"
);
},
{
closed = 1;
nodes = (
"622 1870 OFFCURVE",
"562 1821 OFFCURVE",
"545 1741 CURVE SMOOTH",
"529 1664 OFFCURVE",
"568 1614 OFFCURVE",
"651 1614 CURVE SMOOTH",
"734 1614 OFFCURVE",
"795 1662 OFFCURVE",
"811 1741 CURVE SMOOTH",
"829 1822 OFFCURVE",
"787 1870 OFFCURVE",
"706 1870 CURVE SMOOTH"
);
}
);
width = 614;
}
);
unicode = 00CF;
},
{
glyphname = Igrave;
lastChange = "2013-03-13 10:44:06 +0200";
layers = (
{
layerId = UUID0;
name = "Bold Italic";
paths = (
{
closed = 1;
nodes = (
"286 1462 LINE",
"-25 0 LINE",
"231 0 LINE",
"542 1462 LINE"
);
},
{
closed = 1;
nodes = (
"153 1907 LINE",
"148 1886 LINE",
"159 1855 OFFCURVE",
"191 1806 OFFCURVE",
"244 1739 CURVE SMOOTH",
"297 1672 OFFCURVE",
"344 1619 OFFCURVE",
"386 1579 CURVE",
"573 1579 LINE",
"579 1606 LINE",
"561 1639 OFFCURVE",
"540 1688 OFFCURVE",
"518 1751 CURVE SMOOTH",
"496 1815 OFFCURVE",
"480 1867 OFFCURVE",
"471 1907 CURVE"
);
}
);
width = 614;
}
);
unicode = 00CC;
},
{
glyphname = J;
lastChange = "2013-03-13 10:44:06 +0200";
layers = (
{
layerId = UUID0;
name = "Bold Italic";
paths = (
{
closed = 1;
nodes = (
"329 1462 LINE",
"25 31 LINE SMOOTH",
"-5 -109 OFFCURVE",
"-69 -180 OFFCURVE",
"-180 -180 CURVE SMOOTH",
"-219 -180 OFFCURVE",
"-258 -173 OFFCURVE",
"-299 -160 CURVE",
"-349 -397 LINE",
"-312 -414 OFFCURVE",
"-257 -422 OFFCURVE",
"-186 -422 CURVE SMOOTH",
"39 -425 OFFCURVE",
"243 -243 OFFCURVE",
"300 45 CURVE",
"601 1462 LINE"
);
}
);
width = 530;
}
);
unicode = 004A;
},
{
glyphname = K;
lastChange = "2013-03-13 10:44:06 +0200";
layers = (
{
layerId = UUID0;
name = "Bold Italic";
paths = (
{
closed = 1;
nodes = (
"900 1462 LINE",
"544 956 LINE",
"402 737 LINE",
"556 1462 LINE",
"284 1462 LINE",
"-26 0 LINE",
"246 0 LINE",
"355 516 LINE",
"487 625 LINE",
"595 0 LINE",
"885 0 LINE",
"719 829 LINE",
"1191 1462 LINE"
);
}
);
width = 1040;
}
);
unicode = 004B;
},
{
glyphname = L;
lastChange = "2013-03-13 10:44:06 +0200";
layers = (
{
layerId = UUID0;
name = "Bold Italic";
paths = (
{
closed = 1;
nodes = (
"284 1462 LINE",
"-26 0 LINE",
"623 0 LINE",
"673 238 LINE",
"296 238 LINE",
"556 1462 LINE"
);
}
);
width = 823;
}
);
unicode = 004C;
},
{
glyphname = M;
lastChange = "2013-03-13 10:44:06 +0200";
layers = (
{
layerId = UUID0;
name = "Bold Italic";
paths = (
{
closed = 1;
nodes = (
"1208 1462 LINE",
"716 313 LINE",
"708 313 LINE",
"702 1462 LINE",
"284 1462 LINE",
"-26 0 LINE",
"226 0 LINE",
"434 981 LINE SMOOTH",
"451 1061 OFFCURVE",
"464 1149 OFFCURVE",
"471 1245 CURVE",
"482 1245 LINE",
"496 0 LINE",
"793 0 LINE",
"1334 1243 LINE",
"1342 1243 LINE",
"1315 1157 OFFCURVE",
"1292 1073 OFFCURVE",
"1274 991 CURVE SMOOTH",
"1064 0 LINE",
"1322 0 LINE",
"1632 1462 LINE"
);
}
);
width = 1606;
}
);
unicode = 004D;
},
{
glyphname = N;
lastChange = "2013-03-13 10:44:06 +0200";
layers = (
{
layerId = UUID0;
name = "Bold Italic";
paths = (
{
closed = 1;
nodes = (
"1058 1462 LINE",
"889 664 LINE SMOOTH",
"868 567 OFFCURVE",
"856 484 OFFCURVE",
"855 414 CURVE",
"844 414 LINE",
"618 1462 LINE",
"284 1462 LINE",
"-26 0 LINE",
"226 0 LINE",
"395 799 LINE SMOOTH",
"415 892 OFFCURVE",
"426 978 OFFCURVE",
"426 1059 CURVE",
"439 1059 LINE",
"666 0 LINE",
"998 0 LINE",
"1308 1462 LINE"
);
}
);
width = 1282;
}
);
unicode = 004E;
},
{
glyphname = Ntilde;
lastChange = "2013-03-13 10:44:06 +0200";
layers = (
{
layerId = UUID0;
name = "Bold Italic";
paths = (
{
closed = 1;
nodes = (
"1014 1462 LINE",
"844 664 LINE SMOOTH",
"824 567 OFFCURVE",
"812 484 OFFCURVE",
"810 414 CURVE",
"799 414 LINE",
"574 1462 LINE",
"240 1462 LINE",
"-71 0 LINE",
"181 0 LINE",
"351 799 LINE SMOOTH",
"371 892 OFFCURVE",
"381 978 OFFCURVE",
"381 1059 CURVE",
"394 1059 LINE",
"621 0 LINE",
"953 0 LINE",
"1264 1462 LINE"
);
},
{
closed = 1;
nodes = (
"1056 1880 LINE",
"1025 1805 OFFCURVE",
"1002 1772 OFFCURVE",
"957 1772 CURVE SMOOTH",
"877 1772 OFFCURVE",
"836 1878 OFFCURVE",
"721 1878 CURVE SMOOTH",
"597 1878 OFFCURVE",
"497 1781 OFFCURVE",
"438 1577 CURVE",
"579 1577 LINE",
"610 1660 OFFCURVE",
"640 1686 OFFCURVE",
"681 1686 CURVE SMOOTH",
"760 1686 OFFCURVE",
"796 1579 OFFCURVE",
"914 1579 CURVE SMOOTH",
"1035 1579 OFFCURVE",
"1139 1677 OFFCURVE",
"1197 1880 CURVE"
);
}
);
width = 1282;
}
);
unicode = 00D1;
},
{
glyphname = O;
lastChange = "2013-03-13 10:44:06 +0200";
layers = (
{
layerId = UUID0;
name = "Bold Italic";
paths = (
{
closed = 1;
nodes = (
"601 1485 OFFCURVE",
"457 1420 OFFCURVE",
"339 1291 CURVE SMOOTH",
"220 1162 OFFCURVE",
"136 977 OFFCURVE",
"85 735 CURVE SMOOTH",
"33 491 OFFCURVE",
"38 304 OFFCURVE",
"101 174 CURVE SMOOTH",
"165 45 OFFCURVE",
"281 -20 OFFCURVE",
"450 -20 CURVE SMOOTH",
"619 -20 OFFCURVE",
"762 45 OFFCURVE",
"880 175 CURVE SMOOTH",
"999 305 OFFCURVE",
"1084 491 OFFCURVE",
"1135 733 CURVE SMOOTH",
"1187 975 OFFCURVE",
"1181 1161 OFFCURVE",
"1118 1290 CURVE SMOOTH",
"1056 1420 OFFCURVE",
"941 1485 OFFCURVE",
"772 1485 CURVE SMOOTH"
);
},
{
closed = 1;
nodes = (
"884 1245 OFFCURVE",
"929 1074 OFFCURVE",
"856 733 CURVE SMOOTH",
"784 392 OFFCURVE",
"665 221 OFFCURVE",
"501 221 CURVE SMOOTH",
"338 221 OFFCURVE",
"291 400 OFFCURVE",
"362 733 CURVE SMOOTH",
"433 1068 OFFCURVE",
"556 1245 OFFCURVE",
"721 1245 CURVE SMOOTH"
);
}
);
width = 1219;
}
);
unicode = 004F;
},
{
glyphname = Oacute;
lastChange = "2013-03-13 10:44:06 +0200";
layers = (
{
layerId = UUID0;
name = "Bold Italic";
paths = (
{
closed = 1;
nodes = (
"556 1485 OFFCURVE",
"412 1420 OFFCURVE",
"294 1291 CURVE SMOOTH",
"175 1162 OFFCURVE",
"91 977 OFFCURVE",
"40 735 CURVE SMOOTH",
"-12 491 OFFCURVE",
"-7 304 OFFCURVE",
"56 174 CURVE SMOOTH",
"120 45 OFFCURVE",
"236 -20 OFFCURVE",
"405 -20 CURVE SMOOTH",
"574 -20 OFFCURVE",
"717 45 OFFCURVE",
"836 175 CURVE SMOOTH",
"954 305 OFFCURVE",
"1039 491 OFFCURVE",
"1090 733 CURVE SMOOTH",
"1142 975 OFFCURVE",
"1136 1161 OFFCURVE",
"1074 1290 CURVE SMOOTH",
"1011 1420 OFFCURVE",
"896 1485 OFFCURVE",
"727 1485 CURVE SMOOTH"
);
},
{
closed = 1;
nodes = (
"839 1245 OFFCURVE",
"884 1074 OFFCURVE",
"811 733 CURVE SMOOTH",
"739 392 OFFCURVE",
"620 221 OFFCURVE",
"456 221 CURVE SMOOTH",
"293 221 OFFCURVE",
"246 400 OFFCURVE",
"317 733 CURVE SMOOTH",
"388 1068 OFFCURVE",
"511 1245 OFFCURVE",
"676 1245 CURVE SMOOTH"
);
},
{
closed = 1;
nodes = (
"854 1907 LINE",
"831 1872 OFFCURVE",
"795 1822 OFFCURVE",
"745 1757 CURVE SMOOTH",
"695 1692 OFFCURVE",
"652 1641 OFFCURVE",
"618 1606 CURVE",
"612 1579 LINE",
"799 1579 LINE",
"868 1628 OFFCURVE",
"942 1684 OFFCURVE",
"1019 1747 CURVE SMOOTH",
"1095 1811 OFFCURVE",
"1145 1857 OFFCURVE",
"1167 1886 CURVE",
"1172 1907 LINE"
);
}
);
width = 1219;
}
);
unicode = 00D3;
},
{
glyphname = Ocircumflex;
lastChange = "2013-03-13 10:44:06 +0200";
layers = (
{
layerId = UUID0;
name = "Bold Italic";
paths = (
{
closed = 1;
nodes = (
"556 1485 OFFCURVE",
"412 1420 OFFCURVE",
"294 1291 CURVE SMOOTH",
"175 1162 OFFCURVE",
"91 977 OFFCURVE",
"40 735 CURVE SMOOTH",
"-12 491 OFFCURVE",
"-7 304 OFFCURVE",
"56 174 CURVE SMOOTH",
"120 45 OFFCURVE",
"236 -20 OFFCURVE",
"405 -20 CURVE SMOOTH",
"574 -20 OFFCURVE",
"717 45 OFFCURVE",
"836 175 CURVE SMOOTH",
"954 305 OFFCURVE",
"1039 491 OFFCURVE",
"1090 733 CURVE SMOOTH",
"1142 975 OFFCURVE",
"1136 1161 OFFCURVE",
"1074 1290 CURVE SMOOTH",
"1011 1420 OFFCURVE",
"896 1485 OFFCURVE",
"727 1485 CURVE SMOOTH"
);
},
{
closed = 1;
nodes = (
"839 1245 OFFCURVE",
"884 1074 OFFCURVE",
"811 733 CURVE SMOOTH",
"739 392 OFFCURVE",
"620 221 OFFCURVE",
"456 221 CURVE SMOOTH",
"293 221 OFFCURVE",
"246 400 OFFCURVE",
"317 733 CURVE SMOOTH",
"388 1068 OFFCURVE",
"511 1245 OFFCURVE",
"676 1245 CURVE SMOOTH"
);
},
{
closed = 1;
nodes = (
"674 1907 LINE",
"636 1855 OFFCURVE",
"542 1755 OFFCURVE",
"393 1606 CURVE",
"387 1579 LINE",
"555 1579 LINE",
"631 1631 OFFCURVE",
"706 1690 OFFCURVE",
"779 1757 CURVE",
"826 1686 OFFCURVE",
"876 1627 OFFCURVE",
"930 1579 CURVE",
"1098 1579 LINE",
"1104 1606 LINE",
"1021 1749 OFFCURVE",
"969 1849 OFFCURVE",
"951 1907 CURVE"
);
}
);
width = 1219;
}
);
unicode = 00D4;
},
{
glyphname = Odieresis;
lastChange = "2013-03-13 10:44:06 +0200";
layers = (
{
layerId = UUID0;
name = "Bold Italic";
paths = (
{
closed = 1;
nodes = (
"560 1485 OFFCURVE",
"416 1420 OFFCURVE",
"298 1291 CURVE SMOOTH",
"179 1162 OFFCURVE",
"95 977 OFFCURVE",
"44 735 CURVE SMOOTH",
"-8 491 OFFCURVE",
"-3 304 OFFCURVE",
"60 174 CURVE SMOOTH",
"124 45 OFFCURVE",
"240 -20 OFFCURVE",
"409 -20 CURVE SMOOTH",
"578 -20 OFFCURVE",
"721 45 OFFCURVE",
"840 175 CURVE SMOOTH",
"958 305 OFFCURVE",
"1043 491 OFFCURVE",
"1094 733 CURVE SMOOTH",
"1146 975 OFFCURVE",
"1140 1161 OFFCURVE",
"1078 1290 CURVE SMOOTH",
"1015 1420 OFFCURVE",
"900 1485 OFFCURVE",
"731 1485 CURVE SMOOTH"
);
},
{
closed = 1;
nodes = (
"843 1245 OFFCURVE",
"888 1074 OFFCURVE",
"815 733 CURVE SMOOTH",
"743 392 OFFCURVE",
"624 221 OFFCURVE",
"460 221 CURVE SMOOTH",
"297 221 OFFCURVE",
"250 400 OFFCURVE",
"321 733 CURVE SMOOTH",
"392 1068 OFFCURVE",
"515 1245 OFFCURVE",
"680 1245 CURVE SMOOTH"
);
},
{
closed = 1;
nodes = (
"526 1870 OFFCURVE",
"467 1822 OFFCURVE",
"449 1741 CURVE SMOOTH",
"432 1661 OFFCURVE",
"471 1614 OFFCURVE",
"554 1614 CURVE SMOOTH",
"637 1614 OFFCURVE",
"698 1665 OFFCURVE",
"714 1741 CURVE SMOOTH",
"731 1818 OFFCURVE",
"692 1870 OFFCURVE",
"609 1870 CURVE SMOOTH"
);
},
{
closed = 1;
nodes = (
"924 1870 OFFCURVE",
"864 1821 OFFCURVE",
"847 1741 CURVE SMOOTH",
"831 1664 OFFCURVE",
"870 1614 OFFCURVE",
"953 1614 CURVE SMOOTH",
"1036 1614 OFFCURVE",
"1097 1662 OFFCURVE",
"1113 1741 CURVE SMOOTH",
"1131 1822 OFFCURVE",
"1089 1870 OFFCURVE",
"1008 1870 CURVE SMOOTH"
);
}
);
width = 1219;
}
);
unicode = 00D6;
},
{
glyphname = Ograve;
lastChange = "2013-03-13 10:44:06 +0200";
layers = (
{
layerId = UUID0;
name = "Bold Italic";
paths = (
{
closed = 1;
nodes = (
"556 1485 OFFCURVE",
"412 1420 OFFCURVE",
"294 1291 CURVE SMOOTH",
"175 1162 OFFCURVE",
"91 977 OFFCURVE",
"40 735 CURVE SMOOTH",
"-12 491 OFFCURVE",
"-7 304 OFFCURVE",
"56 174 CURVE SMOOTH",
"120 45 OFFCURVE",
"236 -20 OFFCURVE",
"405 -20 CURVE SMOOTH",
"574 -20 OFFCURVE",
"717 45 OFFCURVE",
"836 175 CURVE SMOOTH",
"954 305 OFFCURVE",
"1039 491 OFFCURVE",
"1090 733 CURVE SMOOTH",
"1142 975 OFFCURVE",
"1136 1161 OFFCURVE",
"1074 1290 CURVE SMOOTH",
"1011 1420 OFFCURVE",
"896 1485 OFFCURVE",
"727 1485 CURVE SMOOTH"
);
},
{
closed = 1;
nodes = (
"839 1245 OFFCURVE",
"884 1074 OFFCURVE",
"811 733 CURVE SMOOTH",
"739 392 OFFCURVE",
"620 221 OFFCURVE",
"456 221 CURVE SMOOTH",
"293 221 OFFCURVE",
"246 400 OFFCURVE",
"317 733 CURVE SMOOTH",
"388 1068 OFFCURVE",
"511 1245 OFFCURVE",
"676 1245 CURVE SMOOTH"
);
},
{
closed = 1;
nodes = (
"449 1907 LINE",
"444 1886 LINE",
"455 1855 OFFCURVE",
"487 1806 OFFCURVE",
"540 1739 CURVE SMOOTH",
"593 1672 OFFCURVE",
"641 1619 OFFCURVE",
"682 1579 CURVE",
"869 1579 LINE",
"875 1606 LINE",
"857 1639 OFFCURVE",
"836 1688 OFFCURVE",
"814 1751 CURVE SMOOTH",
"792 1815 OFFCURVE",
"776 1867 OFFCURVE",
"767 1907 CURVE"
);
}
);
width = 1219;
}
);
unicode = 00D2;
},
{
glyphname = Oslash;
lastChange = "2013-03-13 10:44:06 +0200";
layers = (
{
layerId = UUID0;
name = "Bold Italic";
paths = (
{
closed = 1;
nodes = (
"1010 1417 LINE",
"943 1462 OFFCURVE",
"864 1485 OFFCURVE",
"773 1485 CURVE SMOOTH",
"602 1485 OFFCURVE",
"458 1420 OFFCURVE",
"340 1291 CURVE SMOOTH",
"221 1162 OFFCURVE",
"137 977 OFFCURVE",
"85 735 CURVE SMOOTH",
"32 482 OFFCURVE",
"39 291 OFFCURVE",
"109 162 CURVE",
"-27 -25 LINE",
"122 -102 LINE",
"222 37 LINE",
"285 -1 OFFCURVE",
"361 -20 OFFCURVE",
"451 -20 CURVE SMOOTH",
"620 -20 OFFCURVE",
"763 45 OFFCURVE",
"881 175 CURVE SMOOTH",
"1000 305 OFFCURVE",
"1085 491 OFFCURVE",
"1136 733 CURVE SMOOTH",
"1187 974 OFFCURVE",
"1181 1158 OFFCURVE",
"1120 1286 CURVE",
"1262 1483 LINE",
"1113 1559 LINE"
);
},
{
closed = 1;
nodes = (
"891 913 OFFCURVE",
"878 834 OFFCURVE",
"857 733 CURVE SMOOTH",
"784 392 OFFCURVE",
"666 221 OFFCURVE",
"502 221 CURVE SMOOTH",
"448 221 OFFCURVE",
"408 234 OFFCURVE",
"381 260 CURVE",
"895 969 LINE"
);
},
{
closed = 1;
nodes = (
"781 1245 OFFCURVE",
"825 1229 OFFCURVE",
"853 1196 CURVE",
"327 467 LINE",
"329 539 OFFCURVE",
"341 628 OFFCURVE",
"363 733 CURVE SMOOTH",
"434 1068 OFFCURVE",
"557 1245 OFFCURVE",
"722 1245 CURVE SMOOTH"
);
}
);
width = 1219;
}
);
unicode = 00D8;
},
{
glyphname = Otilde;
lastChange = "2013-03-13 10:44:06 +0200";
layers = (
{
layerId = UUID0;
name = "Bold Italic";
paths = (
{
closed = 1;
nodes = (
"559 1485 OFFCURVE",
"415 1420 OFFCURVE",
"297 1291 CURVE SMOOTH",
"178 1162 OFFCURVE",
"94 977 OFFCURVE",
"43 735 CURVE SMOOTH",
"-9 491 OFFCURVE",
"-4 304 OFFCURVE",
"59 174 CURVE SMOOTH",
"123 45 OFFCURVE",
"239 -20 OFFCURVE",
"408 -20 CURVE SMOOTH",
"577 -20 OFFCURVE",
"720 45 OFFCURVE",
"839 175 CURVE SMOOTH",
"957 305 OFFCURVE",
"1042 491 OFFCURVE",
"1093 733 CURVE SMOOTH",
"1145 975 OFFCURVE",
"1139 1161 OFFCURVE",
"1077 1290 CURVE SMOOTH",
"1014 1420 OFFCURVE",
"899 1485 OFFCURVE",
"730 1485 CURVE SMOOTH"
);
},
{
closed = 1;
nodes = (
"842 1245 OFFCURVE",
"887 1074 OFFCURVE",
"814 733 CURVE SMOOTH",
"742 392 OFFCURVE",
"623 221 OFFCURVE",
"459 221 CURVE SMOOTH",
"296 221 OFFCURVE",
"249 400 OFFCURVE",
"320 733 CURVE SMOOTH",
"391 1068 OFFCURVE",
"514 1245 OFFCURVE",
"679 1245 CURVE SMOOTH"
);
},
{
closed = 1;
nodes = (
"1027 1880 LINE",
"996 1805 OFFCURVE",
"973 1772 OFFCURVE",
"928 1772 CURVE SMOOTH",
"848 1772 OFFCURVE",
"808 1878 OFFCURVE",
"693 1878 CURVE SMOOTH",
"569 1878 OFFCURVE",
"468 1781 OFFCURVE",
"410 1577 CURVE",
"551 1577 LINE",
"581 1660 OFFCURVE",
"611 1686 OFFCURVE",
"652 1686 CURVE SMOOTH",
"731 1686 OFFCURVE",
"767 1579 OFFCURVE",
"885 1579 CURVE SMOOTH",
"1006 1579 OFFCURVE",
"1110 1677 OFFCURVE",
"1168 1880 CURVE"
);
}
);
width = 1219;
}
);
unicode = 00D5;
},
{
glyphname = OE;
lastChange = "2013-03-13 10:44:06 +0200";
layers = (
{
layerId = UUID0;
name = "Bold Italic";
paths = (
{
closed = 1;
nodes = (
"601 1485 OFFCURVE",
"457 1420 OFFCURVE",
"339 1291 CURVE SMOOTH",
"220 1162 OFFCURVE",
"136 977 OFFCURVE",
"85 735 CURVE SMOOTH",
"33 491 OFFCURVE",
"38 304 OFFCURVE",
"101 174 CURVE SMOOTH",
"165 45 OFFCURVE",
"281 -20 OFFCURVE",
"450 -20 CURVE SMOOTH",
"499 -20 OFFCURVE",
"551 -13 OFFCURVE",
"604 0 CURVE",
"1204 0 LINE",
"1255 238 LINE",
"872 238 LINE",
"958 643 LINE",
"1312 643 LINE",
"1362 879 LINE",
"1008 879 LINE",
"1082 1227 LINE",
"1465 1227 LINE",
"1515 1462 LINE",
"925 1462 LINE",
"877 1477 OFFCURVE",
"826 1485 OFFCURVE",
"772 1485 CURVE SMOOTH"
);
},
{
closed = 1;
nodes = (
"752 1245 OFFCURVE",
"782 1240 OFFCURVE",
"811 1231 CURVE",
"599 236 LINE",
"570 226 OFFCURVE",
"537 221 OFFCURVE",
"501 221 CURVE SMOOTH",
"338 221 OFFCURVE",
"291 400 OFFCURVE",
"362 733 CURVE SMOOTH",
"433 1068 OFFCURVE",
"556 1245 OFFCURVE",
"721 1245 CURVE SMOOTH"
);
}
);
width = 1446;
}
);
unicode = 0152;
},
{
glyphname = P;
lastChange = "2013-03-13 10:44:06 +0200";
layers = (
{
layerId = UUID0;
name = "Bold Italic";
paths = (
{
closed = 1;
nodes = (
"284 1462 LINE",
"-26 0 LINE",
"246 0 LINE",
"358 530 LINE",
"426 530 LINE SMOOTH",
"722 530 OFFCURVE",
"920 701 OFFCURVE",
"986 1012 CURVE SMOOTH",
"1049 1312 OFFCURVE",
"939 1462 OFFCURVE",
"655 1462 CURVE SMOOTH"
);
},
{
closed = 1;
nodes = (
"697 1227 OFFCURVE",
"741 1154 OFFCURVE",
"708 1001 CURVE SMOOTH",
"673 834 OFFCURVE",
"593 766 OFFCURVE",
"460 766 CURVE SMOOTH",
"408 766 LINE",
"506 1227 LINE",
"572 1227 LINE SMOOTH"
);
}
);
width = 980;
}
);
unicode = 0050;
},
{
glyphname = Thorn;
lastChange = "2013-03-13 10:44:06 +0200";
layers = (
{
layerId = UUID0;
name = "Bold Italic";
paths = (
{
closed = 1;
nodes = (
"284 1462 LINE",
"-26 0 LINE",
"246 0 LINE",
"308 295 LINE",
"376 295 LINE SMOOTH",
"673 295 OFFCURVE",
"870 467 OFFCURVE",
"936 778 CURVE SMOOTH",
"1000 1079 OFFCURVE",
"889 1229 OFFCURVE",
"604 1229 CURVE SMOOTH",
"507 1229 LINE",
"556 1462 LINE"
);
},
{
closed = 1;
nodes = (
"646 995 OFFCURVE",
"691 919 OFFCURVE",
"659 768 CURVE SMOOTH",
"623 600 OFFCURVE",
"543 530 OFFCURVE",
"410 530 CURVE SMOOTH",
"358 530 LINE",
"457 995 LINE",
"525 995 LINE SMOOTH"
);
}
);
width = 980;
}
);
unicode = 00DE;
},
{
glyphname = Q;
lastChange = "2013-03-13 10:44:06 +0200";
layers = (
{
layerId = UUID0;
name = "Bold Italic";
paths = (
{
closed = 1;
nodes = (
"636 1485 OFFCURVE",
"492 1420 OFFCURVE",
"374 1291 CURVE SMOOTH",
"255 1162 OFFCURVE",
"171 977 OFFCURVE",
"119 735 CURVE SMOOTH",
"68 491 OFFCURVE",
"73 304 OFFCURVE",
"136 174 CURVE SMOOTH",
"200 45 OFFCURVE",
"316 -20 OFFCURVE",
"485 -20 CURVE SMOOTH",
"500 -20 LINE",
"632 -348 LINE",
"946 -348 LINE",
"762 51 LINE",
"959 164 OFFCURVE",
"1099 398 OFFCURVE",
"1170 733 CURVE SMOOTH",
"1221 975 OFFCURVE",
"1216 1161 OFFCURVE",
"1153 1290 CURVE SMOOTH",
"1091 1420 OFFCURVE",
"976 1485 OFFCURVE",
"807 1485 CURVE SMOOTH"
);
},
{
closed = 1;
nodes = (
"919 1245 OFFCURVE",
"963 1074 OFFCURVE",
"891 733 CURVE SMOOTH",
"818 392 OFFCURVE",
"700 221 OFFCURVE",
"536 221 CURVE SMOOTH",
"373 221 OFFCURVE",
"326 400 OFFCURVE",
"397 733 CURVE SMOOTH",
"468 1068 OFFCURVE",
"591 1245 OFFCURVE",
"756 1245 CURVE SMOOTH"
);
}
);
width = 1219;
}
);
unicode = 0051;
},
{
glyphname = R;
lastChange = "2013-03-13 10:44:06 +0200";
layers = (
{
layerId = UUID0;
name = "Bold Italic";
paths = (
{
closed = 1;
nodes = (
"284 1462 LINE",
"-26 0 LINE",
"246 0 LINE",
"367 569 LINE",
"464 569 LINE",
"574 0 LINE",
"865 0 LINE",
"720 641 LINE",
"860 714 OFFCURVE",
"950 843 OFFCURVE",
"989 1028 CURVE SMOOTH",
"1051 1321 OFFCURVE",
"941 1462 OFFCURVE",
"640 1462 CURVE SMOOTH"
);
},
{
closed = 1;
nodes = (
"698 1227 OFFCURVE",
"744 1169 OFFCURVE",
"712 1020 CURVE SMOOTH",
"682 876 OFFCURVE",
"614 803 OFFCURVE",
"486 803 CURVE SMOOTH",
"416 803 LINE",
"506 1227 LINE",
"574 1227 LINE SMOOTH"
);
}
);
width = 1024;
}
);
unicode = 0052;
},
{
glyphname = S;
lastChange = "2013-03-13 10:44:06 +0200";
layers = (
{
layerId = UUID0;
name = "Bold Italic";
paths = (
{
closed = 1;
nodes = (
"508 1483 OFFCURVE",
"406 1446 OFFCURVE",
"320 1373 CURVE SMOOTH",
"236 1300 OFFCURVE",
"180 1200 OFFCURVE",
"153 1075 CURVE SMOOTH",
"139 1010 OFFCURVE",
"136 952 OFFCURVE",
"142 903 CURVE SMOOTH",
"150 854 OFFCURVE",
"165 809 OFFCURVE",
"189 769 CURVE SMOOTH",
"214 730 OFFCURVE",
"252 688 OFFCURVE",
"306 645 CURVE SMOOTH",
"367 596 OFFCURVE",
"410 551 OFFCURVE",
"432 510 CURVE SMOOTH",
"454 470 OFFCURVE",
"461 426 OFFCURVE",
"451 377 CURVE SMOOTH",
"430 278 OFFCURVE",
"364 217 OFFCURVE",
"260 217 CURVE SMOOTH",
"169 217 OFFCURVE",
"75 253 OFFCURVE",
"-19 324 CURVE",
"-76 55 LINE",
"3 5 OFFCURVE",
"106 -20 OFFCURVE",
"233 -20 CURVE SMOOTH",
"493 -20 OFFCURVE",
"667 130 OFFCURVE",
"725 403 CURVE SMOOTH",
"743 488 OFFCURVE",
"740 564 OFFCURVE",
"717 631 CURVE SMOOTH",
"694 698 OFFCURVE",
"641 763 OFFCURVE",
"559 827 CURVE SMOOTH",
"498 874 OFFCURVE",
"458 915 OFFCURVE",
"437 952 CURVE SMOOTH",
"417 989 OFFCURVE",
"412 1032 OFFCURVE",
"422 1081 CURVE SMOOTH",
"444 1181 OFFCURVE",
"506 1243 OFFCURVE",
"594 1243 CURVE SMOOTH",
"674 1243 OFFCURVE",
"735 1208 OFFCURVE",
"791 1171 CURVE",
"928 1389 LINE",
"838 1452 OFFCURVE",
"737 1483 OFFCURVE",
"625 1483 CURVE SMOOTH"
);
}
);
width = 846;
}
);
unicode = 0053;
},
{
glyphname = Scaron;
lastChange = "2013-03-13 10:44:06 +0200";
layers = (
{
layerId = UUID0;
name = "Bold Italic";
paths = (
{
closed = 1;
nodes = (
"463 1483 OFFCURVE",
"361 1446 OFFCURVE",
"275 1373 CURVE SMOOTH",
"191 1300 OFFCURVE",
"135 1200 OFFCURVE",
"108 1075 CURVE SMOOTH",
"94 1010 OFFCURVE",
"91 952 OFFCURVE",
"97 903 CURVE SMOOTH",
"105 854 OFFCURVE",
"120 809 OFFCURVE",
"144 769 CURVE SMOOTH",
"169 730 OFFCURVE",
"207 688 OFFCURVE",
"261 645 CURVE SMOOTH",
"322 596 OFFCURVE",
"365 551 OFFCURVE",
"387 510 CURVE SMOOTH",
"409 470 OFFCURVE",
"416 426 OFFCURVE",
"406 377 CURVE SMOOTH",
"385 278 OFFCURVE",
"319 217 OFFCURVE",
"215 217 CURVE SMOOTH",
"124 217 OFFCURVE",
"30 253 OFFCURVE",
"-64 324 CURVE",
"-121 55 LINE",
"-42 5 OFFCURVE",
"61 -20 OFFCURVE",
"188 -20 CURVE SMOOTH",
"448 -20 OFFCURVE",
"622 130 OFFCURVE",
"680 403 CURVE SMOOTH",
"698 488 OFFCURVE",
"695 564 OFFCURVE",
"672 631 CURVE SMOOTH",
"649 698 OFFCURVE",
"596 763 OFFCURVE",
"514 827 CURVE SMOOTH",
"453 874 OFFCURVE",
"413 915 OFFCURVE",
"392 952 CURVE SMOOTH",
"372 989 OFFCURVE",
"367 1032 OFFCURVE",
"377 1081 CURVE SMOOTH",
"398 1181 OFFCURVE",
"461 1243 OFFCURVE",
"549 1243 CURVE SMOOTH",
"629 1243 OFFCURVE",
"690 1208 OFFCURVE",
"746 1171 CURVE",
"883 1389 LINE",
"793 1452 OFFCURVE",
"692 1483 OFFCURVE",
"580 1483 CURVE SMOOTH"
);
},
{
closed = 1;
nodes = (
"829 1907 LINE",
"757 1857 OFFCURVE",
"683 1798 OFFCURVE",
"606 1729 CURVE",
"558 1802 OFFCURVE",
"507 1861 OFFCURVE",
"454 1907 CURVE",
"286 1907 LINE",
"280 1880 LINE",
"364 1734 OFFCURVE",
"416 1634 OFFCURVE",
"433 1579 CURVE",
"710 1579 LINE",
"758 1641 OFFCURVE",
"852 1741 OFFCURVE",
"991 1880 CURVE",
"997 1907 LINE"
);
}
);
width = 846;
}
);
unicode = 0160;
},
{
glyphname = T;
lastChange = "2013-03-13 10:44:06 +0200";
layers = (
{
layerId = UUID0;
name = "Bold Italic";
paths = (
{
closed = 1;
nodes = (
"182 1462 LINE",
"132 1223 LINE",
"412 1223 LINE",
"152 0 LINE",
"423 0 LINE",
"683 1223 LINE",
"963 1223 LINE",
"1013 1462 LINE"
);
}
);
width = 885;
}
);
unicode = 0054;
},
{
glyphname = U;
lastChange = "2013-03-13 10:44:06 +0200";
layers = (
{
layerId = UUID0;
name = "Bold Italic";
paths = (
{
closed = 1;
nodes = (
"916 1462 LINE",
"710 494 LINE SMOOTH",
"673 319 OFFCURVE",
"587 221 OFFCURVE",
"472 221 CURVE SMOOTH",
"349 221 OFFCURVE",
"306 314 OFFCURVE",
"346 500 CURVE SMOOTH",
"551 1462 LINE",
"281 1462 LINE",
"80 520 LINE SMOOTH",
"5 164 OFFCURVE",
"120 -20 OFFCURVE",
"411 -20 CURVE SMOOTH",
"708 -20 OFFCURVE",
"910 168 OFFCURVE",
"984 516 CURVE SMOOTH",
"1186 1462 LINE"
);
}
);
width = 1151;
}
);
unicode = 0055;
},
{
glyphname = Uacute;
lastChange = "2013-03-13 10:44:06 +0200";
layers = (
{
layerId = UUID0;
name = "Bold Italic";
paths = (
{
closed = 1;
nodes = (
"868 1462 LINE",
"662 494 LINE SMOOTH",
"625 319 OFFCURVE",
"539 221 OFFCURVE",
"424 221 CURVE SMOOTH",
"301 221 OFFCURVE",
"259 314 OFFCURVE",
"299 500 CURVE SMOOTH",
"503 1462 LINE",
"233 1462 LINE",
"33 520 LINE SMOOTH",
"-43 164 OFFCURVE",
"73 -20 OFFCURVE",
"364 -20 CURVE SMOOTH",
"661 -20 OFFCURVE",
"863 168 OFFCURVE",
"937 516 CURVE SMOOTH",
"1138 1462 LINE"
);
},
{
closed = 1;
nodes = (
"821 1907 LINE",
"798 1872 OFFCURVE",
"762 1822 OFFCURVE",
"712 1757 CURVE SMOOTH",
"662 1692 OFFCURVE",
"619 1641 OFFCURVE",
"585 1606 CURVE",
"579 1579 LINE",
"766 1579 LINE",
"835 1628 OFFCURVE",
"909 1684 OFFCURVE",
"986 1747 CURVE SMOOTH",
"1062 1811 OFFCURVE",
"1112 1857 OFFCURVE",
"1134 1886 CURVE",
"1139 1907 LINE"
);
}
);
width = 1151;
}
);
unicode = 00DA;
},
{
glyphname = Ucircumflex;
lastChange = "2013-03-13 10:44:06 +0200";
layers = (
{
layerId = UUID0;
name = "Bold Italic";
paths = (
{
closed = 1;
nodes = (
"868 1462 LINE",
"662 494 LINE SMOOTH",
"625 319 OFFCURVE",
"539 221 OFFCURVE",
"424 221 CURVE SMOOTH",
"301 221 OFFCURVE",
"259 314 OFFCURVE",
"299 500 CURVE SMOOTH",
"503 1462 LINE",
"233 1462 LINE",
"33 520 LINE SMOOTH",
"-43 164 OFFCURVE",
"73 -20 OFFCURVE",
"364 -20 CURVE SMOOTH",
"661 -20 OFFCURVE",
"863 168 OFFCURVE",
"937 516 CURVE SMOOTH",
"1138 1462 LINE"
);
},
{
closed = 1;
nodes = (
"641 1907 LINE",
"603 1855 OFFCURVE",
"509 1755 OFFCURVE",
"360 1606 CURVE",
"354 1579 LINE",
"522 1579 LINE",
"598 1631 OFFCURVE",
"673 1690 OFFCURVE",
"746 1757 CURVE",
"793 1686 OFFCURVE",
"843 1627 OFFCURVE",
"897 1579 CURVE",
"1065 1579 LINE",
"1071 1606 LINE",
"988 1749 OFFCURVE",
"936 1849 OFFCURVE",
"918 1907 CURVE"
);
}
);
width = 1151;
}
);
unicode = 00DB;
},
{
glyphname = Udieresis;
lastChange = "2013-03-13 10:44:06 +0200";
layers = (
{
layerId = UUID0;
name = "Bold Italic";
paths = (
{
closed = 1;
nodes = (
"872 1462 LINE",
"666 494 LINE SMOOTH",
"629 319 OFFCURVE",
"543 221 OFFCURVE",
"428 221 CURVE SMOOTH",
"305 221 OFFCURVE",
"263 314 OFFCURVE",
"303 500 CURVE SMOOTH",
"507 1462 LINE",
"237 1462 LINE",
"37 520 LINE SMOOTH",
"-39 164 OFFCURVE",
"77 -20 OFFCURVE",
"368 -20 CURVE SMOOTH",
"665 -20 OFFCURVE",
"867 168 OFFCURVE",
"941 516 CURVE SMOOTH",
"1142 1462 LINE"
);
},
{
closed = 1;
nodes = (
"493 1870 OFFCURVE",
"434 1822 OFFCURVE",
"416 1741 CURVE SMOOTH",
"399 1661 OFFCURVE",
"438 1614 OFFCURVE",
"521 1614 CURVE SMOOTH",
"604 1614 OFFCURVE",
"665 1665 OFFCURVE",
"681 1741 CURVE SMOOTH",
"698 1818 OFFCURVE",
"659 1870 OFFCURVE",
"576 1870 CURVE SMOOTH"
);
},
{
closed = 1;
nodes = (
"891 1870 OFFCURVE",
"831 1821 OFFCURVE",
"814 1741 CURVE SMOOTH",
"798 1664 OFFCURVE",
"837 1614 OFFCURVE",
"920 1614 CURVE SMOOTH",
"1003 1614 OFFCURVE",
"1064 1662 OFFCURVE",
"1080 1741 CURVE SMOOTH",
"1098 1822 OFFCURVE",
"1056 1870 OFFCURVE",
"975 1870 CURVE SMOOTH"
);
}
);
width = 1151;
}
);
unicode = 00DC;
},
{
glyphname = Ugrave;
lastChange = "2013-03-13 10:44:06 +0200";
layers = (
{
layerId = UUID0;
name = "Bold Italic";
paths = (
{
closed = 1;
nodes = (
"868 1462 LINE",
"662 494 LINE SMOOTH",
"625 319 OFFCURVE",
"539 221 OFFCURVE",
"424 221 CURVE SMOOTH",
"301 221 OFFCURVE",
"259 314 OFFCURVE",
"299 500 CURVE SMOOTH",
"503 1462 LINE",
"233 1462 LINE",
"33 520 LINE SMOOTH",
"-43 164 OFFCURVE",
"73 -20 OFFCURVE",
"364 -20 CURVE SMOOTH",
"661 -20 OFFCURVE",
"863 168 OFFCURVE",
"937 516 CURVE SMOOTH",
"1138 1462 LINE"
);
},
{
closed = 1;
nodes = (
"415 1907 LINE",
"410 1886 LINE",
"421 1855 OFFCURVE",
"453 1806 OFFCURVE",
"506 1739 CURVE SMOOTH",
"559 1672 OFFCURVE",
"607 1619 OFFCURVE",
"648 1579 CURVE",
"835 1579 LINE",
"841 1606 LINE",
"823 1639 OFFCURVE",
"802 1688 OFFCURVE",
"780 1751 CURVE SMOOTH",
"758 1815 OFFCURVE",
"742 1867 OFFCURVE",
"733 1907 CURVE"
);
}
);
width = 1151;
}
);
unicode = 00D9;
},
{
glyphname = V;
lastChange = "2013-03-13 10:44:06 +0200";
layers = (
{
layerId = UUID0;
name = "Bold Italic";
paths = (
{
closed = 1;
nodes = (
"913 1462 LINE",
"535 569 LINE SMOOTH",
"493 472 OFFCURVE",
"452 363 OFFCURVE",
"412 242 CURVE",
"425 384 OFFCURVE",
"431 493 OFFCURVE",
"431 569 CURVE SMOOTH",
"429 1462 LINE",
"155 1462 LINE",
"187 0 LINE",
"533 0 LINE",
"1187 1462 LINE"
);
}
);
width = 1032;
}
);
unicode = 0056;
},
{
glyphname = W;
lastChange = "2013-03-13 10:44:06 +0200";
layers = (
{
layerId = UUID0;
name = "Bold Italic";
paths = (
{
closed = 1;
nodes = (
"1490 1462 LINE",
"1188 637 LINE SMOOTH",
"1164 574 OFFCURVE",
"1119 443 OFFCURVE",
"1054 246 CURVE",
"1070 379 OFFCURVE",
"1082 508 OFFCURVE",
"1087 631 CURVE SMOOTH",
"1107 1462 LINE",
"825 1462 LINE",
"493 631 LINE SMOOTH",
"461 554 OFFCURVE",
"419 427 OFFCURVE",
"364 248 CURVE",
"381 425 OFFCURVE",
"391 554 OFFCURVE",
"396 637 CURVE SMOOTH",
"440 1462 LINE",
"173 1462 LINE",
"128 0 LINE",
"468 0 LINE",
"769 762 LINE",
"874 1063 LINE",
"897 1137 LINE",
"876 994 OFFCURVE",
"866 871 OFFCURVE",
"865 766 CURVE SMOOTH",
"846 0 LINE",
"1186 0 LINE",
"1759 1462 LINE"
);
}
);
width = 1622;
}
);
unicode = 0057;
},
{
glyphname = X;
lastChange = "2013-03-13 10:44:06 +0200";
layers = (
{
layerId = UUID0;
name = "Bold Italic";
paths = (
{
closed = 1;
nodes = (
"814 1462 LINE",
"545 981 LINE",
"454 1462 LINE",
"180 1462 LINE",
"340 760 LINE",
"-155 0 LINE",
"128 0 LINE",
"433 524 LINE",
"531 0 LINE",
"814 0 LINE",
"639 748 LINE",
"1099 1462 LINE"
);
}
);
width = 968;
}
);
unicode = 0058;
},
{
glyphname = Y;
lastChange = "2013-03-13 10:44:06 +0200";
layers = (
{
layerId = UUID0;
name = "Bold Italic";
paths = (
{
closed = 1;
nodes = (
"831 1462 LINE",
"514 885 LINE",
"442 1462 LINE",
"155 1462 LINE",
"313 575 LINE",
"191 0 LINE",
"459 0 LINE",
"583 586 LINE",
"1116 1462 LINE"
);
}
);
width = 961;
}
);
unicode = 0059;
},
{
glyphname = Yacute;
lastChange = "2013-03-13 10:44:06 +0200";
layers = (
{
layerId = UUID0;
name = "Bold Italic";
paths = (
{
closed = 1;
nodes = (
"784 1462 LINE",
"466 885 LINE",
"395 1462 LINE",
"108 1462 LINE",
"266 575 LINE",
"143 0 LINE",
"411 0 LINE",
"536 586 LINE",
"1069 1462 LINE"
);
},
{
closed = 1;
nodes = (
"721 1907 LINE",
"698 1872 OFFCURVE",
"662 1822 OFFCURVE",
"612 1757 CURVE SMOOTH",
"562 1692 OFFCURVE",
"519 1641 OFFCURVE",
"485 1606 CURVE",
"479 1579 LINE",
"666 1579 LINE",
"735 1628 OFFCURVE",
"809 1684 OFFCURVE",
"886 1747 CURVE SMOOTH",
"962 1811 OFFCURVE",
"1012 1857 OFFCURVE",
"1034 1886 CURVE",
"1039 1907 LINE"
);
}
);
width = 961;
}
);
unicode = 00DD;
},
{
glyphname = Ydieresis;
lastChange = "2013-03-13 10:44:06 +0200";
layers = (
{
layerId = UUID0;
name = "Bold Italic";
paths = (
{
closed = 1;
nodes = (
"788 1462 LINE",
"470 885 LINE",
"399 1462 LINE",
"112 1462 LINE",
"269 575 LINE",
"147 0 LINE",
"415 0 LINE",
"540 586 LINE",
"1073 1462 LINE"
);
},
{
closed = 1;
nodes = (
"398 1870 OFFCURVE",
"339 1822 OFFCURVE",
"321 1741 CURVE SMOOTH",
"304 1661 OFFCURVE",
"343 1614 OFFCURVE",
"426 1614 CURVE SMOOTH",
"509 1614 OFFCURVE",
"570 1665 OFFCURVE",
"586 1741 CURVE SMOOTH",
"603 1818 OFFCURVE",
"564 1870 OFFCURVE",
"481 1870 CURVE SMOOTH"
);
},
{
closed = 1;
nodes = (
"796 1870 OFFCURVE",
"736 1821 OFFCURVE",
"719 1741 CURVE SMOOTH",
"703 1664 OFFCURVE",
"742 1614 OFFCURVE",
"825 1614 CURVE SMOOTH",
"908 1614 OFFCURVE",
"969 1662 OFFCURVE",
"985 1741 CURVE SMOOTH",
"1003 1822 OFFCURVE",
"961 1870 OFFCURVE",
"880 1870 CURVE SMOOTH"
);
}
);
width = 961;
}
);
unicode = 0178;
},
{
glyphname = Z;
lastChange = "2013-03-13 10:44:06 +0200";
layers = (
{
layerId = UUID0;
name = "Bold Italic";
paths = (
{
closed = 1;
nodes = (
"212 1462 LINE",
"162 1225 LINE",
"615 1225 LINE",
"-72 190 LINE",
"-112 0 LINE",
"679 0 LINE",
"729 238 LINE",
"247 238 LINE",
"934 1272 LINE",
"974 1462 LINE"
);
}
);
width = 877;
}
);
unicode = 005A;
},
{
glyphname = Zcaron;
lastChange = "2013-03-13 10:44:06 +0200";
layers = (
{
layerId = UUID0;
name = "Bold Italic";
paths = (
{
closed = 1;
nodes = (
"165 1462 LINE",
"115 1225 LINE",
"568 1225 LINE",
"-119 190 LINE",
"-160 0 LINE",
"631 0 LINE",
"682 238 LINE",
"200 238 LINE",
"887 1272 LINE",
"927 1462 LINE"
);
},
{
closed = 1;
nodes = (
"827 1907 LINE",
"755 1857 OFFCURVE",
"681 1798 OFFCURVE",
"604 1729 CURVE",
"556 1802 OFFCURVE",
"505 1861 OFFCURVE",
"452 1907 CURVE",
"284 1907 LINE",
"278 1880 LINE",
"362 1734 OFFCURVE",
"414 1634 OFFCURVE",
"431 1579 CURVE",
"708 1579 LINE",
"756 1641 OFFCURVE",
"849 1741 OFFCURVE",
"989 1880 CURVE",
"995 1907 LINE"
);
}
);
width = 877;
}
);
unicode = 017D;
},
{
glyphname = a;
lastChange = "2013-03-13 10:44:06 +0200";
layers = (
{
layerId = UUID0;
name = "Bold Italic";
paths = (
{
closed = 1;
nodes = (
"485 1137 OFFCURVE",
"358 1102 OFFCURVE",
"232 1032 CURVE",
"285 848 LINE",
"383 900 OFFCURVE",
"464 926 OFFCURVE",
"531 926 CURVE SMOOTH",
"621 926 OFFCURVE",
"655 874 OFFCURVE",
"633 770 CURVE SMOOTH",
"616 690 LINE",
"467 684 LINE SMOOTH",
"208 672 OFFCURVE",
"56 563 OFFCURVE",
"6 328 CURVE SMOOTH",
"-17 219 OFFCURVE",
"-12 133 OFFCURVE",
"22 72 CURVE SMOOTH",
"56 11 OFFCURVE",
"114 -20 OFFCURVE",
"196 -20 CURVE SMOOTH",
"260 -20 OFFCURVE",
"316 -8 OFFCURVE",
"363 17 CURVE SMOOTH",
"410 42 OFFCURVE",
"461 87 OFFCURVE",
"514 152 CURVE",
"520 152 LINE",
"540 0 LINE",
"735 0 LINE",
"894 748 LINE SMOOTH",
"947 996 OFFCURVE",
"851 1137 OFFCURVE",
"615 1137 CURVE SMOOTH"
);
},
{
closed = 1;
nodes = (
"560 428 LINE SMOOTH",
"529 283 OFFCURVE",
"446 188 OFFCURVE",
"349 188 CURVE SMOOTH",
"284 188 OFFCURVE",
"261 234 OFFCURVE",
"281 326 CURVE SMOOTH",
"307 450 OFFCURVE",
"375 511 OFFCURVE",
"497 518 CURVE SMOOTH",
"580 522 LINE"
);
}
);
width = 956;
}
);
unicode = 0061;
},
{
glyphname = aacute;
lastChange = "2013-03-13 10:44:06 +0200";
layers = (
{
layerId = UUID0;
name = "Bold Italic";
paths = (
{
closed = 1;
nodes = (
"439 1137 OFFCURVE",
"312 1102 OFFCURVE",
"186 1032 CURVE",
"239 848 LINE",
"337 900 OFFCURVE",
"418 926 OFFCURVE",
"485 926 CURVE SMOOTH",
"575 926 OFFCURVE",
"609 874 OFFCURVE",
"587 770 CURVE SMOOTH",
"570 690 LINE",
"421 684 LINE SMOOTH",
"162 672 OFFCURVE",
"10 563 OFFCURVE",
"-40 328 CURVE SMOOTH",
"-63 219 OFFCURVE",
"-58 133 OFFCURVE",
"-24 72 CURVE SMOOTH",
"10 11 OFFCURVE",
"68 -20 OFFCURVE",
"150 -20 CURVE SMOOTH",
"214 -20 OFFCURVE",
"270 -8 OFFCURVE",
"317 17 CURVE SMOOTH",
"364 42 OFFCURVE",
"415 87 OFFCURVE",
"468 152 CURVE",
"474 152 LINE",
"494 0 LINE",
"689 0 LINE",
"848 748 LINE SMOOTH",
"901 996 OFFCURVE",
"805 1137 OFFCURVE",
"569 1137 CURVE SMOOTH"
);
},
{
closed = 1;
nodes = (
"514 428 LINE SMOOTH",
"484 283 OFFCURVE",
"400 188 OFFCURVE",
"303 188 CURVE SMOOTH",
"238 188 OFFCURVE",
"215 234 OFFCURVE",
"235 326 CURVE SMOOTH",
"261 450 OFFCURVE",
"329 511 OFFCURVE",
"451 518 CURVE SMOOTH",
"534 522 LINE"
);
},
{
closed = 1;
nodes = (
"703 1569 LINE",
"680 1534 OFFCURVE",
"644 1484 OFFCURVE",
"594 1419 CURVE SMOOTH",
"544 1354 OFFCURVE",
"501 1303 OFFCURVE",
"467 1268 CURVE",
"461 1241 LINE",
"648 1241 LINE",
"718 1290 OFFCURVE",
"791 1346 OFFCURVE",
"868 1409 CURVE SMOOTH",
"944 1473 OFFCURVE",
"994 1519 OFFCURVE",
"1016 1548 CURVE",
"1021 1569 LINE"
);
}
);
width = 956;
}
);
unicode = 00E1;
},
{
glyphname = acircumflex;
lastChange = "2013-03-13 10:44:06 +0200";
layers = (
{
layerId = UUID0;
name = "Bold Italic";
paths = (
{
closed = 1;
nodes = (
"439 1137 OFFCURVE",
"312 1102 OFFCURVE",
"186 1032 CURVE",
"239 848 LINE",
"337 900 OFFCURVE",
"418 926 OFFCURVE",
"485 926 CURVE SMOOTH",
"575 926 OFFCURVE",
"609 874 OFFCURVE",
"587 770 CURVE SMOOTH",
"570 690 LINE",
"421 684 LINE SMOOTH",
"162 672 OFFCURVE",
"10 563 OFFCURVE",
"-40 328 CURVE SMOOTH",
"-63 219 OFFCURVE",
"-58 133 OFFCURVE",
"-24 72 CURVE SMOOTH",
"10 11 OFFCURVE",
"68 -20 OFFCURVE",
"150 -20 CURVE SMOOTH",
"214 -20 OFFCURVE",
"270 -8 OFFCURVE",
"317 17 CURVE SMOOTH",
"364 42 OFFCURVE",
"415 87 OFFCURVE",
"468 152 CURVE",
"474 152 LINE",
"494 0 LINE",
"689 0 LINE",
"848 748 LINE SMOOTH",
"901 996 OFFCURVE",
"805 1137 OFFCURVE",
"569 1137 CURVE SMOOTH"
);
},
{
closed = 1;
nodes = (
"514 428 LINE SMOOTH",
"484 283 OFFCURVE",
"400 188 OFFCURVE",
"303 188 CURVE SMOOTH",
"238 188 OFFCURVE",
"215 234 OFFCURVE",
"235 326 CURVE SMOOTH",
"261 450 OFFCURVE",
"329 511 OFFCURVE",
"452 518 CURVE SMOOTH",
"534 522 LINE"
);
},
{
closed = 1;
nodes = (
"526 1568 LINE",
"488 1516 OFFCURVE",
"394 1416 OFFCURVE",
"245 1267 CURVE",
"239 1240 LINE",
"407 1240 LINE",
"483 1292 OFFCURVE",
"558 1351 OFFCURVE",
"631 1418 CURVE",
"678 1347 OFFCURVE",
"728 1288 OFFCURVE",
"782 1240 CURVE",
"950 1240 LINE",
"956 1267 LINE",
"873 1410 OFFCURVE",
"821 1510 OFFCURVE",
"803 1568 CURVE"
);
}
);
width = 956;
}
);
unicode = 00E2;
},
{
glyphname = adieresis;
lastChange = "2013-03-13 10:44:06 +0200";
layers = (
{
layerId = UUID0;
name = "Bold Italic";
paths = (
{
closed = 1;
nodes = (
"443 1137 OFFCURVE",
"316 1102 OFFCURVE",
"190 1032 CURVE",
"243 848 LINE",
"341 900 OFFCURVE",
"422 926 OFFCURVE",
"489 926 CURVE SMOOTH",
"579 926 OFFCURVE",
"613 874 OFFCURVE",
"591 770 CURVE SMOOTH",
"574 690 LINE",
"425 684 LINE SMOOTH",
"166 672 OFFCURVE",
"14 563 OFFCURVE",
"-36 328 CURVE SMOOTH",
"-59 219 OFFCURVE",
"-54 133 OFFCURVE",
"-20 72 CURVE SMOOTH",
"14 11 OFFCURVE",
"72 -20 OFFCURVE",
"154 -20 CURVE SMOOTH",
"218 -20 OFFCURVE",
"274 -8 OFFCURVE",
"321 17 CURVE SMOOTH",
"368 42 OFFCURVE",
"419 87 OFFCURVE",
"472 152 CURVE",
"478 152 LINE",
"498 0 LINE",
"693 0 LINE",
"852 748 LINE SMOOTH",
"905 996 OFFCURVE",
"809 1137 OFFCURVE",
"573 1137 CURVE SMOOTH"
);
},
{
closed = 1;
nodes = (
"518 428 LINE SMOOTH",
"487 283 OFFCURVE",
"404 188 OFFCURVE",
"307 188 CURVE SMOOTH",
"242 188 OFFCURVE",
"219 234 OFFCURVE",
"239 326 CURVE SMOOTH",
"265 450 OFFCURVE",
"333 511 OFFCURVE",
"455 518 CURVE SMOOTH",
"538 522 LINE"
);
},
{
closed = 1;
nodes = (
"378 1532 OFFCURVE",
"319 1484 OFFCURVE",
"302 1403 CURVE SMOOTH",
"285 1323 OFFCURVE",
"324 1276 OFFCURVE",
"407 1276 CURVE SMOOTH",
"490 1276 OFFCURVE",
"550 1327 OFFCURVE",
"567 1403 CURVE SMOOTH",
"583 1480 OFFCURVE",
"544 1532 OFFCURVE",
"461 1532 CURVE SMOOTH"
);
},
{
closed = 1;
nodes = (
"776 1532 OFFCURVE",
"717 1483 OFFCURVE",
"700 1403 CURVE SMOOTH",
"683 1326 OFFCURVE",
"723 1276 OFFCURVE",
"806 1276 CURVE SMOOTH",
"889 1276 OFFCURVE",
"949 1324 OFFCURVE",
"966 1403 CURVE SMOOTH",
"983 1484 OFFCURVE",
"941 1532 OFFCURVE",
"860 1532 CURVE SMOOTH"
);
}
);
width = 956;
}
);
unicode = 00E4;
},
{
glyphname = agrave;
lastChange = "2013-03-13 10:44:06 +0200";
layers = (
{
layerId = UUID0;
name = "Bold Italic";
paths = (
{
closed = 1;
nodes = (
"439 1137 OFFCURVE",
"312 1102 OFFCURVE",
"186 1032 CURVE",
"239 848 LINE",
"337 900 OFFCURVE",
"418 926 OFFCURVE",
"485 926 CURVE SMOOTH",
"575 926 OFFCURVE",
"609 874 OFFCURVE",
"587 770 CURVE SMOOTH",
"570 690 LINE",
"421 684 LINE SMOOTH",
"162 672 OFFCURVE",
"10 563 OFFCURVE",
"-40 328 CURVE SMOOTH",
"-63 219 OFFCURVE",
"-58 133 OFFCURVE",
"-24 72 CURVE SMOOTH",
"10 11 OFFCURVE",
"68 -20 OFFCURVE",
"150 -20 CURVE SMOOTH",
"214 -20 OFFCURVE",
"270 -8 OFFCURVE",
"317 17 CURVE SMOOTH",
"364 42 OFFCURVE",
"415 87 OFFCURVE",
"468 152 CURVE",
"474 152 LINE",
"494 0 LINE",
"689 0 LINE",
"848 748 LINE SMOOTH",
"901 996 OFFCURVE",
"805 1137 OFFCURVE",
"569 1137 CURVE SMOOTH"
);
},
{
closed = 1;
nodes = (
"514 428 LINE SMOOTH",
"484 283 OFFCURVE",
"400 188 OFFCURVE",
"303 188 CURVE SMOOTH",
"238 188 OFFCURVE",
"215 234 OFFCURVE",
"235 326 CURVE SMOOTH",
"261 450 OFFCURVE",
"329 511 OFFCURVE",
"451 518 CURVE SMOOTH",
"534 522 LINE"
);
},
{
closed = 1;
nodes = (
"315 1569 LINE",
"310 1548 LINE",
"321 1517 OFFCURVE",
"353 1468 OFFCURVE",
"406 1401 CURVE SMOOTH",
"459 1334 OFFCURVE",
"507 1281 OFFCURVE",
"548 1241 CURVE",
"735 1241 LINE",
"741 1268 LINE",
"723 1301 OFFCURVE",
"702 1350 OFFCURVE",
"680 1413 CURVE SMOOTH",
"658 1477 OFFCURVE",
"642 1529 OFFCURVE",
"633 1569 CURVE"
);
}
);
width = 956;
}
);
unicode = 00E0;
},
{
glyphname = aring;
lastChange = "2013-03-13 10:44:06 +0200";
layers = (
{
layerId = UUID0;
name = "Bold Italic";
paths = (
{
closed = 1;
nodes = (
"424 1137 OFFCURVE",
"297 1102 OFFCURVE",
"171 1032 CURVE",
"224 848 LINE",
"322 900 OFFCURVE",
"404 926 OFFCURVE",
"471 926 CURVE SMOOTH",
"561 926 OFFCURVE",
"595 874 OFFCURVE",
"572 770 CURVE SMOOTH",
"555 690 LINE",
"406 684 LINE SMOOTH",
"148 672 OFFCURVE",
"-5 563 OFFCURVE",
"-54 328 CURVE SMOOTH",
"-78 219 OFFCURVE",
"-73 133 OFFCURVE",
"-39 72 CURVE SMOOTH",
"-5 11 OFFCURVE",
"54 -20 OFFCURVE",
"136 -20 CURVE SMOOTH",
"200 -20 OFFCURVE",
"255 -8 OFFCURVE",
"302 17 CURVE SMOOTH",
"350 42 OFFCURVE",
"400 87 OFFCURVE",
"453 152 CURVE",
"459 152 LINE",
"480 0 LINE",
"675 0 LINE",
"834 748 LINE SMOOTH",
"887 996 OFFCURVE",
"790 1137 OFFCURVE",
"554 1137 CURVE SMOOTH"
);
},
{
closed = 1;
nodes = (
"500 428 LINE SMOOTH",
"469 283 OFFCURVE",
"386 188 OFFCURVE",
"289 188 CURVE SMOOTH",
"224 188 OFFCURVE",
"201 234 OFFCURVE",
"220 326 CURVE SMOOTH",
"246 450 OFFCURVE",
"314 511 OFFCURVE",
"437 518 CURVE SMOOTH",
"520 522 LINE"
);
},
{
closed = 1;
nodes = (
"705 1573 OFFCURVE",
"740 1534 OFFCURVE",
"727 1473 CURVE SMOOTH",
"714 1410 OFFCURVE",
"662 1372 OFFCURVE",
"605 1372 CURVE SMOOTH",
"538 1372 OFFCURVE",
"514 1410 OFFCURVE",
"527 1473 CURVE SMOOTH",
"540 1534 OFFCURVE",
"591 1573 OFFCURVE",
"648 1573 CURVE SMOOTH"
);
},
{
closed = 1;
nodes = (
"603 1706 OFFCURVE",
"540 1685 OFFCURVE",
"486 1643 CURVE SMOOTH",
"432 1602 OFFCURVE",
"398 1545 OFFCURVE",
"383 1473 CURVE SMOOTH",
"367 1400 OFFCURVE",
"377 1343 OFFCURVE",
"413 1301 CURVE SMOOTH",
"450 1260 OFFCURVE",
"504 1239 OFFCURVE",
"577 1239 CURVE SMOOTH",
"651 1239 OFFCURVE",
"716 1260 OFFCURVE",
"771 1303 CURVE SMOOTH",
"827 1346 OFFCURVE",
"862 1404 OFFCURVE",
"877 1475 CURVE SMOOTH",
"892 1544 OFFCURVE",
"880 1599 OFFCURVE",
"842 1642 CURVE SMOOTH",
"804 1685 OFFCURVE",
"749 1706 OFFCURVE",
"676 1706 CURVE SMOOTH"
);
}
);
width = 956;
}
);
unicode = 00E5;
},
{
glyphname = atilde;
lastChange = "2013-03-13 10:44:06 +0200";
layers = (
{
layerId = UUID0;
name = "Bold Italic";
paths = (
{
closed = 1;
nodes = (
"442 1137 OFFCURVE",
"314 1102 OFFCURVE",
"189 1032 CURVE",
"241 848 LINE",
"340 900 OFFCURVE",
"421 926 OFFCURVE",
"488 926 CURVE SMOOTH",
"578 926 OFFCURVE",
"612 874 OFFCURVE",
"590 770 CURVE SMOOTH",
"573 690 LINE",
"424 684 LINE SMOOTH",
"165 672 OFFCURVE",
"13 563 OFFCURVE",
"-37 328 CURVE SMOOTH",
"-60 219 OFFCURVE",
"-55 133 OFFCURVE",
"-21 72 CURVE SMOOTH",
"13 11 OFFCURVE",
"71 -20 OFFCURVE",
"153 -20 CURVE SMOOTH",
"217 -20 OFFCURVE",
"273 -8 OFFCURVE",
"320 17 CURVE SMOOTH",
"367 42 OFFCURVE",
"418 87 OFFCURVE",
"471 152 CURVE",
"477 152 LINE",
"497 0 LINE",
"692 0 LINE",
"851 748 LINE SMOOTH",
"904 996 OFFCURVE",
"808 1137 OFFCURVE",
"572 1137 CURVE SMOOTH"
);
},
{
closed = 1;
nodes = (
"517 428 LINE SMOOTH",
"486 283 OFFCURVE",
"403 188 OFFCURVE",
"306 188 CURVE SMOOTH",
"241 188 OFFCURVE",
"218 234 OFFCURVE",
"238 326 CURVE SMOOTH",
"264 450 OFFCURVE",
"332 511 OFFCURVE",
"454 518 CURVE SMOOTH",
"537 522 LINE"
);
},
{
closed = 1;
nodes = (
"880 1542 LINE",
"849 1467 OFFCURVE",
"826 1434 OFFCURVE",
"781 1434 CURVE SMOOTH",
"701 1434 OFFCURVE",
"661 1540 OFFCURVE",
"546 1540 CURVE SMOOTH",
"422 1540 OFFCURVE",
"321 1443 OFFCURVE",
"263 1239 CURVE",
"404 1239 LINE",
"434 1322 OFFCURVE",
"464 1348 OFFCURVE",
"505 1348 CURVE SMOOTH",
"584 1348 OFFCURVE",
"620 1241 OFFCURVE",
"738 1241 CURVE SMOOTH",
"859 1241 OFFCURVE",
"963 1339 OFFCURVE",
"1021 1542 CURVE"
);
}
);
width = 956;
}
);
unicode = 00E3;
},
{
glyphname = ae;
lastChange = "2013-03-13 10:44:06 +0200";
layers = (
{
layerId = UUID0;
name = "Bold Italic";
paths = (
{
closed = 1;
nodes = (
"485 1137 OFFCURVE",
"358 1102 OFFCURVE",
"232 1032 CURVE",
"285 848 LINE",
"383 900 OFFCURVE",
"464 926 OFFCURVE",
"531 926 CURVE SMOOTH",
"621 926 OFFCURVE",
"655 873 OFFCURVE",
"633 768 CURVE SMOOTH",
"616 690 LINE",
"467 684 LINE SMOOTH",
"208 672 OFFCURVE",
"56 563 OFFCURVE",
"6 328 CURVE SMOOTH",
"-42 100 OFFCURVE",
"43 -20 OFFCURVE",
"248 -20 CURVE SMOOTH",
"388 -20 OFFCURVE",
"497 36 OFFCURVE",
"599 160 CURVE",
"649 40 OFFCURVE",
"751 -20 OFFCURVE",
"905 -20 CURVE SMOOTH",
"1025 -20 OFFCURVE",
"1133 6 OFFCURVE",
"1228 57 CURVE",
"1275 276 LINE",
"1176 222 OFFCURVE",
"1082 195 OFFCURVE",
"992 195 CURVE SMOOTH",
"856 195 OFFCURVE",
"795 290 OFFCURVE",
"833 489 CURVE",
"1367 489 LINE",
"1397 631 LINE SMOOTH",
"1431 788 OFFCURVE",
"1422 912 OFFCURVE",
"1372 1001 CURVE SMOOTH",
"1322 1090 OFFCURVE",
"1237 1135 OFFCURVE",
"1114 1135 CURVE SMOOTH",
"1019 1135 OFFCURVE",
"932 1105 OFFCURVE",
"853 1044 CURVE",
"804 1106 OFFCURVE",
"725 1137 OFFCURVE",
"615 1137 CURVE SMOOTH"
);
},
{
closed = 1;
nodes = (
"560 428 LINE SMOOTH",
"529 283 OFFCURVE",
"446 188 OFFCURVE",
"349 188 CURVE SMOOTH",
"284 188 OFFCURVE",
"261 234 OFFCURVE",
"281 326 CURVE SMOOTH",
"307 450 OFFCURVE",
"375 511 OFFCURVE",
"497 518 CURVE SMOOTH",
"580 522 LINE"
);
},
{
closed = 1;
nodes = (
"1151 930 OFFCURVE",
"1182 845 OFFCURVE",
"1150 682 CURVE",
"880 682 LINE",
"923 847 OFFCURVE",
"987 930 OFFCURVE",
"1070 930 CURVE SMOOTH"
);
}
);
width = 1446;
}
);
unicode = 00E6;
},
{
glyphname = b;
lastChange = "2013-03-13 10:44:06 +0200";
layers = (
{
layerId = UUID0;
name = "Bold Italic";
paths = (
{
closed = 1;
nodes = (
"280 1556 LINE",
"-50 0 LINE",
"146 0 LINE",
"218 127 LINE",
"235 127 LINE",
"280 18 OFFCURVE",
"345 -20 OFFCURVE",
"445 -20 CURVE SMOOTH",
"548 -20 OFFCURVE",
"639 30 OFFCURVE",
"719 131 CURVE SMOOTH",
"799 232 OFFCURVE",
"858 374 OFFCURVE",
"898 559 CURVE SMOOTH",
"936 742 OFFCURVE",
"937 883 OFFCURVE",
"901 984 CURVE SMOOTH",
"864 1085 OFFCURVE",
"795 1135 OFFCURVE",
"694 1135 CURVE SMOOTH",
"595 1135 OFFCURVE",
"513 1092 OFFCURVE",
"422 969 CURVE",
"408 969 LINE",
"437 1069 OFFCURVE",
"453 1127 OFFCURVE",
"458 1144 CURVE SMOOTH",
"463 1161 OFFCURVE",
"466 1177 OFFCURVE",
"469 1192 CURVE SMOOTH",
"546 1556 LINE"
);
},
{
closed = 1;
nodes = (
"651 909 OFFCURVE",
"676 794 OFFCURVE",
"626 563 CURVE SMOOTH",
"576 327 OFFCURVE",
"503 209 OFFCURVE",
"407 209 CURVE SMOOTH",
"355 209 OFFCURVE",
"323 235 OFFCURVE",
"311 288 CURVE SMOOTH",
"299 341 OFFCURVE",
"308 432 OFFCURVE",
"335 561 CURVE SMOOTH",
"341 588 LINE SMOOTH",
"367 707 OFFCURVE",
"397 791 OFFCURVE",
"429 838 CURVE SMOOTH",
"462 885 OFFCURVE",
"503 909 OFFCURVE",
"554 909 CURVE SMOOTH"
);
}
);
width = 1016;
}
);
unicode = 0062;
},
{
glyphname = c;
lastChange = "2013-03-13 10:44:06 +0200";
layers = (
{
layerId = UUID0;
name = "Bold Italic";
paths = (
{
closed = 1;
nodes = (
"325 1135 OFFCURVE",
"156 943 OFFCURVE",
"73 551 CURVE SMOOTH",
"-7 176 OFFCURVE",
"93 -20 OFFCURVE",
"358 -20 CURVE SMOOTH",
"443 -20 OFFCURVE",
"525 2 OFFCURVE",
"604 45 CURVE",
"654 279 LINE",
"571 232 OFFCURVE",
"497 209 OFFCURVE",
"430 209 CURVE SMOOTH",
"318 209 OFFCURVE",
"296 322 OFFCURVE",
"345 553 CURVE SMOOTH",
"395 789 OFFCURVE",
"467 907 OFFCURVE",
"580 907 CURVE SMOOTH",
"623 907 OFFCURVE",
"669 891 OFFCURVE",
"717 858 CURVE",
"837 1065 LINE",
"774 1110 OFFCURVE",
"683 1135 OFFCURVE",
"600 1135 CURVE SMOOTH"
);
}
);
width = 760;
}
);
unicode = 0063;
},
{
glyphname = ccedilla;
lastChange = "2013-03-13 10:44:06 +0200";
layers = (
{
layerId = UUID0;
name = "Bold Italic";
paths = (
{
closed = 1;
nodes = (
"375 1135 OFFCURVE",
"206 943 OFFCURVE",
"123 551 CURVE SMOOTH",
"43 176 OFFCURVE",
"143 -20 OFFCURVE",
"408 -20 CURVE SMOOTH",
"493 -20 OFFCURVE",
"575 2 OFFCURVE",
"654 45 CURVE",
"704 279 LINE",
"621 232 OFFCURVE",
"547 209 OFFCURVE",
"480 209 CURVE SMOOTH",
"368 209 OFFCURVE",
"346 322 OFFCURVE",
"395 553 CURVE SMOOTH",
"445 789 OFFCURVE",
"517 907 OFFCURVE",
"630 907 CURVE SMOOTH",
"673 907 OFFCURVE",
"719 891 OFFCURVE",
"767 858 CURVE",
"887 1065 LINE",
"825 1110 OFFCURVE",
"733 1135 OFFCURVE",
"650 1135 CURVE SMOOTH"
);
},
{
closed = 1;
nodes = (
"284 0 LINE",
"171 -158 LINE",
"272 -175 OFFCURVE",
"317 -212 OFFCURVE",
"305 -268 CURVE SMOOTH",
"295 -312 OFFCURVE",
"262 -334 OFFCURVE",
"203 -334 CURVE SMOOTH",
"163 -334 OFFCURVE",
"124 -328 OFFCURVE",
"85 -317 CURVE",
"53 -471 LINE",
"89 -485 OFFCURVE",
"130 -492 OFFCURVE",
"179 -492 CURVE SMOOTH",
"378 -492 OFFCURVE",
"489 -403 OFFCURVE",
"519 -260 CURVE SMOOTH",
"541 -160 OFFCURVE",
"490 -99 OFFCURVE",
"404 -76 CURVE",
"457 0 LINE"
);
}
);
width = 760;
}
);
unicode = 00E7;
},
{
glyphname = d;
lastChange = "2013-03-13 10:44:06 +0200";
layers = (
{
layerId = UUID0;
name = "Bold Italic";
paths = (
{
closed = 1;
nodes = (
"806 1556 LINE",
"727 1184 LINE SMOOTH",
"719 1143 OFFCURVE",
"708 1072 OFFCURVE",
"694 971 CURVE",
"678 971 LINE",
"640 1090 OFFCURVE",
"580 1135 OFFCURVE",
"479 1135 CURVE SMOOTH",
"377 1135 OFFCURVE",
"286 1084 OFFCURVE",
"206 981 CURVE SMOOTH",
"126 878 OFFCURVE",
"67 736 OFFCURVE",
"29 555 CURVE SMOOTH",
"-10 374 OFFCURVE",
"-10 233 OFFCURVE",
"28 132 CURVE SMOOTH",
"65 31 OFFCURVE",
"136 -20 OFFCURVE",
"239 -20 CURVE SMOOTH",
"347 -20 OFFCURVE",
"440 35 OFFCURVE",
"521 145 CURVE",
"530 145 LINE",
"544 0 LINE",
"742 0 LINE",
"1072 1556 LINE"
);
},
{
closed = 1;
nodes = (
"571 905 OFFCURVE",
"603 879 OFFCURVE",
"614 826 CURVE SMOOTH",
"626 773 OFFCURVE",
"619 682 OFFCURVE",
"591 553 CURVE SMOOTH",
"584 518 LINE SMOOTH",
"557 399 OFFCURVE",
"527 317 OFFCURVE",
"495 272 CURVE SMOOTH",
"462 227 OFFCURVE",
"421 205 OFFCURVE",
"372 205 CURVE SMOOTH",
"271 205 OFFCURVE",
"253 320 OFFCURVE",
"302 551 CURVE SMOOTH",
"351 782 OFFCURVE",
"419 905 OFFCURVE",
"518 905 CURVE SMOOTH"
);
}
);
width = 1016;
}
);
unicode = 0064;
},
{
glyphname = eth;
lastChange = "2013-03-13 10:44:06 +0200";
layers = (
{
layerId = UUID0;
name = "Bold Italic";
paths = (
{
closed = 1;
nodes = (
"353 1413 LINE",
"414 1374 OFFCURVE",
"458 1342 OFFCURVE",
"486 1317 CURVE",
"267 1194 LINE",
"332 1049 LINE",
"583 1194 LINE",
"652 1101 OFFCURVE",
"691 996 OFFCURVE",
"698 877 CURVE",
"685 874 LINE",
"646 952 OFFCURVE",
"586 991 OFFCURVE",
"505 991 CURVE SMOOTH",
"382 991 OFFCURVE",
"277 946 OFFCURVE",
"191 857 CURVE SMOOTH",
"105 768 OFFCURVE",
"46 643 OFFCURVE",
"12 483 CURVE SMOOTH",
"-21 328 OFFCURVE",
"-9 206 OFFCURVE",
"49 115 CURVE SMOOTH",
"106 25 OFFCURVE",
"201 -20 OFFCURVE",
"333 -20 CURVE SMOOTH",
"471 -20 OFFCURVE",
"589 32 OFFCURVE",
"687 137 CURVE SMOOTH",
"787 242 OFFCURVE",
"855 386 OFFCURVE",
"894 569 CURVE SMOOTH",
"960 881 OFFCURVE",
"930 1125 OFFCURVE",
"790 1313 CURVE",
"984 1423 LINE",
"920 1567 LINE",
"683 1427 LINE",
"636 1472 OFFCURVE",
"568 1520 OFFCURVE",
"480 1571 CURVE"
);
},
{
closed = 1;
nodes = (
"606 780 OFFCURVE",
"647 685 OFFCURVE",
"614 530 CURVE SMOOTH",
"568 315 OFFCURVE",
"500 207 OFFCURVE",
"387 207 CURVE SMOOTH",
"282 207 OFFCURVE",
"246 306 OFFCURVE",
"284 483 CURVE SMOOTH",
"326 682 OFFCURVE",
"394 780 OFFCURVE",
"511 780 CURVE SMOOTH"
);
}
);
width = 1012;
}
);
unicode = 00F0;
},
{
glyphname = e;
lastChange = "2013-03-13 10:44:06 +0200";
layers = (
{
layerId = UUID0;
name = "Bold Italic";
paths = (
{
closed = 1;
nodes = (
"480 1135 OFFCURVE",
"368 1083 OFFCURVE",
"273 980 CURVE SMOOTH",
"178 877 OFFCURVE",
"111 733 OFFCURVE",
"72 549 CURVE SMOOTH",
"34 368 OFFCURVE",
"44 227 OFFCURVE",
"103 128 CURVE SMOOTH",
"163 29 OFFCURVE",
"262 -20 OFFCURVE",
"401 -20 CURVE SMOOTH",
"520 -20 OFFCURVE",
"629 6 OFFCURVE",
"725 57 CURVE",
"771 276 LINE",
"669 222 OFFCURVE",
"575 195 OFFCURVE",
"488 195 CURVE SMOOTH",
"352 195 OFFCURVE",
"291 290 OFFCURVE",
"329 489 CURVE",
"864 489 LINE",
"895 631 LINE SMOOTH",
"928 790 OFFCURVE",
"920 914 OFFCURVE",
"868 1002 CURVE SMOOTH",
"817 1091 OFFCURVE",
"731 1135 OFFCURVE",
"610 1135 CURVE SMOOTH"
);
},
{
closed = 1;
nodes = (
"645 930 OFFCURVE",
"676 845 OFFCURVE",
"644 682 CURVE",
"374 682 LINE",
"418 851 OFFCURVE",
"488 930 OFFCURVE",
"564 930 CURVE SMOOTH"
);
}
);
width = 942;
}
);
unicode = 0065;
},
{
glyphname = eacute;
lastChange = "2013-03-13 10:44:06 +0200";
layers = (
{
layerId = UUID0;
name = "Bold Italic";
paths = (
{
closed = 1;
nodes = (
"434 1135 OFFCURVE",
"322 1083 OFFCURVE",
"227 980 CURVE SMOOTH",
"132 877 OFFCURVE",
"65 733 OFFCURVE",
"26 549 CURVE SMOOTH",
"-12 368 OFFCURVE",
"-2 227 OFFCURVE",
"57 128 CURVE SMOOTH",
"117 29 OFFCURVE",
"216 -20 OFFCURVE",
"355 -20 CURVE SMOOTH",
"474 -20 OFFCURVE",
"583 6 OFFCURVE",
"678 57 CURVE",
"725 276 LINE",
"623 222 OFFCURVE",
"529 195 OFFCURVE",
"442 195 CURVE SMOOTH",
"306 195 OFFCURVE",
"245 290 OFFCURVE",
"283 489 CURVE",
"818 489 LINE",
"848 631 LINE SMOOTH",
"882 790 OFFCURVE",
"874 914 OFFCURVE",
"822 1002 CURVE SMOOTH",
"771 1091 OFFCURVE",
"685 1135 OFFCURVE",
"564 1135 CURVE SMOOTH"
);
},
{
closed = 1;
nodes = (
"599 930 OFFCURVE",
"630 845 OFFCURVE",
"598 682 CURVE",
"328 682 LINE",
"372 851 OFFCURVE",
"442 930 OFFCURVE",
"518 930 CURVE SMOOTH"
);
},
{
closed = 1;
nodes = (
"689 1569 LINE",
"666 1534 OFFCURVE",
"630 1484 OFFCURVE",
"580 1419 CURVE SMOOTH",
"530 1354 OFFCURVE",
"487 1303 OFFCURVE",
"453 1268 CURVE",
"447 1241 LINE",
"634 1241 LINE",
"704 1290 OFFCURVE",
"777 1346 OFFCURVE",
"854 1409 CURVE SMOOTH",
"930 1473 OFFCURVE",
"980 1519 OFFCURVE",
"1002 1548 CURVE",
"1007 1569 LINE"
);
}
);
width = 942;
}
);
unicode = 00E9;
},
{
glyphname = ecircumflex;
lastChange = "2013-03-13 10:44:06 +0200";
layers = (
{
layerId = UUID0;
name = "Bold Italic";
paths = (
{
closed = 1;
nodes = (
"434 1135 OFFCURVE",
"322 1083 OFFCURVE",
"227 980 CURVE SMOOTH",
"132 877 OFFCURVE",
"65 733 OFFCURVE",
"26 549 CURVE SMOOTH",
"-12 368 OFFCURVE",
"-2 227 OFFCURVE",
"57 128 CURVE SMOOTH",
"117 29 OFFCURVE",
"216 -20 OFFCURVE",
"355 -20 CURVE SMOOTH",
"474 -20 OFFCURVE",
"583 6 OFFCURVE",
"678 57 CURVE",
"725 276 LINE",
"623 222 OFFCURVE",
"529 195 OFFCURVE",
"442 195 CURVE SMOOTH",
"306 195 OFFCURVE",
"245 290 OFFCURVE",
"283 489 CURVE",
"818 489 LINE",
"848 631 LINE SMOOTH",
"882 790 OFFCURVE",
"874 914 OFFCURVE",
"822 1002 CURVE SMOOTH",
"771 1091 OFFCURVE",
"685 1135 OFFCURVE",
"564 1135 CURVE SMOOTH"
);
},
{
closed = 1;
nodes = (
"599 930 OFFCURVE",
"630 845 OFFCURVE",
"598 682 CURVE",
"328 682 LINE",
"372 851 OFFCURVE",
"442 930 OFFCURVE",
"518 930 CURVE SMOOTH"
);
},
{
closed = 1;
nodes = (
"518 1569 LINE",
"480 1517 OFFCURVE",
"387 1417 OFFCURVE",
"237 1268 CURVE",
"231 1241 LINE",
"399 1241 LINE",
"475 1293 OFFCURVE",
"550 1352 OFFCURVE",
"623 1419 CURVE",
"670 1348 OFFCURVE",
"720 1289 OFFCURVE",
"774 1241 CURVE",
"942 1241 LINE",
"948 1268 LINE",
"865 1411 OFFCURVE",
"814 1511 OFFCURVE",
"795 1569 CURVE"
);
}
);
width = 942;
}
);
unicode = 00EA;
},
{
glyphname = edieresis;
lastChange = "2013-03-13 10:44:06 +0200";
layers = (
{
layerId = UUID0;
name = "Bold Italic";
paths = (
{
closed = 1;
nodes = (
"438 1135 OFFCURVE",
"326 1083 OFFCURVE",
"231 980 CURVE SMOOTH",
"136 877 OFFCURVE",
"69 733 OFFCURVE",
"30 549 CURVE SMOOTH",
"-8 368 OFFCURVE",
"2 227 OFFCURVE",
"61 128 CURVE SMOOTH",
"120 29 OFFCURVE",
"220 -20 OFFCURVE",
"359 -20 CURVE SMOOTH",
"478 -20 OFFCURVE",
"587 6 OFFCURVE",
"682 57 CURVE",
"729 276 LINE",
"626 222 OFFCURVE",
"533 195 OFFCURVE",
"446 195 CURVE SMOOTH",
"310 195 OFFCURVE",
"249 290 OFFCURVE",
"287 489 CURVE",
"822 489 LINE",
"852 631 LINE SMOOTH",
"886 790 OFFCURVE",
"878 914 OFFCURVE",
"826 1002 CURVE SMOOTH",
"775 1091 OFFCURVE",
"689 1135 OFFCURVE",
"568 1135 CURVE SMOOTH"
);
},
{
closed = 1;
nodes = (
"603 930 OFFCURVE",
"634 845 OFFCURVE",
"602 682 CURVE",
"332 682 LINE",
"376 851 OFFCURVE",
"446 930 OFFCURVE",
"522 930 CURVE SMOOTH"
);
},
{
closed = 1;
nodes = (
"370 1532 OFFCURVE",
"311 1484 OFFCURVE",
"294 1403 CURVE SMOOTH",
"277 1323 OFFCURVE",
"316 1276 OFFCURVE",
"399 1276 CURVE SMOOTH",
"482 1276 OFFCURVE",
"542 1327 OFFCURVE",
"559 1403 CURVE SMOOTH",
"575 1480 OFFCURVE",
"536 1532 OFFCURVE",
"453 1532 CURVE SMOOTH"
);
},
{
closed = 1;
nodes = (
"768 1532 OFFCURVE",
"709 1483 OFFCURVE",
"692 1403 CURVE SMOOTH",
"675 1326 OFFCURVE",
"715 1276 OFFCURVE",
"798 1276 CURVE SMOOTH",
"881 1276 OFFCURVE",
"941 1324 OFFCURVE",
"958 1403 CURVE SMOOTH",
"975 1484 OFFCURVE",
"933 1532 OFFCURVE",
"852 1532 CURVE SMOOTH"
);
}
);
width = 942;
}
);
unicode = 00EB;
},
{
glyphname = egrave;
lastChange = "2013-03-13 10:44:06 +0200";
layers = (
{
layerId = UUID0;
name = "Bold Italic";
paths = (
{
closed = 1;
nodes = (
"434 1135 OFFCURVE",
"322 1083 OFFCURVE",
"227 980 CURVE SMOOTH",
"132 877 OFFCURVE",
"65 733 OFFCURVE",
"26 549 CURVE SMOOTH",
"-12 368 OFFCURVE",
"-2 227 OFFCURVE",
"57 128 CURVE SMOOTH",
"117 29 OFFCURVE",
"216 -20 OFFCURVE",
"355 -20 CURVE SMOOTH",
"474 -20 OFFCURVE",
"583 6 OFFCURVE",
"678 57 CURVE",
"725 276 LINE",
"623 222 OFFCURVE",
"529 195 OFFCURVE",
"442 195 CURVE SMOOTH",
"306 195 OFFCURVE",
"245 290 OFFCURVE",
"283 489 CURVE",
"818 489 LINE",
"848 631 LINE SMOOTH",
"882 790 OFFCURVE",
"874 914 OFFCURVE",
"822 1002 CURVE SMOOTH",
"771 1091 OFFCURVE",
"685 1135 OFFCURVE",
"564 1135 CURVE SMOOTH"
);
},
{
closed = 1;
nodes = (
"599 930 OFFCURVE",
"630 845 OFFCURVE",
"598 682 CURVE",
"328 682 LINE",
"372 851 OFFCURVE",
"442 930 OFFCURVE",
"518 930 CURVE SMOOTH"
);
},
{
closed = 1;
nodes = (
"313 1569 LINE",
"308 1548 LINE",
"319 1517 OFFCURVE",
"351 1468 OFFCURVE",
"404 1401 CURVE SMOOTH",
"457 1334 OFFCURVE",
"505 1281 OFFCURVE",
"546 1241 CURVE",
"733 1241 LINE",
"739 1268 LINE",
"721 1301 OFFCURVE",
"700 1350 OFFCURVE",
"678 1413 CURVE SMOOTH",
"656 1477 OFFCURVE",
"640 1529 OFFCURVE",
"631 1569 CURVE"
);
}
);
width = 942;
}
);
unicode = 00E8;
},
{
glyphname = f;
lastChange = "2013-03-13 10:44:06 +0200";
layers = (
{
layerId = UUID0;
name = "Bold Italic";
paths = (
{
closed = 1;
nodes = (
"422 1567 OFFCURVE",
"299 1448 OFFCURVE",
"247 1200 CURVE SMOOTH",
"229 1116 LINE",
"83 1036 LINE",
"54 903 LINE",
"183 903 LINE",
"-9 0 LINE",
"257 0 LINE",
"449 903 LINE",
"633 903 LINE",
"678 1114 LINE",
"494 1114 LINE",
"512 1196 LINE SMOOTH",
"533 1296 OFFCURVE",
"570 1343 OFFCURVE",
"631 1343 CURVE SMOOTH",
"666 1343 OFFCURVE",
"698 1335 OFFCURVE",
"728 1319 CURVE",
"841 1522 LINE",
"785 1552 OFFCURVE",
"722 1567 OFFCURVE",
"650 1567 CURVE SMOOTH"
);
}
);
width = 612;
}
);
unicode = 0066;
},
{
glyphname = g;
lastChange = "2013-03-13 10:44:06 +0200";
layers = (
{
layerId = UUID0;
name = "Bold Italic";
paths = (
{
closed = 1;
nodes = (
"387 1135 OFFCURVE",
"225 996 OFFCURVE",
"174 752 CURVE SMOOTH",
"158 681 OFFCURVE",
"158 617 OFFCURVE",
"172 559 CURVE SMOOTH",
"187 501 OFFCURVE",
"214 458 OFFCURVE",
"254 430 CURVE",
"209 398 OFFCURVE",
"179 374 OFFCURVE",
"163 357 CURVE SMOOTH",
"132 325 OFFCURVE",
"110 289 OFFCURVE",
"101 244 CURVE SMOOTH",
"85 169 OFFCURVE",
"120 111 OFFCURVE",
"183 84 CURVE",
"38 41 OFFCURVE",
"-63 -58 OFFCURVE",
"-89 -182 CURVE SMOOTH",
"-131 -381 OFFCURVE",
"-17 -492 OFFCURVE",
"230 -492 CURVE SMOOTH",
"555 -492 OFFCURVE",
"765 -345 OFFCURVE",
"820 -86 CURVE SMOOTH",
"864 119 OFFCURVE",
"780 221 OFFCURVE",
"591 221 CURVE SMOOTH",
"430 221 LINE SMOOTH",
"349 221 OFFCURVE",
"314 244 OFFCURVE",
"324 291 CURVE SMOOTH",
"332 332 OFFCURVE",
"366 358 OFFCURVE",
"396 381 CURVE",
"411 376 OFFCURVE",
"435 373 OFFCURVE",
"468 373 CURVE SMOOTH",
"583 373 OFFCURVE",
"679 406 OFFCURVE",
"757 473 CURVE SMOOTH",
"835 540 OFFCURVE",
"887 632 OFFCURVE",
"912 750 CURVE SMOOTH",
"927 821 OFFCURVE",
"927 879 OFFCURVE",
"910 926 CURVE",
"1050 956 LINE",
"1083 1112 LINE",
"766 1112 LINE",
"752 1117 OFFCURVE",
"730 1122 OFFCURVE",
"702 1127 CURVE SMOOTH",
"674 1132 OFFCURVE",
"649 1135 OFFCURVE",
"626 1135 CURVE SMOOTH"
);
},
{
closed = 1;
nodes = (
"496 -12 OFFCURVE",
"535 -21 OFFCURVE",
"553 -38 CURVE SMOOTH",
"571 -55 OFFCURVE",
"576 -85 OFFCURVE",
"567 -127 CURVE SMOOTH",
"544 -234 OFFCURVE",
"449 -299 OFFCURVE",
"288 -299 CURVE SMOOTH",
"185 -299 OFFCURVE",
"139 -250 OFFCURVE",
"157 -162 CURVE SMOOTH",
"177 -70 OFFCURVE",
"236 -12 OFFCURVE",
"308 -12 CURVE SMOOTH",
"437 -12 LINE SMOOTH"
);
},
{
closed = 1;
nodes = (
"660 956 OFFCURVE",
"681 888 OFFCURVE",
"653 752 CURVE SMOOTH",
"624 619 OFFCURVE",
"574 553 OFFCURVE",
"502 553 CURVE SMOOTH",
"428 553 OFFCURVE",
"405 619 OFFCURVE",
"433 750 CURVE SMOOTH",
"462 887 OFFCURVE",
"514 956 OFFCURVE",
"588 956 CURVE SMOOTH"
);
}
);
width = 936;
}
);
unicode = 0067;
},
{
glyphname = h;
lastChange = "2013-03-13 10:44:06 +0200";
layers = (
{
layerId = UUID0;
name = "Bold Italic";
paths = (
{
closed = 1;
nodes = (
"278 1556 LINE",
"-52 0 LINE",
"214 0 LINE",
"327 535 LINE SMOOTH",
"379 776 OFFCURVE",
"450 909 OFFCURVE",
"573 909 CURVE SMOOTH",
"655 909 OFFCURVE",
"678 827 OFFCURVE",
"644 664 CURVE SMOOTH",
"503 0 LINE",
"771 0 LINE",
"925 727 LINE SMOOTH",
"982 995 OFFCURVE",
"907 1135 OFFCURVE",
"703 1135 CURVE SMOOTH",
"592 1135 OFFCURVE",
"498 1080 OFFCURVE",
"422 971 CURVE",
"408 971 LINE",
"440 1086 OFFCURVE",
"461 1165 OFFCURVE",
"471 1210 CURVE SMOOTH",
"544 1556 LINE"
);
}
);
width = 1038;
}
);
unicode = 0068;
},
{
glyphname = i;
lastChange = "2013-03-13 10:44:06 +0200";
layers = (
{
layerId = UUID0;
name = "Bold Italic";
paths = (
{
closed = 1;
nodes = (
"187 1114 LINE",
"-50 0 LINE",
"216 0 LINE",
"453 1114 LINE"
);
},
{
closed = 1;
nodes = (
"323 1548 OFFCURVE",
"257 1493 OFFCURVE",
"238 1405 CURVE SMOOTH",
"219 1314 OFFCURVE",
"266 1262 OFFCURVE",
"354 1262 CURVE SMOOTH",
"438 1262 OFFCURVE",
"508 1314 OFFCURVE",
"527 1405 CURVE SMOOTH",
"546 1493 OFFCURVE",
"502 1548 OFFCURVE",
"415 1548 CURVE SMOOTH"
);
}
);
width = 496;
}
);
unicode = 0069;
},
{
glyphname = dotlessi;
lastChange = "2013-03-13 10:44:06 +0200";
layers = (
{
layerId = UUID0;
name = "Bold Italic";
paths = (
{
closed = 1;
nodes = (
"233 1114 LINE",
"-3 0 LINE",
"263 0 LINE",
"499 1114 LINE"
);
}
);
width = 496;
}
);
unicode = 0131;
},
{
glyphname = iacute;
lastChange = "2013-03-13 10:44:06 +0200";
layers = (
{
layerId = UUID0;
name = "Bold Italic";
paths = (
{
closed = 1;
nodes = (
"185 1114 LINE",
"-52 0 LINE",
"214 0 LINE",
"451 1114 LINE"
);
},
{
closed = 1;
nodes = (
"452 1569 LINE",
"429 1534 OFFCURVE",
"393 1484 OFFCURVE",
"343 1419 CURVE SMOOTH",
"293 1354 OFFCURVE",
"250 1303 OFFCURVE",
"216 1268 CURVE",
"210 1241 LINE",
"397 1241 LINE",
"466 1290 OFFCURVE",
"540 1346 OFFCURVE",
"617 1409 CURVE SMOOTH",
"693 1473 OFFCURVE",
"743 1519 OFFCURVE",
"765 1548 CURVE",
"770 1569 LINE"
);
}
);
width = 496;
}
);
unicode = 00ED;
},
{
glyphname = icircumflex;
lastChange = "2013-03-13 10:44:06 +0200";
layers = (
{
layerId = UUID0;
name = "Bold Italic";
paths = (
{
closed = 1;
nodes = (
"185 1114 LINE",
"-52 0 LINE",
"214 0 LINE",
"451 1114 LINE"
);
},
{
closed = 1;
nodes = (
"274 1569 LINE",
"236 1517 OFFCURVE",
"142 1417 OFFCURVE",
"-7 1268 CURVE",
"-13 1241 LINE",
"155 1241 LINE",
"231 1293 OFFCURVE",
"306 1352 OFFCURVE",
"379 1419 CURVE",
"426 1348 OFFCURVE",
"476 1289 OFFCURVE",
"530 1241 CURVE",
"698 1241 LINE",
"704 1268 LINE",
"621 1411 OFFCURVE",
"569 1511 OFFCURVE",
"551 1569 CURVE"
);
}
);
width = 496;
}
);
unicode = 00EE;
},
{
glyphname = idieresis;
lastChange = "2013-03-13 10:44:06 +0200";
layers = (
{
layerId = UUID0;
name = "Bold Italic";
paths = (
{
closed = 1;
nodes = (
"189 1114 LINE",
"-48 0 LINE",
"218 0 LINE",
"455 1114 LINE"
);
},
{
closed = 1;
nodes = (
"127 1532 OFFCURVE",
"68 1484 OFFCURVE",
"50 1403 CURVE SMOOTH",
"33 1323 OFFCURVE",
"72 1276 OFFCURVE",
"155 1276 CURVE SMOOTH",
"238 1276 OFFCURVE",
"299 1327 OFFCURVE",
"315 1403 CURVE SMOOTH",
"332 1480 OFFCURVE",
"293 1532 OFFCURVE",
"210 1532 CURVE SMOOTH"
);
},
{
closed = 1;
nodes = (
"525 1532 OFFCURVE",
"465 1483 OFFCURVE",
"448 1403 CURVE SMOOTH",
"432 1326 OFFCURVE",
"471 1276 OFFCURVE",
"554 1276 CURVE SMOOTH",
"637 1276 OFFCURVE",
"698 1324 OFFCURVE",
"714 1403 CURVE SMOOTH",
"732 1484 OFFCURVE",
"690 1532 OFFCURVE",
"609 1532 CURVE SMOOTH"
);
}
);
width = 496;
}
);
unicode = 00EF;
},
{
glyphname = igrave;
lastChange = "2013-03-13 10:44:06 +0200";
layers = (
{
layerId = UUID0;
name = "Bold Italic";
paths = (
{
closed = 1;
nodes = (
"185 1114 LINE",
"-52 0 LINE",
"214 0 LINE",
"451 1114 LINE"
);
},
{
closed = 1;
nodes = (
"57 1569 LINE",
"52 1548 LINE",
"63 1517 OFFCURVE",
"95 1468 OFFCURVE",
"148 1401 CURVE SMOOTH",
"201 1334 OFFCURVE",
"249 1281 OFFCURVE",
"290 1241 CURVE",
"477 1241 LINE",
"483 1268 LINE",
"465 1301 OFFCURVE",
"444 1350 OFFCURVE",
"422 1413 CURVE SMOOTH",
"400 1477 OFFCURVE",
"384 1529 OFFCURVE",
"375 1569 CURVE"
);
}
);
width = 496;
}
);
unicode = 00EC;
},
{
glyphname = j;
lastChange = "2013-03-13 10:44:06 +0200";
layers = (
{
layerId = UUID0;
name = "Bold Italic";
paths = (
{
closed = 1;
nodes = (
"246 1114 LINE",
"-11 -94 LINE SMOOTH",
"-35 -207 OFFCURVE",
"-78 -264 OFFCURVE",
"-141 -264 CURVE SMOOTH",
"-168 -264 OFFCURVE",
"-195 -258 OFFCURVE",
"-224 -246 CURVE",
"-270 -467 LINE",
"-237 -484 OFFCURVE",
"-193 -492 OFFCURVE",
"-137 -492 CURVE SMOOTH",
"58 -492 OFFCURVE",
"198 -361 OFFCURVE",
"247 -129 CURVE SMOOTH",
"512 1114 LINE"
);
},
{
closed = 1;
nodes = (
"382 1548 OFFCURVE",
"316 1493 OFFCURVE",
"297 1405 CURVE SMOOTH",
"278 1313 OFFCURVE",
"325 1262 OFFCURVE",
"412 1262 CURVE SMOOTH",
"499 1262 OFFCURVE",
"566 1316 OFFCURVE",
"585 1405 CURVE SMOOTH",
"604 1492 OFFCURVE",
"562 1548 OFFCURVE",
"473 1548 CURVE SMOOTH"
);
}
);
width = 500;
}
);
unicode = 006A;
},
{
glyphname = k;
lastChange = "2013-03-13 10:44:06 +0200";
layers = (
{
layerId = UUID0;
name = "Bold Italic";
paths = (
{
closed = 1;
nodes = (
"278 1556 LINE",
"-52 0 LINE",
"214 0 LINE",
"294 377 LINE",
"418 471 LINE",
"519 0 LINE",
"798 0 LINE",
"636 657 LINE",
"1015 1114 LINE",
"733 1114 LINE",
"432 733 LINE",
"337 600 LINE",
"329 600 LINE",
"389 823 LINE",
"544 1556 LINE"
);
}
);
width = 965;
}
);
unicode = 006B;
},
{
glyphname = l;
lastChange = "2013-03-13 10:44:06 +0200";
layers = (
{
layerId = UUID0;
name = "Bold Italic";
paths = (
{
closed = 1;
nodes = (
"278 1556 LINE",
"-52 0 LINE",
"214 0 LINE",
"544 1556 LINE"
);
}
);
width = 489;
}
);
unicode = 006C;
},
{
glyphname = m;
lastChange = "2013-03-13 10:44:06 +0200";
layers = (
{
layerId = UUID0;
name = "Bold Italic";
paths = (
{
closed = 1;
nodes = (
"1182 1135 OFFCURVE",
"1077 1071 OFFCURVE",
"993 942 CURVE",
"983 942 LINE",
"965 1071 OFFCURVE",
"888 1135 OFFCURVE",
"752 1135 CURVE SMOOTH",
"647 1135 OFFCURVE",
"536 1084 OFFCURVE",
"459 971 CURVE",
"442 971 LINE",
"440 1114 LINE",
"229 1114 LINE",
"-8 0 LINE",
"258 0 LINE",
"372 535 LINE SMOOTH",
"400 668 OFFCURVE",
"434 764 OFFCURVE",
"472 822 CURVE SMOOTH",
"510 880 OFFCURVE",
"559 909 OFFCURVE",
"616 909 CURVE SMOOTH",
"698 909 OFFCURVE",
"721 827 OFFCURVE",
"687 664 CURVE SMOOTH",
"545 0 LINE",
"813 0 LINE",
"928 541 LINE SMOOTH",
"983 798 OFFCURVE",
"1054 909 OFFCURVE",
"1171 909 CURVE SMOOTH",
"1252 909 OFFCURVE",
"1274 827 OFFCURVE",
"1240 664 CURVE SMOOTH",
"1098 0 LINE",
"1366 0 LINE",
"1521 727 LINE SMOOTH",
"1578 994 OFFCURVE",
"1504 1135 OFFCURVE",
"1307 1135 CURVE SMOOTH"
);
}
);
width = 1589;
}
);
unicode = 006D;
},
{
glyphname = n;
lastChange = "2013-03-13 10:44:06 +0200";
layers = (
{
layerId = UUID0;
name = "Bold Italic";
paths = (
{
closed = 1;
nodes = (
"634 1135 OFFCURVE",
"529 1074 OFFCURVE",
"459 971 CURVE",
"442 971 LINE",
"440 1114 LINE",
"229 1114 LINE",
"-8 0 LINE",
"258 0 LINE",
"372 535 LINE SMOOTH",
"401 670 OFFCURVE",
"434 766 OFFCURVE",
"473 823 CURVE SMOOTH",
"512 880 OFFCURVE",
"561 909 OFFCURVE",
"618 909 CURVE SMOOTH",
"705 909 OFFCURVE",
"723 825 OFFCURVE",
"689 664 CURVE SMOOTH",
"547 0 LINE",
"815 0 LINE",
"970 727 LINE SMOOTH",
"1027 994 OFFCURVE",
"957 1135 OFFCURVE",
"754 1135 CURVE SMOOTH"
);
}
);
width = 1038;
}
);
unicode = 006E;
},
{
glyphname = ntilde;
lastChange = "2013-03-13 10:44:06 +0200";
layers = (
{
layerId = UUID0;
name = "Bold Italic";
paths = (
{
closed = 1;
nodes = (
"590 1135 OFFCURVE",
"485 1074 OFFCURVE",
"416 971 CURVE",
"399 971 LINE",
"397 1114 LINE",
"186 1114 LINE",
"-51 0 LINE",
"215 0 LINE",
"329 535 LINE SMOOTH",
"358 670 OFFCURVE",
"391 766 OFFCURVE",
"430 823 CURVE SMOOTH",
"469 880 OFFCURVE",
"517 909 OFFCURVE",
"574 909 CURVE SMOOTH",
"661 909 OFFCURVE",
"679 825 OFFCURVE",
"645 664 CURVE SMOOTH",
"504 0 LINE",
"772 0 LINE",
"927 727 LINE SMOOTH",
"983 994 OFFCURVE",
"913 1135 OFFCURVE",
"710 1135 CURVE SMOOTH"
);
},
{
closed = 1;
nodes = (
"900 1542 LINE",
"869 1467 OFFCURVE",
"846 1434 OFFCURVE",
"801 1434 CURVE SMOOTH",
"721 1434 OFFCURVE",
"680 1540 OFFCURVE",
"565 1540 CURVE SMOOTH",
"441 1540 OFFCURVE",
"341 1443 OFFCURVE",
"282 1239 CURVE",
"423 1239 LINE",
"454 1322 OFFCURVE",
"484 1348 OFFCURVE",
"525 1348 CURVE SMOOTH",
"604 1348 OFFCURVE",
"640 1241 OFFCURVE",
"758 1241 CURVE SMOOTH",
"879 1241 OFFCURVE",
"983 1339 OFFCURVE",
"1041 1542 CURVE"
);
}
);
width = 1038;
}
);
unicode = 00F1;
},
{
glyphname = o;
lastChange = "2013-03-13 10:44:06 +0200";
layers = (
{
layerId = UUID0;
name = "Bold Italic";
paths = (
{
closed = 1;
nodes = (
"495 1135 OFFCURVE",
"378 1084 OFFCURVE",
"279 982 CURVE SMOOTH",
"181 881 OFFCURVE",
"113 740 OFFCURVE",
"74 559 CURVE SMOOTH",
"-4 207 OFFCURVE",
"124 -24 OFFCURVE",
"381 -20 CURVE SMOOTH",
"516 -20 OFFCURVE",
"633 31 OFFCURVE",
"732 132 CURVE SMOOTH",
"830 234 OFFCURVE",
"899 376 OFFCURVE",
"938 559 CURVE SMOOTH",
"976 736 OFFCURVE",
"967 876 OFFCURVE",
"911 979 CURVE SMOOTH",
"856 1083 OFFCURVE",
"762 1135 OFFCURVE",
"631 1135 CURVE SMOOTH"
);
},
{
closed = 1;
nodes = (
"691 907 OFFCURVE",
"716 792 OFFCURVE",
"666 559 CURVE SMOOTH",
"616 324 OFFCURVE",
"539 207 OFFCURVE",
"432 207 CURVE SMOOTH",
"320 207 OFFCURVE",
"297 327 OFFCURVE",
"346 559 CURVE SMOOTH",
"396 792 OFFCURVE",
"468 907 OFFCURVE",
"580 907 CURVE SMOOTH"
);
}
);
width = 1012;
}
);
unicode = 006F;
},
{
glyphname = oacute;
lastChange = "2013-03-13 10:44:06 +0200";
layers = (
{
layerId = UUID0;
name = "Bold Italic";
paths = (
{
closed = 1;
nodes = (
"449 1135 OFFCURVE",
"332 1084 OFFCURVE",
"233 982 CURVE SMOOTH",
"135 881 OFFCURVE",
"67 740 OFFCURVE",
"28 559 CURVE SMOOTH",
"-51 207 OFFCURVE",
"78 -24 OFFCURVE",
"335 -20 CURVE SMOOTH",
"470 -20 OFFCURVE",
"587 31 OFFCURVE",
"685 132 CURVE SMOOTH",
"784 234 OFFCURVE",
"853 376 OFFCURVE",
"892 559 CURVE SMOOTH",
"930 736 OFFCURVE",
"921 876 OFFCURVE",
"864 979 CURVE SMOOTH",
"810 1083 OFFCURVE",
"716 1135 OFFCURVE",
"585 1135 CURVE SMOOTH"
);
},
{
closed = 1;
nodes = (
"645 907 OFFCURVE",
"670 792 OFFCURVE",
"620 559 CURVE SMOOTH",
"570 324 OFFCURVE",
"492 207 OFFCURVE",
"385 207 CURVE SMOOTH",
"273 207 OFFCURVE",
"251 327 OFFCURVE",
"300 559 CURVE SMOOTH",
"350 792 OFFCURVE",
"422 907 OFFCURVE",
"534 907 CURVE SMOOTH"
);
},
{
closed = 1;
nodes = (
"707 1569 LINE",
"684 1534 OFFCURVE",
"648 1484 OFFCURVE",
"598 1419 CURVE SMOOTH",
"548 1354 OFFCURVE",
"505 1303 OFFCURVE",
"471 1268 CURVE",
"465 1241 LINE",
"652 1241 LINE",
"722 1290 OFFCURVE",
"795 1346 OFFCURVE",
"872 1409 CURVE SMOOTH",
"948 1473 OFFCURVE",
"998 1519 OFFCURVE",
"1020 1548 CURVE",
"1025 1569 LINE"
);
}
);
width = 1012;
}
);
unicode = 00F3;
},
{
glyphname = ocircumflex;
lastChange = "2013-03-13 10:44:06 +0200";
layers = (
{
layerId = UUID0;
name = "Bold Italic";
paths = (
{
closed = 1;
nodes = (
"449 1135 OFFCURVE",
"332 1084 OFFCURVE",
"233 982 CURVE SMOOTH",
"135 881 OFFCURVE",
"67 740 OFFCURVE",
"28 559 CURVE SMOOTH",
"-51 207 OFFCURVE",
"78 -24 OFFCURVE",
"335 -20 CURVE SMOOTH",
"470 -20 OFFCURVE",
"587 31 OFFCURVE",
"685 132 CURVE SMOOTH",
"784 234 OFFCURVE",
"853 376 OFFCURVE",
"892 559 CURVE SMOOTH",
"930 736 OFFCURVE",
"921 876 OFFCURVE",
"864 979 CURVE SMOOTH",
"810 1083 OFFCURVE",
"716 1135 OFFCURVE",
"585 1135 CURVE SMOOTH"
);
},
{
closed = 1;
nodes = (
"645 907 OFFCURVE",
"670 792 OFFCURVE",
"620 559 CURVE SMOOTH",
"570 324 OFFCURVE",
"492 207 OFFCURVE",
"385 207 CURVE SMOOTH",
"273 207 OFFCURVE",
"251 327 OFFCURVE",
"300 559 CURVE SMOOTH",
"350 792 OFFCURVE",
"422 907 OFFCURVE",
"534 907 CURVE SMOOTH"
);
},
{
closed = 1;
nodes = (
"537 1569 LINE",
"499 1517 OFFCURVE",
"406 1417 OFFCURVE",
"256 1268 CURVE",
"250 1241 LINE",
"418 1241 LINE",
"494 1293 OFFCURVE",
"569 1352 OFFCURVE",
"642 1419 CURVE",
"689 1348 OFFCURVE",
"739 1289 OFFCURVE",
"793 1241 CURVE",
"961 1241 LINE",
"967 1268 LINE",
"884 1411 OFFCURVE",
"833 1511 OFFCURVE",
"814 1569 CURVE"
);
}
);
width = 1012;
}
);
unicode = 00F4;
},
{
glyphname = odieresis;
lastChange = "2013-03-13 10:44:06 +0200";
layers = (
{
layerId = UUID0;
name = "Bold Italic";
paths = (
{
closed = 1;
nodes = (
"453 1135 OFFCURVE",
"336 1084 OFFCURVE",
"237 982 CURVE SMOOTH",
"139 881 OFFCURVE",
"71 740 OFFCURVE",
"32 559 CURVE SMOOTH",
"-47 207 OFFCURVE",
"82 -24 OFFCURVE",
"339 -20 CURVE SMOOTH",
"474 -20 OFFCURVE",
"591 31 OFFCURVE",
"689 132 CURVE SMOOTH",
"788 234 OFFCURVE",
"857 376 OFFCURVE",
"896 559 CURVE SMOOTH",
"934 736 OFFCURVE",
"925 876 OFFCURVE",
"868 979 CURVE SMOOTH",
"814 1083 OFFCURVE",
"720 1135 OFFCURVE",
"589 1135 CURVE SMOOTH"
);
},
{
closed = 1;
nodes = (
"649 907 OFFCURVE",
"674 792 OFFCURVE",
"624 559 CURVE SMOOTH",
"574 324 OFFCURVE",
"496 207 OFFCURVE",
"389 207 CURVE SMOOTH",
"277 207 OFFCURVE",
"255 327 OFFCURVE",
"304 559 CURVE SMOOTH",
"354 792 OFFCURVE",
"426 907 OFFCURVE",
"538 907 CURVE SMOOTH"
);
},
{
closed = 1;
nodes = (
"389 1532 OFFCURVE",
"330 1484 OFFCURVE",
"313 1403 CURVE SMOOTH",
"296 1323 OFFCURVE",
"335 1276 OFFCURVE",
"418 1276 CURVE SMOOTH",
"501 1276 OFFCURVE",
"561 1327 OFFCURVE",
"578 1403 CURVE SMOOTH",
"594 1480 OFFCURVE",
"555 1532 OFFCURVE",
"472 1532 CURVE SMOOTH"
);
},
{
closed = 1;
nodes = (
"787 1532 OFFCURVE",
"728 1483 OFFCURVE",
"711 1403 CURVE SMOOTH",
"694 1326 OFFCURVE",
"734 1276 OFFCURVE",
"817 1276 CURVE SMOOTH",
"900 1276 OFFCURVE",
"960 1324 OFFCURVE",
"977 1403 CURVE SMOOTH",
"994 1484 OFFCURVE",
"952 1532 OFFCURVE",
"871 1532 CURVE SMOOTH"
);
}
);
width = 1012;
}
);
unicode = 00F6;
},
{
glyphname = ograve;
lastChange = "2013-03-13 10:44:06 +0200";
layers = (
{
layerId = UUID0;
name = "Bold Italic";
paths = (
{
closed = 1;
nodes = (
"449 1135 OFFCURVE",
"332 1084 OFFCURVE",
"233 982 CURVE SMOOTH",
"135 881 OFFCURVE",
"67 740 OFFCURVE",
"28 559 CURVE SMOOTH",
"-51 207 OFFCURVE",
"78 -24 OFFCURVE",
"335 -20 CURVE SMOOTH",
"470 -20 OFFCURVE",
"587 31 OFFCURVE",
"685 132 CURVE SMOOTH",
"784 234 OFFCURVE",
"853 376 OFFCURVE",
"892 559 CURVE SMOOTH",
"930 736 OFFCURVE",
"921 876 OFFCURVE",
"864 979 CURVE SMOOTH",
"810 1083 OFFCURVE",
"716 1135 OFFCURVE",
"585 1135 CURVE SMOOTH"
);
},
{
closed = 1;
nodes = (
"645 907 OFFCURVE",
"670 792 OFFCURVE",
"620 559 CURVE SMOOTH",
"570 324 OFFCURVE",
"492 207 OFFCURVE",
"385 207 CURVE SMOOTH",
"273 207 OFFCURVE",
"251 327 OFFCURVE",
"300 559 CURVE SMOOTH",
"350 792 OFFCURVE",
"422 907 OFFCURVE",
"534 907 CURVE SMOOTH"
);
},
{
closed = 1;
nodes = (
"325 1569 LINE",
"320 1548 LINE",
"331 1517 OFFCURVE",
"363 1468 OFFCURVE",
"416 1401 CURVE SMOOTH",
"469 1334 OFFCURVE",
"517 1281 OFFCURVE",
"558 1241 CURVE",
"745 1241 LINE",
"751 1268 LINE",
"733 1301 OFFCURVE",
"712 1350 OFFCURVE",
"690 1413 CURVE SMOOTH",
"668 1477 OFFCURVE",
"652 1529 OFFCURVE",
"643 1569 CURVE"
);
}
);
width = 1012;
}
);
unicode = 00F2;
},
{
glyphname = oslash;
lastChange = "2013-03-13 10:44:06 +0200";
layers = (
{
layerId = UUID0;
name = "Bold Italic";
paths = (
{
closed = 1;
nodes = (
"800 1094 LINE",
"754 1121 OFFCURVE",
"698 1135 OFFCURVE",
"633 1135 CURVE SMOOTH",
"497 1135 OFFCURVE",
"380 1084 OFFCURVE",
"281 982 CURVE SMOOTH",
"183 881 OFFCURVE",
"115 740 OFFCURVE",
"77 559 CURVE SMOOTH",
"37 372 OFFCURVE",
"53 226 OFFCURVE",
"109 131 CURVE",
"-2 -20 LINE",
"144 -96 LINE",
"225 16 LINE",
"269 -8 OFFCURVE",
"322 -20 OFFCURVE",
"383 -20 CURVE SMOOTH",
"518 -20 OFFCURVE",
"635 31 OFFCURVE",
"734 132 CURVE SMOOTH",
"832 234 OFFCURVE",
"902 376 OFFCURVE",
"941 559 CURVE SMOOTH",
"979 738 OFFCURVE",
"970 876 OFFCURVE",
"914 975 CURVE",
"1016 1116 LINE",
"872 1190 LINE"
);
},
{
closed = 1;
nodes = (
"679 559 LINE SMOOTH",
"629 327 OFFCURVE",
"545 207 OFFCURVE",
"434 207 CURVE SMOOTH",
"405 207 OFFCURVE",
"384 211 OFFCURVE",
"368 219 CURVE",
"699 676 LINE"
);
},
{
closed = 1;
nodes = (
"612 907 OFFCURVE",
"636 902 OFFCURVE",
"657 891 CURVE",
"312 416 LINE",
"325 486 LINE",
"341 559 LINE SMOOTH",
"390 791 OFFCURVE",
"471 907 OFFCURVE",
"583 907 CURVE SMOOTH"
);
}
);
width = 1012;
}
);
unicode = 00F8;
},
{
glyphname = otilde;
lastChange = "2013-03-13 10:44:06 +0200";
layers = (
{
layerId = UUID0;
name = "Bold Italic";
paths = (
{
closed = 1;
nodes = (
"452 1135 OFFCURVE",
"335 1084 OFFCURVE",
"236 982 CURVE SMOOTH",
"138 881 OFFCURVE",
"70 740 OFFCURVE",
"31 559 CURVE SMOOTH",
"-48 207 OFFCURVE",
"81 -24 OFFCURVE",
"338 -20 CURVE SMOOTH",
"473 -20 OFFCURVE",
"590 31 OFFCURVE",
"688 132 CURVE SMOOTH",
"787 234 OFFCURVE",
"856 376 OFFCURVE",
"895 559 CURVE SMOOTH",
"933 736 OFFCURVE",
"923 876 OFFCURVE",
"867 979 CURVE SMOOTH",
"812 1083 OFFCURVE",
"719 1135 OFFCURVE",
"588 1135 CURVE SMOOTH"
);
},
{
closed = 1;
nodes = (
"648 907 OFFCURVE",
"673 792 OFFCURVE",
"623 559 CURVE SMOOTH",
"573 324 OFFCURVE",
"495 207 OFFCURVE",
"388 207 CURVE SMOOTH",
"276 207 OFFCURVE",
"254 327 OFFCURVE",
"303 559 CURVE SMOOTH",
"353 792 OFFCURVE",
"425 907 OFFCURVE",
"537 907 CURVE SMOOTH"
);
},
{
closed = 1;
nodes = (
"888 1542 LINE",
"857 1467 OFFCURVE",
"834 1434 OFFCURVE",
"789 1434 CURVE SMOOTH",
"709 1434 OFFCURVE",
"669 1540 OFFCURVE",
"554 1540 CURVE SMOOTH",
"430 1540 OFFCURVE",
"329 1443 OFFCURVE",
"271 1239 CURVE",
"412 1239 LINE",
"442 1322 OFFCURVE",
"472 1348 OFFCURVE",
"513 1348 CURVE SMOOTH",
"592 1348 OFFCURVE",
"628 1241 OFFCURVE",
"746 1241 CURVE SMOOTH",
"867 1241 OFFCURVE",
"971 1339 OFFCURVE",
"1029 1542 CURVE"
);
}
);
width = 1012;
}
);
unicode = 00F5;
},
{
glyphname = oe;
lastChange = "2013-03-13 10:44:06 +0200";
layers = (
{
layerId = UUID0;
name = "Bold Italic";
paths = (
{
closed = 1;
nodes = (
"1085 1135 OFFCURVE",
"981 1088 OFFCURVE",
"890 995 CURVE",
"833 1088 OFFCURVE",
"747 1135 OFFCURVE",
"631 1135 CURVE SMOOTH",
"495 1135 OFFCURVE",
"378 1084 OFFCURVE",
"279 982 CURVE SMOOTH",
"181 881 OFFCURVE",
"113 740 OFFCURVE",
"74 559 CURVE SMOOTH",
"-4 207 OFFCURVE",
"124 -24 OFFCURVE",
"381 -20 CURVE SMOOTH",
"503 -20 OFFCURVE",
"613 27 OFFCURVE",
"710 121 CURVE",
"767 27 OFFCURVE",
"862 -20 OFFCURVE",
"993 -20 CURVE SMOOTH",
"1111 -20 OFFCURVE",
"1219 6 OFFCURVE",
"1317 57 CURVE",
"1363 276 LINE",
"1261 222 OFFCURVE",
"1166 195 OFFCURVE",
"1078 195 CURVE SMOOTH",
"945 195 OFFCURVE",
"883 290 OFFCURVE",
"921 489 CURVE",
"1453 489 LINE",
"1484 631 LINE SMOOTH",
"1517 789 OFFCURVE",
"1508 912 OFFCURVE",
"1458 1001 CURVE SMOOTH",
"1408 1090 OFFCURVE",
"1323 1135 OFFCURVE",
"1202 1135 CURVE SMOOTH"
);
},
{
closed = 1;
nodes = (
"691 907 OFFCURVE",
"716 792 OFFCURVE",
"666 559 CURVE SMOOTH",
"616 324 OFFCURVE",
"539 207 OFFCURVE",
"432 207 CURVE SMOOTH",
"320 207 OFFCURVE",
"297 327 OFFCURVE",
"346 559 CURVE SMOOTH",
"396 792 OFFCURVE",
"468 907 OFFCURVE",
"580 907 CURVE SMOOTH"
);
},
{
closed = 1;
nodes = (
"1237 930 OFFCURVE",
"1268 845 OFFCURVE",
"1236 682 CURVE",
"966 682 LINE",
"1010 851 OFFCURVE",
"1080 930 OFFCURVE",
"1156 930 CURVE SMOOTH"
);
}
);
width = 1532;
}
);
unicode = 0153;
},
{
glyphname = p;
lastChange = "2013-03-13 10:44:06 +0200";
layers = (
{
layerId = UUID0;
name = "Bold Italic";
paths = (
{
closed = 1;
nodes = (
"686 1135 OFFCURVE",
"593 1080 OFFCURVE",
"515 969 CURVE",
"503 969 LINE",
"487 1114 LINE",
"281 1114 LINE",
"-60 -492 LINE",
"208 -492 LINE",
"305 -37 LINE SMOOTH",
"309 -18 OFFCURVE",
"315 36 OFFCURVE",
"324 127 CURVE",
"338 127 LINE",
"378 18 OFFCURVE",
"441 -20 OFFCURVE",
"537 -20 CURVE SMOOTH",
"640 -20 OFFCURVE",
"732 31 OFFCURVE",
"813 134 CURVE SMOOTH",
"894 237 OFFCURVE",
"954 378 OFFCURVE",
"992 559 CURVE SMOOTH",
"1031 742 OFFCURVE",
"1033 884 OFFCURVE",
"997 984 CURVE SMOOTH",
"961 1085 OFFCURVE",
"892 1135 OFFCURVE",
"791 1135 CURVE SMOOTH"
);
},
{
closed = 1;
nodes = (
"750 909 OFFCURVE",
"771 795 OFFCURVE",
"721 563 CURVE SMOOTH",
"671 327 OFFCURVE",
"599 209 OFFCURVE",
"506 209 CURVE SMOOTH",
"398 209 OFFCURVE",
"378 316 OFFCURVE",
"430 561 CURVE SMOOTH",
"437 596 LINE SMOOTH",
"488 820 OFFCURVE",
"549 909 OFFCURVE",
"653 909 CURVE SMOOTH"
);
}
);
width = 1016;
}
);
unicode = 0070;
},
{
glyphname = thorn;
lastChange = "2013-03-13 10:44:06 +0200";
layers = (
{
layerId = UUID0;
name = "Bold Italic";
paths = (
{
closed = 1;
nodes = (
"331 1556 LINE",
"-105 -492 LINE",
"163 -492 LINE",
"260 -37 LINE SMOOTH",
"264 -18 OFFCURVE",
"271 36 OFFCURVE",
"279 127 CURVE",
"293 127 LINE",
"333 19 OFFCURVE",
"398 -20 OFFCURVE",
"491 -20 CURVE SMOOTH",
"595 -20 OFFCURVE",
"688 31 OFFCURVE",
"768 134 CURVE SMOOTH",
"849 237 OFFCURVE",
"909 378 OFFCURVE",
"948 559 CURVE SMOOTH",
"987 742 OFFCURVE",
"988 884 OFFCURVE",
"952 984 CURVE SMOOTH",
"917 1085 OFFCURVE",
"847 1135 OFFCURVE",
"746 1135 CURVE SMOOTH",
"645 1135 OFFCURVE",
"563 1093 OFFCURVE",
"472 969 CURVE",
"458 969 LINE",
"487 1069 OFFCURVE",
"503 1127 OFFCURVE",
"508 1144 CURVE SMOOTH",
"513 1161 OFFCURVE",
"516 1177 OFFCURVE",
"519 1192 CURVE SMOOTH",
"597 1556 LINE"
);
},
{
closed = 1;
nodes = (
"705 909 OFFCURVE",
"726 795 OFFCURVE",
"677 563 CURVE SMOOTH",
"626 327 OFFCURVE",
"554 209 OFFCURVE",
"461 209 CURVE SMOOTH",
"353 209 OFFCURVE",
"333 316 OFFCURVE",
"385 561 CURVE SMOOTH",
"393 596 LINE SMOOTH",
"443 820 OFFCURVE",
"504 909 OFFCURVE",
"608 909 CURVE SMOOTH"
);
}
);
width = 1016;
}
);
unicode = 00FE;
},
{
glyphname = q;
lastChange = "2013-03-13 10:44:06 +0200";
layers = (
{
layerId = UUID0;
name = "Bold Italic";
paths = (
{
closed = 1;
nodes = (
"471 1135 OFFCURVE",
"380 1084 OFFCURVE",
"300 981 CURVE SMOOTH",
"222 879 OFFCURVE",
"162 737 OFFCURVE",
"124 555 CURVE SMOOTH",
"85 374 OFFCURVE",
"84 233 OFFCURVE",
"122 132 CURVE SMOOTH",
"159 31 OFFCURVE",
"229 -20 OFFCURVE",
"333 -20 CURVE SMOOTH",
"436 -20 OFFCURVE",
"523 30 OFFCURVE",
"603 145 CURVE",
"613 145 LINE",
"587 57 OFFCURVE",
"571 1 OFFCURVE",
"566 -23 CURVE SMOOTH",
"466 -492 LINE",
"732 -492 LINE",
"1073 1114 LINE",
"848 1114 LINE",
"789 971 LINE",
"775 971 LINE",
"739 1088 OFFCURVE",
"676 1135 OFFCURVE",
"572 1135 CURVE SMOOTH"
);
},
{
closed = 1;
nodes = (
"718 905 OFFCURVE",
"738 798 OFFCURVE",
"686 553 CURVE SMOOTH",
"678 516 LINE SMOOTH",
"654 404 OFFCURVE",
"624 324 OFFCURVE",
"590 275 CURVE SMOOTH",
"557 227 OFFCURVE",
"515 203 OFFCURVE",
"462 203 CURVE SMOOTH",
"366 203 OFFCURVE",
"347 315 OFFCURVE",
"397 551 CURVE SMOOTH",
"447 787 OFFCURVE",
"518 905 OFFCURVE",
"611 905 CURVE SMOOTH"
);
}
);
width = 1016;
}
);
unicode = 0071;
},
{
glyphname = r;
lastChange = "2013-03-13 10:44:06 +0200";
layers = (
{
layerId = UUID0;
name = "Bold Italic";
paths = (
{
closed = 1;
nodes = (
"617 1135 OFFCURVE",
"539 1080 OFFCURVE",
"450 940 CURVE",
"441 940 LINE",
"448 1114 LINE",
"229 1114 LINE",
"-8 0 LINE",
"258 0 LINE",
"380 573 LINE SMOOTH",
"422 768 OFFCURVE",
"516 872 OFFCURVE",
"645 872 CURVE SMOOTH",
"675 872 OFFCURVE",
"698 869 OFFCURVE",
"716 862 CURVE",
"801 1120 LINE",
"773 1130 OFFCURVE",
"742 1135 OFFCURVE",
"709 1135 CURVE SMOOTH"
);
}
);
width = 690;
}
);
unicode = 0072;
},
{
glyphname = s;
lastChange = "2013-03-13 10:44:06 +0200";
layers = (
{
layerId = UUID0;
name = "Bold Italic";
paths = (
{
closed = 1;
nodes = (
"436 1135 OFFCURVE",
"340 1107 OFFCURVE",
"263 1052 CURVE SMOOTH",
"186 997 OFFCURVE",
"138 922 OFFCURVE",
"118 827 CURVE SMOOTH",
"87 679 OFFCURVE",
"130 577 OFFCURVE",
"271 481 CURVE SMOOTH",
"324 444 OFFCURVE",
"358 413 OFFCURVE",
"376 388 CURVE SMOOTH",
"394 363 OFFCURVE",
"398 333 OFFCURVE",
"391 299 CURVE SMOOTH",
"377 232 OFFCURVE",
"323 188 OFFCURVE",
"240 188 CURVE SMOOTH",
"203 188 OFFCURVE",
"161 196 OFFCURVE",
"116 213 CURVE SMOOTH",
"70 230 OFFCURVE",
"33 251 OFFCURVE",
"1 276 CURVE",
"-48 45 LINE",
"15 2 OFFCURVE",
"101 -20 OFFCURVE",
"211 -20 CURVE SMOOTH",
"459 -20 OFFCURVE",
"616 109 OFFCURVE",
"662 326 CURVE SMOOTH",
"672 376 OFFCURVE",
"674 420 OFFCURVE",
"667 457 CURVE SMOOTH",
"660 494 OFFCURVE",
"645 528 OFFCURVE",
"623 557 CURVE SMOOTH",
"601 586 OFFCURVE",
"560 622 OFFCURVE",
"500 664 CURVE SMOOTH",
"450 699 OFFCURVE",
"416 728 OFFCURVE",
"400 751 CURVE SMOOTH",
"384 774 OFFCURVE",
"380 801 OFFCURVE",
"386 831 CURVE SMOOTH",
"397 883 OFFCURVE",
"440 924 OFFCURVE",
"508 924 CURVE SMOOTH",
"562 924 OFFCURVE",
"621 905 OFFCURVE",
"684 866 CURVE",
"811 1057 LINE",
"735 1109 OFFCURVE",
"648 1135 OFFCURVE",
"549 1135 CURVE SMOOTH"
);
}
);
width = 766;
}
);
unicode = 0073;
},
{
glyphname = scaron;
lastChange = "2013-03-13 10:44:06 +0200";
layers = (
{
layerId = UUID0;
name = "Bold Italic";
paths = (
{
closed = 1;
nodes = (
"390 1135 OFFCURVE",
"294 1107 OFFCURVE",
"217 1052 CURVE SMOOTH",
"140 997 OFFCURVE",
"92 922 OFFCURVE",
"72 827 CURVE SMOOTH",
"41 679 OFFCURVE",
"84 577 OFFCURVE",
"225 481 CURVE SMOOTH",
"278 444 OFFCURVE",
"312 413 OFFCURVE",
"330 388 CURVE SMOOTH",
"348 363 OFFCURVE",
"352 333 OFFCURVE",
"345 299 CURVE SMOOTH",
"331 232 OFFCURVE",
"277 188 OFFCURVE",
"194 188 CURVE SMOOTH",
"157 188 OFFCURVE",
"115 196 OFFCURVE",
"70 213 CURVE SMOOTH",
"24 230 OFFCURVE",
"-13 251 OFFCURVE",
"-45 276 CURVE",
"-94 45 LINE",
"-31 2 OFFCURVE",
"55 -20 OFFCURVE",
"165 -20 CURVE SMOOTH",
"413 -20 OFFCURVE",
"570 109 OFFCURVE",
"616 326 CURVE SMOOTH",
"626 376 OFFCURVE",
"628 420 OFFCURVE",
"621 457 CURVE SMOOTH",
"613 494 OFFCURVE",
"599 528 OFFCURVE",
"577 557 CURVE SMOOTH",
"555 586 OFFCURVE",
"514 622 OFFCURVE",
"454 664 CURVE SMOOTH",
"404 699 OFFCURVE",
"370 728 OFFCURVE",
"354 751 CURVE SMOOTH",
"338 774 OFFCURVE",
"334 801 OFFCURVE",
"340 831 CURVE SMOOTH",
"351 883 OFFCURVE",
"394 924 OFFCURVE",
"462 924 CURVE SMOOTH",
"516 924 OFFCURVE",
"575 905 OFFCURVE",
"637 866 CURVE",
"765 1057 LINE",
"689 1109 OFFCURVE",
"602 1135 OFFCURVE",
"503 1135 CURVE SMOOTH"
);
},
{
closed = 1;
nodes = (
"740 1569 LINE",
"668 1519 OFFCURVE",
"594 1460 OFFCURVE",
"517 1391 CURVE",
"470 1464 OFFCURVE",
"418 1523 OFFCURVE",
"365 1569 CURVE",
"197 1569 LINE",
"191 1542 LINE",
"275 1396 OFFCURVE",
"327 1296 OFFCURVE",
"344 1241 CURVE",
"621 1241 LINE",
"669 1303 OFFCURVE",
"763 1403 OFFCURVE",
"902 1542 CURVE",
"908 1569 LINE"
);
}
);
width = 766;
}
);
unicode = 0161;
},
{
glyphname = germandbls;
lastChange = "2013-03-13 10:44:06 +0200";
layers = (
{
layerId = UUID0;
name = "Bold Italic";
paths = (
{
closed = 1;
nodes = (
"438 1567 OFFCURVE",
"250 1420 OFFCURVE",
"193 1151 CURVE SMOOTH",
"-51 0 LINE",
"215 0 LINE",
"458 1143 LINE SMOOTH",
"486 1278 OFFCURVE",
"555 1346 OFFCURVE",
"663 1346 CURVE SMOOTH",
"762 1346 OFFCURVE",
"802 1291 OFFCURVE",
"783 1200 CURVE SMOOTH",
"776 1169 OFFCURVE",
"762 1140 OFFCURVE",
"741 1113 CURVE SMOOTH",
"721 1087 OFFCURVE",
"688 1055 OFFCURVE",
"641 1017 CURVE SMOOTH",
"554 946 OFFCURVE",
"508 882 OFFCURVE",
"490 799 CURVE SMOOTH",
"478 742 OFFCURVE",
"481 693 OFFCURVE",
"497 651 CURVE SMOOTH",
"514 609 OFFCURVE",
"548 566 OFFCURVE",
"598 522 CURVE SMOOTH",
"647 476 OFFCURVE",
"677 439 OFFCURVE",
"689 412 CURVE SMOOTH",
"701 385 OFFCURVE",
"704 354 OFFCURVE",
"696 317 CURVE SMOOTH",
"678 231 OFFCURVE",
"624 188 OFFCURVE",
"535 188 CURVE SMOOTH",
"466 188 OFFCURVE",
"401 211 OFFCURVE",
"341 258 CURVE",
"294 33 LINE",
"347 -2 OFFCURVE",
"420 -20 OFFCURVE",
"513 -20 CURVE SMOOTH",
"757 -20 OFFCURVE",
"925 113 OFFCURVE",
"972 338 CURVE SMOOTH",
"986 403 OFFCURVE",
"987 459 OFFCURVE",
"974 506 CURVE SMOOTH",
"962 553 OFFCURVE",
"930 602 OFFCURVE",
"877 653 CURVE SMOOTH",
"822 707 OFFCURVE",
"788 745 OFFCURVE",
"775 767 CURVE SMOOTH",
"762 789 OFFCURVE",
"758 812 OFFCURVE",
"763 836 CURVE SMOOTH",
"768 859 OFFCURVE",
"794 890 OFFCURVE",
"839 929 CURVE SMOOTH",
"901 982 LINE SMOOTH",
"988 1057 OFFCURVE",
"1042 1144 OFFCURVE",
"1063 1245 CURVE SMOOTH",
"1085 1346 OFFCURVE",
"1064 1425 OFFCURVE",
"1003 1482 CURVE SMOOTH",
"941 1539 OFFCURVE",
"845 1567 OFFCURVE",
"714 1567 CURVE SMOOTH"
);
}
);
width = 1108;
}
);
unicode = 00DF;
},
{
glyphname = t;
lastChange = "2013-03-13 10:44:06 +0200";
layers = (
{
layerId = UUID0;
name = "Bold Italic";
paths = (
{
closed = 1;
nodes = (
"386 1354 LINE",
"268 1118 LINE",
"108 1022 LINE",
"83 903 LINE",
"191 903 LINE",
"69 326 LINE SMOOTH",
"19 95 OFFCURVE",
"87 -20 OFFCURVE",
"280 -20 CURVE SMOOTH",
"367 -20 OFFCURVE",
"435 -5 OFFCURVE",
"485 25 CURVE",
"529 233 LINE",
"482 214 OFFCURVE",
"439 205 OFFCURVE",
"402 205 CURVE SMOOTH",
"342 205 OFFCURVE",
"320 242 OFFCURVE",
"336 317 CURVE SMOOTH",
"460 903 LINE",
"662 903 LINE",
"707 1114 LINE",
"505 1114 LINE",
"556 1354 LINE"
);
}
);
width = 664;
}
);
unicode = 0074;
},
{
glyphname = u;
lastChange = "2013-03-13 10:44:06 +0200";
layers = (
{
layerId = UUID0;
name = "Bold Italic";
paths = (
{
closed = 1;
nodes = (
"780 1114 LINE",
"666 580 LINE SMOOTH",
"637 445 OFFCURVE",
"604 348 OFFCURVE",
"565 291 CURVE SMOOTH",
"526 234 OFFCURVE",
"478 205 OFFCURVE",
"421 205 CURVE SMOOTH",
"334 205 OFFCURVE",
"316 288 OFFCURVE",
"351 451 CURVE SMOOTH",
"492 1114 LINE",
"223 1114 LINE",
"68 387 LINE SMOOTH",
"10 116 OFFCURVE",
"85 -20 OFFCURVE",
"285 -20 CURVE SMOOTH",
"402 -20 OFFCURVE",
"512 42 OFFCURVE",
"582 143 CURVE",
"596 143 LINE",
"599 0 LINE",
"812 0 LINE",
"1049 1114 LINE"
);
}
);
width = 1038;
}
);
unicode = 0075;
},
{
glyphname = uacute;
lastChange = "2013-03-13 10:44:06 +0200";
layers = (
{
layerId = UUID0;
name = "Bold Italic";
paths = (
{
closed = 1;
nodes = (
"731 1114 LINE",
"618 580 LINE SMOOTH",
"589 445 OFFCURVE",
"555 348 OFFCURVE",
"516 291 CURVE SMOOTH",
"478 234 OFFCURVE",
"430 205 OFFCURVE",
"373 205 CURVE SMOOTH",
"286 205 OFFCURVE",
"268 288 OFFCURVE",
"302 451 CURVE SMOOTH",
"443 1114 LINE",
"174 1114 LINE",
"20 387 LINE SMOOTH",
"-38 116 OFFCURVE",
"37 -20 OFFCURVE",
"237 -20 CURVE SMOOTH",
"354 -20 OFFCURVE",
"463 42 OFFCURVE",
"534 143 CURVE",
"548 143 LINE",
"550 0 LINE",
"763 0 LINE",
"1000 1114 LINE"
);
},
{
closed = 1;
nodes = (
"722 1569 LINE",
"699 1534 OFFCURVE",
"663 1484 OFFCURVE",
"613 1419 CURVE SMOOTH",
"563 1354 OFFCURVE",
"520 1303 OFFCURVE",
"486 1268 CURVE",
"480 1241 LINE",
"667 1241 LINE",
"737 1290 OFFCURVE",
"810 1346 OFFCURVE",
"887 1409 CURVE SMOOTH",
"963 1473 OFFCURVE",
"1013 1519 OFFCURVE",
"1035 1548 CURVE",
"1040 1569 LINE"
);
}
);
width = 1038;
}
);
unicode = 00FA;
},
{
glyphname = ucircumflex;
lastChange = "2013-03-13 10:44:06 +0200";
layers = (
{
layerId = UUID0;
name = "Bold Italic";
paths = (
{
closed = 1;
nodes = (
"731 1114 LINE",
"618 580 LINE SMOOTH",
"589 445 OFFCURVE",
"555 348 OFFCURVE",
"516 291 CURVE SMOOTH",
"478 234 OFFCURVE",
"430 205 OFFCURVE",
"373 205 CURVE SMOOTH",
"286 205 OFFCURVE",
"268 288 OFFCURVE",
"302 451 CURVE SMOOTH",
"443 1114 LINE",
"174 1114 LINE",
"20 387 LINE SMOOTH",
"-38 116 OFFCURVE",
"37 -20 OFFCURVE",
"237 -20 CURVE SMOOTH",
"354 -20 OFFCURVE",
"463 42 OFFCURVE",
"534 143 CURVE",
"548 143 LINE",
"550 0 LINE",
"763 0 LINE",
"1000 1114 LINE"
);
},
{
closed = 1;
nodes = (
"549 1569 LINE",
"511 1517 OFFCURVE",
"418 1417 OFFCURVE",
"268 1268 CURVE",
"262 1241 LINE",
"430 1241 LINE",
"506 1293 OFFCURVE",
"581 1352 OFFCURVE",
"654 1419 CURVE",
"701 1348 OFFCURVE",
"751 1289 OFFCURVE",
"805 1241 CURVE",
"973 1241 LINE",
"979 1268 LINE",
"896 1411 OFFCURVE",
"845 1511 OFFCURVE",
"826 1569 CURVE"
);
}
);
width = 1038;
}
);
unicode = 00FB;
},
{
glyphname = udieresis;
lastChange = "2013-03-13 10:44:06 +0200";
layers = (
{
layerId = UUID0;
name = "Bold Italic";
paths = (
{
closed = 1;
nodes = (
"735 1114 LINE",
"622 580 LINE SMOOTH",
"593 445 OFFCURVE",
"559 348 OFFCURVE",
"520 291 CURVE SMOOTH",
"482 234 OFFCURVE",
"434 205 OFFCURVE",
"377 205 CURVE SMOOTH",
"290 205 OFFCURVE",
"272 288 OFFCURVE",
"306 451 CURVE SMOOTH",
"447 1114 LINE",
"178 1114 LINE",
"24 387 LINE SMOOTH",
"-34 116 OFFCURVE",
"41 -20 OFFCURVE",
"241 -20 CURVE SMOOTH",
"358 -20 OFFCURVE",
"467 42 OFFCURVE",
"538 143 CURVE",
"552 143 LINE",
"554 0 LINE",
"767 0 LINE",
"1004 1114 LINE"
);
},
{
closed = 1;
nodes = (
"399 1532 OFFCURVE",
"340 1484 OFFCURVE",
"323 1403 CURVE SMOOTH",
"306 1323 OFFCURVE",
"345 1276 OFFCURVE",
"428 1276 CURVE SMOOTH",
"511 1276 OFFCURVE",
"571 1327 OFFCURVE",
"588 1403 CURVE SMOOTH",
"604 1480 OFFCURVE",
"565 1532 OFFCURVE",
"482 1532 CURVE SMOOTH"
);
},
{
closed = 1;
nodes = (
"797 1532 OFFCURVE",
"738 1483 OFFCURVE",
"721 1403 CURVE SMOOTH",
"704 1326 OFFCURVE",
"744 1276 OFFCURVE",
"827 1276 CURVE SMOOTH",
"910 1276 OFFCURVE",
"970 1324 OFFCURVE",
"987 1403 CURVE SMOOTH",
"1004 1484 OFFCURVE",
"962 1532 OFFCURVE",
"881 1532 CURVE SMOOTH"
);
}
);
width = 1038;
}
);
unicode = 00FC;
},
{
glyphname = ugrave;
lastChange = "2013-03-13 10:44:06 +0200";
layers = (
{
layerId = UUID0;
name = "Bold Italic";
paths = (
{
closed = 1;
nodes = (
"731 1114 LINE",
"618 580 LINE SMOOTH",
"589 445 OFFCURVE",
"555 348 OFFCURVE",
"516 291 CURVE SMOOTH",
"478 234 OFFCURVE",
"430 205 OFFCURVE",
"373 205 CURVE SMOOTH",
"286 205 OFFCURVE",
"268 288 OFFCURVE",
"302 451 CURVE SMOOTH",
"443 1114 LINE",
"174 1114 LINE",
"20 387 LINE SMOOTH",
"-38 116 OFFCURVE",
"37 -20 OFFCURVE",
"237 -20 CURVE SMOOTH",
"354 -20 OFFCURVE",
"463 42 OFFCURVE",
"534 143 CURVE",
"548 143 LINE",
"550 0 LINE",
"763 0 LINE",
"1000 1114 LINE"
);
},
{
closed = 1;
nodes = (
"329 1569 LINE",
"324 1548 LINE",
"335 1517 OFFCURVE",
"367 1468 OFFCURVE",
"420 1401 CURVE SMOOTH",
"473 1334 OFFCURVE",
"521 1281 OFFCURVE",
"562 1241 CURVE",
"749 1241 LINE",
"755 1268 LINE",
"737 1301 OFFCURVE",
"716 1350 OFFCURVE",
"694 1413 CURVE SMOOTH",
"672 1477 OFFCURVE",
"656 1529 OFFCURVE",
"647 1569 CURVE"
);
}
);
width = 1038;
}
);
unicode = 00F9;
},
{
glyphname = v;
lastChange = "2013-03-13 10:44:06 +0200";
layers = (
{
layerId = UUID0;
name = "Bold Italic";
paths = (
{
closed = 1;
nodes = (
"755 1114 LINE",
"564 671 OFFCURVE",
"462 433 OFFCURVE",
"450 402 CURVE SMOOTH",
"438 371 OFFCURVE",
"425 336 OFFCURVE",
"412 299 CURVE SMOOTH",
"399 262 OFFCURVE",
"391 233 OFFCURVE",
"386 213 CURVE",
"382 213 LINE",
"385 238 OFFCURVE",
"389 280 OFFCURVE",
"392 337 CURVE SMOOTH",
"397 395 OFFCURVE",
"399 439 OFFCURVE",
"399 469 CURVE SMOOTH",
"394 1114 LINE",
"118 1114 LINE",
"173 0 LINE",
"503 0 LINE",
"1031 1114 LINE"
);
}
);
width = 913;
}
);
unicode = 0076;
},
{
glyphname = w;
lastChange = "2013-03-13 10:44:06 +0200";
layers = (
{
layerId = UUID0;
name = "Bold Italic";
paths = (
{
closed = 1;
nodes = (
"1316 1114 LINE",
"1080 500 LINE SMOOTH",
"1049 420 OFFCURVE",
"1016 320 OFFCURVE",
"981 201 CURVE",
"977 201 LINE",
"997 335 OFFCURVE",
"1007 435 OFFCURVE",
"1008 500 CURVE SMOOTH",
"1029 1114 LINE",
"687 1114 LINE",
"447 502 LINE",
"440 481 OFFCURVE",
"424 435 OFFCURVE",
"401 362 CURVE SMOOTH",
"377 290 OFFCURVE",
"361 236 OFFCURVE",
"352 201 CURVE",
"346 201 LINE",
"364 332 OFFCURVE",
"374 432 OFFCURVE",
"377 500 CURVE SMOOTH",
"405 1114 LINE",
"138 1114 LINE",
"124 0 LINE",
"466 0 LINE",
"639 445 OFFCURVE",
"733 688 OFFCURVE",
"747 727 CURVE SMOOTH",
"762 767 OFFCURVE",
"783 831 OFFCURVE",
"812 920 CURVE",
"816 920 LINE",
"797 647 LINE",
"771 0 LINE",
"1117 0 LINE",
"1576 1114 LINE"
);
}
);
width = 1479;
}
);
unicode = 0077;
},
{
glyphname = x;
lastChange = "2013-03-13 10:44:06 +0200";
layers = (
{
layerId = UUID0;
name = "Bold Italic";
paths = (
{
closed = 1;
nodes = (
"706 1114 LINE",
"497 774 LINE",
"421 1114 LINE",
"145 1114 LINE",
"308 569 LINE",
"-104 0 LINE",
"173 0 LINE",
"395 356 LINE",
"478 0 LINE",
"756 0 LINE",
"585 569 LINE",
"980 1114 LINE"
);
}
);
width = 889;
}
);
unicode = 0078;
},
{
glyphname = y;
lastChange = "2013-03-13 10:44:06 +0200";
layers = (
{
layerId = UUID0;
name = "Bold Italic";
paths = (
{
closed = 1;
nodes = (
"804 1114 LINE",
"623 683 OFFCURVE",
"529 455 OFFCURVE",
"521 432 CURVE SMOOTH",
"487 335 LINE SMOOTH",
"473 294 OFFCURVE",
"464 266 OFFCURVE",
"460 250 CURVE",
"454 250 LINE",
"467 351 OFFCURVE",
"470 429 OFFCURVE",
"467 485 CURVE SMOOTH",
"447 1114 LINE",
"171 1114 LINE",
"260 -18 LINE",
"226 -88 LINE SMOOTH",
"173 -205 OFFCURVE",
"102 -264 OFFCURVE",
"13 -264 CURVE SMOOTH",
"-21 -264 OFFCURVE",
"-51 -260 OFFCURVE",
"-77 -252 CURVE",
"-124 -475 LINE",
"-85 -486 OFFCURVE",
"-40 -492 OFFCURVE",
"13 -492 CURVE SMOOTH",
"120 -492 OFFCURVE",
"212 -460 OFFCURVE",
"290 -396 CURVE SMOOTH",
"367 -332 OFFCURVE",
"441 -227 OFFCURVE",
"511 -80 CURVE SMOOTH",
"1084 1114 LINE"
);
}
);
width = 913;
}
);
unicode = 0079;
},
{
glyphname = yacute;
lastChange = "2013-03-13 10:44:06 +0200";
layers = (
{
layerId = UUID0;
name = "Bold Italic";
paths = (
{
closed = 1;
nodes = (
"755 1114 LINE",
"575 683 OFFCURVE",
"480 455 OFFCURVE",
"472 432 CURVE SMOOTH",
"439 335 LINE SMOOTH",
"425 294 OFFCURVE",
"416 266 OFFCURVE",
"412 250 CURVE",
"406 250 LINE",
"418 351 OFFCURVE",
"422 429 OFFCURVE",
"419 485 CURVE SMOOTH",
"398 1114 LINE",
"122 1114 LINE",
"212 -18 LINE",
"178 -88 LINE SMOOTH",
"125 -205 OFFCURVE",
"53 -264 OFFCURVE",
"-36 -264 CURVE SMOOTH",
"-70 -264 OFFCURVE",
"-100 -260 OFFCURVE",
"-125 -252 CURVE",
"-172 -475 LINE",
"-134 -486 OFFCURVE",
"-88 -492 OFFCURVE",
"-35 -492 CURVE SMOOTH",
"72 -492 OFFCURVE",
"164 -460 OFFCURVE",
"241 -396 CURVE SMOOTH",
"319 -332 OFFCURVE",
"392 -227 OFFCURVE",
"463 -80 CURVE SMOOTH",
"1035 1114 LINE"
);
},
{
closed = 1;
nodes = (
"701 1569 LINE",
"679 1534 OFFCURVE",
"642 1484 OFFCURVE",
"592 1419 CURVE SMOOTH",
"542 1354 OFFCURVE",
"499 1303 OFFCURVE",
"465 1268 CURVE",
"459 1241 LINE",
"646 1241 LINE",
"716 1290 OFFCURVE",
"790 1346 OFFCURVE",
"866 1409 CURVE SMOOTH",
"943 1473 OFFCURVE",
"992 1519 OFFCURVE",
"1015 1548 CURVE",
"1019 1569 LINE"
);
}
);
width = 913;
}
);
unicode = 00FD;
},
{
glyphname = ydieresis;
lastChange = "2013-03-13 10:44:06 +0200";
layers = (
{
layerId = UUID0;
name = "Bold Italic";
paths = (
{
closed = 1;
nodes = (
"759 1114 LINE",
"579 683 OFFCURVE",
"484 455 OFFCURVE",
"476 432 CURVE SMOOTH",
"443 335 LINE SMOOTH",
"429 294 OFFCURVE",
"420 266 OFFCURVE",
"416 250 CURVE",
"410 250 LINE",
"422 351 OFFCURVE",
"426 429 OFFCURVE",
"423 485 CURVE SMOOTH",
"402 1114 LINE",
"126 1114 LINE",
"216 -18 LINE",
"182 -88 LINE SMOOTH",
"129 -205 OFFCURVE",
"57 -264 OFFCURVE",
"-32 -264 CURVE SMOOTH",
"-66 -264 OFFCURVE",
"-96 -260 OFFCURVE",
"-121 -252 CURVE",
"-168 -475 LINE",
"-130 -486 OFFCURVE",
"-84 -492 OFFCURVE",
"-31 -492 CURVE SMOOTH",
"76 -492 OFFCURVE",
"168 -460 OFFCURVE",
"245 -396 CURVE SMOOTH",
"323 -332 OFFCURVE",
"396 -227 OFFCURVE",
"466 -80 CURVE SMOOTH",
"1039 1114 LINE"
);
},
{
closed = 1;
nodes = (
"389 1532 OFFCURVE",
"330 1484 OFFCURVE",
"313 1403 CURVE SMOOTH",
"296 1323 OFFCURVE",
"335 1276 OFFCURVE",
"418 1276 CURVE SMOOTH",
"501 1276 OFFCURVE",
"562 1327 OFFCURVE",
"578 1403 CURVE SMOOTH",
"594 1480 OFFCURVE",
"555 1532 OFFCURVE",
"472 1532 CURVE SMOOTH"
);
},
{
closed = 1;
nodes = (
"787 1532 OFFCURVE",
"728 1483 OFFCURVE",
"711 1403 CURVE SMOOTH",
"694 1326 OFFCURVE",
"734 1276 OFFCURVE",
"817 1276 CURVE SMOOTH",
"900 1276 OFFCURVE",
"960 1324 OFFCURVE",
"977 1403 CURVE SMOOTH",
"994 1484 OFFCURVE",
"952 1532 OFFCURVE",
"871 1532 CURVE SMOOTH"
);
}
);
width = 913;
}
);
unicode = 00FF;
},
{
glyphname = z;
lastChange = "2013-03-13 10:44:06 +0200";
layers = (
{
layerId = UUID0;
name = "Bold Italic";
paths = (
{
closed = 1;
nodes = (
"181 1114 LINE",
"136 899 LINE",
"456 899 LINE",
"-41 170 LINE",
"-77 0 LINE",
"572 0 LINE",
"617 215 LINE",
"271 215 LINE",
"754 926 LINE",
"794 1114 LINE"
);
}
);
width = 731;
}
);
unicode = 007A;
},
{
glyphname = zcaron;
lastChange = "2013-03-13 10:44:06 +0200";
layers = (
{
layerId = UUID0;
name = "Bold Italic";
paths = (
{
closed = 1;
nodes = (
"133 1114 LINE",
"87 899 LINE",
"407 899 LINE",
"-90 170 LINE",
"-126 0 LINE",
"523 0 LINE",
"569 215 LINE",
"223 215 LINE",
"706 926 LINE",
"746 1114 LINE"
);
},
{
closed = 1;
nodes = (
"723 1569 LINE",
"651 1519 OFFCURVE",
"577 1460 OFFCURVE",
"500 1391 CURVE",
"452 1464 OFFCURVE",
"401 1523 OFFCURVE",
"348 1569 CURVE",
"180 1569 LINE",
"174 1542 LINE",
"258 1396 OFFCURVE",
"310 1296 OFFCURVE",
"327 1241 CURVE",
"604 1241 LINE",
"652 1303 OFFCURVE",
"745 1403 OFFCURVE",
"885 1542 CURVE",
"891 1569 LINE"
);
}
);
width = 731;
}
);
unicode = 017E;
},
{
glyphname = uniFB01;
lastChange = "2013-03-13 10:44:06 +0200";
layers = (
{
layerId = UUID0;
name = "Bold Italic";
paths = (
{
closed = 1;
nodes = (
"422 1567 OFFCURVE",
"299 1448 OFFCURVE",
"247 1200 CURVE SMOOTH",
"229 1116 LINE",
"83 1036 LINE",
"54 903 LINE",
"183 903 LINE",
"-9 0 LINE",
"257 0 LINE",
"449 903 LINE",
"633 903 LINE",
"678 1114 LINE",
"494 1114 LINE",
"512 1196 LINE SMOOTH",
"533 1296 OFFCURVE",
"570 1343 OFFCURVE",
"631 1343 CURVE SMOOTH",
"666 1343 OFFCURVE",
"698 1335 OFFCURVE",
"728 1319 CURVE",
"841 1522 LINE",
"785 1552 OFFCURVE",
"722 1567 OFFCURVE",
"650 1567 CURVE SMOOTH"
);
},
{
closed = 1;
nodes = (
"797 1114 LINE",
"560 0 LINE",
"826 0 LINE",
"1063 1114 LINE"
);
},
{
closed = 1;
nodes = (
"932 1548 OFFCURVE",
"867 1493 OFFCURVE",
"848 1405 CURVE SMOOTH",
"829 1314 OFFCURVE",
"876 1262 OFFCURVE",
"964 1262 CURVE SMOOTH",
"1048 1262 OFFCURVE",
"1118 1314 OFFCURVE",
"1137 1405 CURVE SMOOTH",
"1156 1493 OFFCURVE",
"1111 1548 OFFCURVE",
"1024 1548 CURVE SMOOTH"
);
}
);
width = 1108;
}
);
unicode = FB01;
},
{
glyphname = uniFB02;
lastChange = "2013-03-13 10:44:06 +0200";
layers = (
{
layerId = UUID0;
name = "Bold Italic";
paths = (
{
closed = 1;
nodes = (
"422 1567 OFFCURVE",
"299 1448 OFFCURVE",
"247 1200 CURVE SMOOTH",
"229 1116 LINE",
"83 1036 LINE",
"54 903 LINE",
"183 903 LINE",
"-9 0 LINE",
"257 0 LINE",
"449 903 LINE",
"633 903 LINE",
"678 1114 LINE",
"494 1114 LINE",
"512 1196 LINE SMOOTH",
"533 1296 OFFCURVE",
"570 1343 OFFCURVE",
"631 1343 CURVE SMOOTH",
"666 1343 OFFCURVE",
"698 1335 OFFCURVE",
"728 1319 CURVE",
"841 1522 LINE",
"785 1552 OFFCURVE",
"722 1567 OFFCURVE",
"650 1567 CURVE SMOOTH"
);
},
{
closed = 1;
nodes = (
"889 1556 LINE",
"558 0 LINE",
"824 0 LINE",
"1155 1556 LINE"
);
}
);
width = 1102;
}
);
unicode = FB02;
},
{
glyphname = ordfeminine;
lastChange = "2013-03-13 10:44:06 +0200";
layers = (
{
layerId = UUID0;
name = "Bold Italic";
paths = (
{
closed = 1;
nodes = (
"344 1479 OFFCURVE",
"252 1453 OFFCURVE",
"156 1401 CURVE",
"185 1274 LINE",
"256 1312 OFFCURVE",
"314 1331 OFFCURVE",
"360 1331 CURVE SMOOTH",
"429 1331 OFFCURVE",
"455 1291 OFFCURVE",
"438 1212 CURVE SMOOTH",
"436 1204 LINE",
"353 1200 LINE SMOOTH",
"156 1189 OFFCURVE",
"58 1121 OFFCURVE",
"27 977 CURVE SMOOTH",
"-5 826 OFFCURVE",
"56 758 OFFCURVE",
"175 758 CURVE SMOOTH",
"255 758 OFFCURVE",
"332 801 OFFCURVE",
"390 874 CURVE",
"395 770 LINE",
"512 770 LINE",
"607 1217 LINE SMOOTH",
"642 1384 OFFCURVE",
"584 1479 OFFCURVE",
"429 1479 CURVE SMOOTH"
);
},
{
closed = 1;
nodes = (
"404 1053 LINE SMOOTH",
"384 957 OFFCURVE",
"323 901 OFFCURVE",
"247 901 CURVE SMOOTH",
"204 901 OFFCURVE",
"188 927 OFFCURVE",
"199 979 CURVE SMOOTH",
"214 1047 OFFCURVE",
"260 1078 OFFCURVE",
"339 1085 CURVE SMOOTH",
"412 1092 LINE"
);
}
);
width = 682;
}
);
unicode = 00AA;
},
{
glyphname = ordmasculine;
lastChange = "2013-03-13 10:44:06 +0200";
layers = (
{
layerId = UUID0;
name = "Bold Italic";
paths = (
{
closed = 1;
nodes = (
"332 1479 OFFCURVE",
"256 1447 OFFCURVE",
"192 1384 CURVE SMOOTH",
"129 1321 OFFCURVE",
"85 1233 OFFCURVE",
"61 1120 CURVE SMOOTH",
"38 1010 OFFCURVE",
"44 922 OFFCURVE",
"80 856 CURVE SMOOTH",
"117 791 OFFCURVE",
"178 758 OFFCURVE",
"265 758 CURVE SMOOTH",
"352 758 OFFCURVE",
"428 790 OFFCURVE",
"493 853 CURVE SMOOTH",
"557 917 OFFCURVE",
"601 1006 OFFCURVE",
"625 1120 CURVE SMOOTH",
"649 1231 OFFCURVE",
"641 1318 OFFCURVE",
"604 1382 CURVE SMOOTH",
"567 1447 OFFCURVE",
"506 1479 OFFCURVE",
"421 1479 CURVE SMOOTH"
);
},
{
closed = 1;
nodes = (
"464 1325 OFFCURVE",
"483 1261 OFFCURVE",
"453 1120 CURVE SMOOTH",
"423 979 OFFCURVE",
"376 911 OFFCURVE",
"300 911 CURVE SMOOTH",
"224 911 OFFCURVE",
"203 979 OFFCURVE",
"233 1120 CURVE SMOOTH",
"263 1261 OFFCURVE",
"312 1325 OFFCURVE",
"388 1325 CURVE SMOOTH"
);
}
);
width = 686;
}
);
unicode = 00BA;
},
{
glyphname = "alef-hb";
lastChange = "2013-03-13 10:44:06 +0200";
layers = (
{
anchors = (
{
name = bottom;
position = "{375, 0}";
},
{
name = bottomleft;
position = "{-117, 0}";
},
{
name = center;
position = "{349, 60}";
},
{
name = top;
position = "{613, 1118}";
},
{
name = topleft;
position = "{234, 1118}";
}
);
layerId = UUID0;
name = "Bold Italic";
paths = (
{
closed = 1;
nodes = (
"841 1290 LINE",
"742 825 LINE SMOOTH",
"725 749 OFFCURVE",
"700 696 OFFCURVE",
"650 664 CURVE",
"603 848 LINE",
"505 1290 LINE",
"198 1290 LINE",
"331 819 LINE",
"129 742 OFFCURVE",
"75 593 OFFCURVE",
"47 461 CURVE SMOOTH",
"-51 0 LINE",
"214 0 LINE",
"313 464 LINE SMOOTH",
"327 530 OFFCURVE",
"348 580 OFFCURVE",
"387 612 CURVE",
"514 0 LINE",
"822 0 LINE",
"702 462 LINE",
"921 536 OFFCURVE",
"979 691 OFFCURVE",
"1008 828 CURVE SMOOTH",
"1106 1290 LINE"
);
}
);
width = 1024;
}
);
unicode = 05D0;
},
{
glyphname = "bet-hb";
lastChange = "2013-03-13 10:44:06 +0200";
layers = (
{
anchors = (
{
name = bottom;
position = "{325, 0}";
},
{
name = bottomleft;
position = "{-119, 0}";
},
{
name = center;
position = "{247, 559}";
},
{
name = top;
position = "{562, 1118}";
},
{
name = topleft;
position = "{255, 1118}";
}
);
layerId = UUID0;
name = "Bold Italic";
paths = (
{
closed = 1;
nodes = (
"342 1310 OFFCURVE",
"220 1294 OFFCURVE",
"220 1294 CURVE",
"173 1076 LINE",
"173 1076 OFFCURVE",
"253 1093 OFFCURVE",
"398 1093 CURVE SMOOTH",
"543 1093 OFFCURVE",
"574 1038 OFFCURVE",
"537 862 CURVE SMOOTH",
"399 215 LINE",
"-10 215 LINE SMOOTH",
"-10 215 OFFCURVE",
"-55 0 OFFCURVE",
"-55 0 CURVE",
"755 0 LINE",
"755 0 OFFCURVE",
"800 215 OFFCURVE",
"800 215 CURVE SMOOTH",
"666 215 LINE",
"804 861 LINE SMOOTH",
"866 1152 OFFCURVE",
"842 1310 OFFCURVE",
"483 1310 CURVE SMOOTH"
);
}
);
width = 927;
}
);
unicode = 05D1;
},
{
glyphname = "gimel-hb";
lastChange = "2013-03-13 10:44:06 +0200";
layers = (
{
anchors = (
{
name = bottom;
position = "{256, 0}";
},
{
name = bottomleft;
position = "{-117, 0}";
},
{
name = center;
position = "{202, 559}";
},
{
name = top;
position = "{494, 1118}";
},
{
name = topleft;
position = "{335, 1118}";
}
);
layerId = UUID0;
name = "Bold Italic";
paths = (
{
closed = 1;
nodes = (
"375 1310 OFFCURVE",
"302 1287 OFFCURVE",
"302 1287 CURVE",
"255 1064 LINE",
"255 1064 OFFCURVE",
"328 1087 OFFCURVE",
"394 1087 CURVE SMOOTH",
"491 1087 OFFCURVE",
"494 1001 OFFCURVE",
"478 926 CURVE SMOOTH",
"393 526 LINE SMOOTH",
"366 402 OFFCURVE",
"338 312 OFFCURVE",
"247 268 CURVE SMOOTH",
"118 206 OFFCURVE",
"-27 237 OFFCURVE",
"-28 238 CURVE",
"-102 -9 LINE",
"-102 -9 OFFCURVE",
"-54 -20 OFFCURVE",
"-3 -20 CURVE SMOOTH",
"230 -20 OFFCURVE",
"335 188 OFFCURVE",
"335 188 CURVE",
"350 188 LINE",
"350 188 OFFCURVE",
"355 0 OFFCURVE",
"355 0 CURVE",
"547 0 LINE",
"744 926 LINE SMOOTH",
"792 1152 OFFCURVE",
"781 1310 OFFCURVE",
"477 1310 CURVE SMOOTH"
);
}
);
width = 786;
}
);
unicode = 05D2;
},
{
glyphname = "dalet-hb";
lastChange = "2013-03-13 10:44:06 +0200";
layers = (
{
anchors = (
{
name = bottom;
position = "{416, 0}";
},
{
name = bottomleft;
position = "{-117, 0}";
},
{
name = center;
position = "{195, 559}";
},
{
name = top;
position = "{523, 1118}";
},
{
name = topleft;
position = "{209, 1118}";
}
);
layerId = UUID0;
name = "Bold Italic";
paths = (
{
closed = 1;
nodes = (
"164 1290 LINE",
"118 1075 LINE",
"650 1075 LINE",
"649 1068 LINE",
"649 1068 OFFCURVE",
"488 1021 OFFCURVE",
"446 826 CURVE SMOOTH",
"271 0 LINE",
"537 0 LINE",
"711 819 LINE SMOOTH",
"737 941 OFFCURVE",
"796 1045 OFFCURVE",
"920 1087 CURVE",
"963 1290 LINE"
);
}
);
width = 844;
}
);
unicode = 05D3;
},
{
glyphname = "he-hb";
lastChange = "2013-03-13 10:44:06 +0200";
layers = (
{
anchors = (
{
name = bottom;
position = "{380, 0}";
},
{
name = bottomleft;
position = "{-119, 0}";
},
{
name = center;
position = "{505, 559}";
},
{
name = top;
position = "{617, 1118}";
},
{
name = topleft;
position = "{278, 1118}";
}
);
layerId = UUID0;
name = "Bold Italic";
paths = (
{
closed = 1;
nodes = (
"395 1310 OFFCURVE",
"243 1267 OFFCURVE",
"243 1267 CURVE",
"198 1054 LINE",
"198 1054 OFFCURVE",
"408 1093 OFFCURVE",
"573 1093 CURVE SMOOTH",
"718 1093 OFFCURVE",
"750 1038 OFFCURVE",
"713 862 CURVE SMOOTH",
"530 0 LINE",
"797 0 LINE",
"980 861 LINE SMOOTH",
"1042 1152 OFFCURVE",
"1017 1310 OFFCURVE",
"658 1310 CURVE SMOOTH"
);
},
{
closed = 1;
nodes = (
"149 823 LINE",
"-26 0 LINE",
"241 0 LINE",
"416 823 LINE"
);
}
);
width = 1038;
}
);
unicode = 05D4;
},
{
glyphname = "vav-hb";
lastChange = "2013-03-13 10:44:06 +0200";
layers = (
{
anchors = (
{
name = bottom;
position = "{109, 0}";
},
{
name = bottomleft;
position = "{-117, 0}";
},
{
name = center;
position = "{-4, 559}";
},
{
name = top;
position = "{347, 1118}";
},
{
name = topleft;
position = "{281, 1118}";
}
);
layerId = UUID0;
name = "Bold Italic";
paths = (
{
closed = 1;
nodes = (
"250 1290 LINE",
"-24 0 LINE",
"242 0 LINE",
"516 1290 LINE"
);
}
);
width = 492;
}
);
unicode = 05D5;
},
{
glyphname = "zayin-hb";
lastChange = "2013-03-13 10:44:06 +0200";
layers = (
{
anchors = (
{
name = bottom;
position = "{148, 0}";
},
{
name = bottomleft;
position = "{-117, 0}";
},
{
name = center;
position = "{-8, 559}";
},
{
name = top;
position = "{386, 1118}";
},
{
name = topleft;
position = "{268, 1118}";
}
);
layerId = UUID0;
name = "Bold Italic";
paths = (
{
closed = 1;
nodes = (
"235 1290 LINE",
"189 1075 LINE",
"443 1075 LINE",
"442 1068 LINE",
"442 1068 OFFCURVE",
"196 943 OFFCURVE",
"88 434 CURVE SMOOTH",
"-4 0 LINE",
"262 0 LINE",
"354 434 LINE SMOOTH",
"391 606 OFFCURVE",
"432 788 OFFCURVE",
"554 966 CURVE SMOOTH",
"605 1041 OFFCURVE",
"632 1075 OFFCURVE",
"632 1075 CURVE",
"678 1290 LINE"
);
}
);
width = 570;
}
);
unicode = 05D6;
},
{
glyphname = "het-hb";
lastChange = "2013-03-13 10:44:06 +0200";
layers = (
{
anchors = (
{
name = bottom;
position = "{380, 0}";
},
{
name = bottomleft;
position = "{-119, 0}";
},
{
name = center;
position = "{499, 559}";
},
{
name = top;
position = "{617, 1118}";
},
{
name = topleft;
position = "{271, 1118}";
}
);
layerId = UUID0;
name = "Bold Italic";
paths = (
{
closed = 1;
nodes = (
"455 1310 OFFCURVE",
"289 1276 OFFCURVE",
"243 1267 CURVE",
"-26 0 LINE",
"241 0 LINE",
"471 1084 LINE",
"500 1088 OFFCURVE",
"540 1093 OFFCURVE",
"573 1093 CURVE SMOOTH",
"718 1093 OFFCURVE",
"750 1038 OFFCURVE",
"713 862 CURVE SMOOTH",
"530 0 LINE",
"797 0 LINE",
"980 861 LINE SMOOTH",
"1042 1152 OFFCURVE",
"1017 1310 OFFCURVE",
"658 1310 CURVE SMOOTH"
);
}
);
width = 1038;
}
);
unicode = 05D7;
},
{
glyphname = "tet-hb";
lastChange = "2013-03-13 10:44:06 +0200";
layers = (
{
anchors = (
{
name = bottom;
position = "{382, 0}";
},
{
name = bottomleft;
position = "{-117, 0}";
},
{
name = center;
position = "{501, 559}";
},
{
name = top;
position = "{620, 1118}";
},
{
name = topleft;
position = "{268, 1118}";
}
);
layerId = UUID0;
name = "Bold Italic";
paths = (
{
closed = 1;
nodes = (
"655 1310 OFFCURVE",
"604 1301 OFFCURVE",
"604 1301 CURVE",
"559 1087 LINE",
"559 1087 OFFCURVE",
"604 1093 OFFCURVE",
"628 1093 CURVE SMOOTH",
"718 1093 OFFCURVE",
"768 1004 OFFCURVE",
"692 646 CURVE SMOOTH",
"616 288 OFFCURVE",
"528 197 OFFCURVE",
"438 197 CURVE SMOOTH",
"348 197 OFFCURVE",
"299 288 OFFCURVE",
"374 646 CURVE SMOOTH",
"510 1288 LINE",
"510 1288 OFFCURVE",
"239 1288 OFFCURVE",
"239 1288 CURVE",
"102 645 LINE SMOOTH",
"-21 64 OFFCURVE",
"253 -20 OFFCURVE",
"392 -20 CURVE SMOOTH",
"531 -20 OFFCURVE",
"841 64 OFFCURVE",
"964 646 CURVE SMOOTH",
"1023 921 OFFCURVE",
"1021 1310 OFFCURVE",
"705 1310 CURVE SMOOTH"
);
}
);
width = 1038;
}
);
unicode = 05D8;
},
{
glyphname = "yod-hb";
lastChange = "2013-03-13 10:44:06 +0200";
layers = (
{
anchors = (
{
name = bottom;
position = "{109, 0}";
},
{
name = bottomleft;
position = "{-117, 0}";
},
{
name = center;
position = "{44, 787}";
},
{
name = top;
position = "{346, 1118}";
},
{
name = topleft;
position = "{307, 1118}";
}
);
layerId = UUID0;
name = "Bold Italic";
paths = (
{
closed = 1;
nodes = (
"250 1290 LINE",
"68 436 LINE",
"170 436 LINE",
"389 694 LINE",
"516 1290 LINE"
);
}
);
width = 492;
}
);
unicode = 05D9;
},
{
glyphname = "finalkaf-hb";
lastChange = "2013-03-13 10:44:06 +0200";
layers = (
{
anchors = (
{
name = bottom;
position = "{24, 407}";
},
{
name = bottomleft;
position = "{-117, 0}";
},
{
name = center;
position = "{195, 559}";
},
{
name = top;
position = "{521, 1118}";
},
{
name = topleft;
position = "{234, 1118}";
}
);
layerId = UUID0;
name = "Bold Italic";
paths = (
{
closed = 1;
nodes = (
"334 1310 OFFCURVE",
"260 1298 OFFCURVE",
"191 1283 CURVE",
"144 1061 LINE",
"209 1070 OFFCURVE",
"300 1082 OFFCURVE",
"380 1082 CURVE SMOOTH",
"507 1082 OFFCURVE",
"510 913 OFFCURVE",
"473 737 CURVE SMOOTH",
"211 -492 LINE",
"477 -492 LINE",
"739 737 LINE SMOOTH",
"801 1028 OFFCURVE",
"791 1310 OFFCURVE",
"450 1310 CURVE SMOOTH"
);
}
);
width = 821;
}
);
unicode = 05DA;
},
{
glyphname = "kaf-hb";
lastChange = "2013-03-13 10:44:06 +0200";
layers = (
{
anchors = (
{
name = bottom;
position = "{260, 0}";
},
{
name = bottomleft;
position = "{-117, 0}";
},
{
name = center;
position = "{195, 559}";
},
{
name = top;
position = "{498, 1118}";
},
{
name = topleft;
position = "{228, 1118}";
}
);
layerId = UUID0;
name = "Bold Italic";
paths = (
{
closed = 1;
nodes = (
"333 1310 OFFCURVE",
"260 1298 OFFCURVE",
"191 1283 CURVE",
"144 1066 LINE",
"242 1076 OFFCURVE",
"300 1082 OFFCURVE",
"380 1082 CURVE SMOOTH",
"507 1082 OFFCURVE",
"503 913 OFFCURVE",
"466 737 CURVE SMOOTH",
"420 522 LINE SMOOTH",
"381 339 OFFCURVE",
"313 208 OFFCURVE",
"194 208 CURVE SMOOTH",
"101 208 OFFCURVE",
"27 222 OFFCURVE",
"-31 241 CURVE",
"-80 11 LINE",
"-24 -7 OFFCURVE",
"86 -20 OFFCURVE",
"167 -20 CURVE SMOOTH",
"488 -20 OFFCURVE",
"638 263 OFFCURVE",
"693 522 CURVE SMOOTH",
"739 737 LINE SMOOTH",
"800 1028 OFFCURVE",
"790 1310 OFFCURVE",
"449 1310 CURVE SMOOTH"
);
}
);
width = 793;
}
);
unicode = 05DB;
},
{
glyphname = "lamed-hb";
lastChange = "2013-03-13 10:44:06 +0200";
layers = (
{
anchors = (
{
name = bottom;
position = "{279, 0}";
},
{
name = bottomleft;
position = "{-113, 0}";
},
{
name = center;
position = "{138, 559}";
},
{
name = top;
position = "{516, 1118}";
},
{
name = topleft;
position = "{11, 1118}";
}
);
layerId = UUID0;
name = "Bold Italic";
paths = (
{
closed = 1;
nodes = (
"240 1556 LINE",
"138 1075 LINE",
"607 1075 LINE",
"325 497 LINE",
"325 497 OFFCURVE",
"118 0 OFFCURVE",
"118 0 CURVE",
"376 0 LINE",
"583 497 LINE",
"883 1110 LINE",
"921 1290 LINE",
"450 1290 LINE",
"506 1556 LINE"
);
}
);
width = 823;
}
);
unicode = 05DC;
},
{
glyphname = "finalmem-hb";
lastChange = "2013-03-13 10:44:06 +0200";
layers = (
{
anchors = (
{
name = bottom;
position = "{380, 0}";
},
{
name = bottomleft;
position = "{-119, 0}";
},
{
name = center;
position = "{499, 559}";
},
{
name = top;
position = "{617, 1118}";
},
{
name = topleft;
position = "{278, 1118}";
}
);
layerId = UUID0;
name = "Bold Italic";
paths = (
{
closed = 1;
nodes = (
"455 1310 OFFCURVE",
"292 1291 OFFCURVE",
"246 1282 CURVE",
"-26 0 LINE",
"797 0 LINE",
"980 861 LINE SMOOTH",
"1042 1152 OFFCURVE",
"1017 1310 OFFCURVE",
"658 1310 CURVE SMOOTH"
);
},
{
closed = 1;
nodes = (
"718 1093 OFFCURVE",
"750 1038 OFFCURVE",
"713 862 CURVE SMOOTH",
"575 215 LINE",
"286 215 LINE",
"472 1089 LINE",
"501 1093 OFFCURVE",
"540 1093 OFFCURVE",
"573 1093 CURVE SMOOTH"
);
}
);
width = 1038;
}
);
unicode = 05DD;
},
{
glyphname = "mem-hb";
lastChange = "2013-03-13 10:44:06 +0200";
layers = (
{
anchors = (
{
name = bottom;
position = "{402, 0}";
},
{
name = bottomleft;
position = "{-119, 0}";
},
{
name = center;
position = "{521, 559}";
},
{
name = top;
position = "{639, 1118}";
},
{
name = topleft;
position = "{205, 1118}";
}
);
layerId = UUID0;
name = "Bold Italic";
paths = (
{
closed = 1;
nodes = (
"570 1310 OFFCURVE",
"459 1111 OFFCURVE",
"459 1111 CURVE SMOOTH",
"445 1111 LINE SMOOTH",
"445 1111 OFFCURVE",
"447 1145 OFFCURVE",
"443 1200 CURVE SMOOTH",
"439 1252 OFFCURVE",
"432 1290 OFFCURVE",
"432 1290 CURVE SMOOTH",
"179 1290 LINE SMOOTH",
"179 1290 OFFCURVE",
"185 1257 OFFCURVE",
"191 1176 CURVE SMOOTH",
"198 1081 OFFCURVE",
"197 983 OFFCURVE",
"152 837 CURVE SMOOTH",
"-96 0 LINE",
"169 0 LINE",
"431 878 LINE",
"431 878 OFFCURVE",
"528 1086 OFFCURVE",
"667 1086 CURVE SMOOTH",
"804 1086 OFFCURVE",
"754 842 OFFCURVE",
"733 746 CURVE SMOOTH",
"620 215 LINE",
"380 215 LINE SMOOTH",
"380 215 OFFCURVE",
"335 0 OFFCURVE",
"335 0 CURVE",
"841 0 LINE",
"1000 748 LINE SMOOTH",
"1061 1038 OFFCURVE",
"1074 1310 OFFCURVE",
"806 1310 CURVE SMOOTH"
);
}
);
width = 1082;
}
);
unicode = 05DE;
},
{
glyphname = "finalnun-hb";
lastChange = "2013-03-13 10:44:06 +0200";
layers = (
{
anchors = (
{
name = bottom;
position = "{-336, 393}";
},
{
name = bottomleft;
position = "{-113, 0}";
},
{
name = center;
position = "{-87, 559}";
},
{
name = top;
position = "{342, 1118}";
},
{
name = topleft;
position = "{243, 1123}";
}
);
layerId = UUID0;
name = "Bold Italic";
paths = (
{
closed = 1;
nodes = (
"177 1290 LINE SMOOTH",
"177 1290 OFFCURVE",
"200 1123 OFFCURVE",
"137 825 CURVE SMOOTH",
"113 714 OFFCURVE",
"-143 -492 OFFCURVE",
"-143 -492 CURVE",
"123 -492 LINE",
"403 825 LINE SMOOTH",
"466 1123 OFFCURVE",
"443 1290 OFFCURVE",
"443 1290 CURVE SMOOTH"
);
}
);
width = 473;
}
);
unicode = 05DF;
},
{
glyphname = "nun-hb";
lastChange = "2013-03-13 10:44:06 +0200";
layers = (
{
anchors = (
{
name = bottom;
position = "{219, 0}";
},
{
name = bottomleft;
position = "{-119, 0}";
},
{
name = center;
position = "{87, 559}";
},
{
name = top;
position = "{456, 1118}";
},
{
name = topleft;
position = "{251, 1118}";
}
);
layerId = UUID0;
name = "Bold Italic";
paths = (
{
closed = 1;
nodes = (
"317 1310 OFFCURVE",
"271 1297 OFFCURVE",
"237 1290 CURVE",
"190 1068 LINE",
"222 1075 OFFCURVE",
"258 1087 OFFCURVE",
"321 1087 CURVE SMOOTH",
"424 1087 OFFCURVE",
"421 1001 OFFCURVE",
"405 926 CURVE SMOOTH",
"302 445 LINE SMOOTH",
"270 292 OFFCURVE",
"235 215 OFFCURVE",
"235 215 CURVE SMOOTH",
"-51 215 LINE",
"-96 0 LINE",
"424 0 LINE",
"424 0 OFFCURVE",
"507 154 OFFCURVE",
"551 365 CURVE SMOOTH",
"671 926 LINE SMOOTH",
"719 1152 OFFCURVE",
"718 1310 OFFCURVE",
"404 1310 CURVE SMOOTH"
);
}
);
width = 715;
}
);
unicode = 05E0;
},
{
glyphname = "samekh-hb";
lastChange = "2013-03-13 10:44:06 +0200";
layers = (
{
anchors = (
{
name = bottom;
position = "{368, 0}";
},
{
name = bottomleft;
position = "{-117, 0}";
},
{
name = center;
position = "{487, 559}";
},
{
name = top;
position = "{606, 1118}";
},
{
name = topleft;
position = "{254, 1118}";
}
);
layerId = UUID0;
name = "Bold Italic";
paths = (
{
closed = 1;
nodes = (
"404 1310 OFFCURVE",
"222 1282 OFFCURVE",
"222 1282 CURVE",
"177 1069 LINE",
"311 1078 LINE",
"309 1070 LINE",
"224 1004 OFFCURVE",
"111 817 OFFCURVE",
"74 646 CURVE SMOOTH",
"-49 64 OFFCURVE",
"225 -20 OFFCURVE",
"364 -20 CURVE SMOOTH",
"503 -20 OFFCURVE",
"813 64 OFFCURVE",
"936 646 CURVE SMOOTH",
"1060 1228 OFFCURVE",
"785 1310 OFFCURVE",
"646 1310 CURVE SMOOTH"
);
},
{
closed = 1;
nodes = (
"690 1093 OFFCURVE",
"740 1004 OFFCURVE",
"664 646 CURVE SMOOTH",
"588 288 OFFCURVE",
"500 197 OFFCURVE",
"410 197 CURVE SMOOTH",
"320 197 OFFCURVE",
"270 288 OFFCURVE",
"346 646 CURVE SMOOTH",
"389 846 OFFCURVE",
"434 983 OFFCURVE",
"528 1084 CURVE",
"528 1084 OFFCURVE",
"561 1093 OFFCURVE",
"600 1093 CURVE SMOOTH"
);
}
);
width = 1010;
}
);
unicode = 05E1;
},
{
glyphname = "ayin-hb";
lastChange = "2013-03-13 10:44:06 +0200";
layers = (
{
anchors = (
{
name = bottom;
position = "{355, 0}";
},
{
name = bottomleft;
position = "{-111, 0}";
},
{
name = center;
position = "{514, 659}";
},
{
name = top;
position = "{593, 1118}";
},
{
name = topleft;
position = "{224, 1118}";
}
);
layerId = UUID0;
name = "Bold Italic";
paths = (
{
closed = 1;
nodes = (
"186 1290 LINE",
"173 200 LINE",
"-45 158 LINE",
"-91 -60 LINE",
"203 -4 LINE SMOOTH",
"707 92 OFFCURVE",
"837 498 OFFCURVE",
"900 711 CURVE SMOOTH",
"1073 1289 LINE",
"806 1289 LINE",
"621 667 LINE SMOOTH",
"583 540 OFFCURVE",
"503 402 OFFCURVE",
"405 311 CURVE",
"437 708 LINE",
"451 1290 LINE"
);
}
);
width = 972;
}
);
unicode = 05E2;
},
{
glyphname = "finalpe-hb";
lastChange = "2013-03-13 10:44:06 +0200";
layers = (
{
anchors = (
{
name = bottom;
position = "{187, 393}";
},
{
name = bottomleft;
position = "{-117, 0}";
},
{
name = center;
position = "{533, 787}";
},
{
name = top;
position = "{604, 1118}";
},
{
name = topleft;
position = "{261, 1118}";
}
);
layerId = UUID0;
name = "Bold Italic";
paths = (
{
closed = 1;
nodes = (
"401 1310 OFFCURVE",
"164 1162 OFFCURVE",
"98 853 CURVE SMOOTH",
"28 522 OFFCURVE",
"216 452 OFFCURVE",
"356 433 CURVE SMOOTH",
"408 426 LINE",
"503 636 LINE",
"467 643 LINE SMOOTH",
"382 659 OFFCURVE",
"341 721 OFFCURVE",
"372 864 CURVE SMOOTH",
"379 898 OFFCURVE",
"429 1093 OFFCURVE",
"567 1093 CURVE SMOOTH",
"657 1093 OFFCURVE",
"713 1004 OFFCURVE",
"637 646 CURVE SMOOTH",
"395 -492 LINE",
"395 -492 OFFCURVE",
"661 -492 OFFCURVE",
"661 -492 CURVE",
"903 646 LINE SMOOTH",
"1027 1228 OFFCURVE",
"753 1310 OFFCURVE",
"614 1310 CURVE SMOOTH"
);
}
);
width = 1005;
}
);
unicode = 05E3;
},
{
glyphname = "pe-hb";
lastChange = "2013-03-13 10:44:06 +0200";
layers = (
{
anchors = (
{
name = bottom;
position = "{351, 0}";
},
{
name = bottomleft;
position = "{-117, 0}";
},
{
name = center;
position = "{509, 787}";
},
{
name = top;
position = "{589, 1118}";
},
{
name = topleft;
position = "{234, 1118}";
}
);
layerId = UUID0;
name = "Bold Italic";
paths = (
{
closed = 1;
nodes = (
"400 1310 OFFCURVE",
"164 1162 OFFCURVE",
"98 853 CURVE SMOOTH",
"28 522 OFFCURVE",
"216 452 OFFCURVE",
"356 433 CURVE SMOOTH",
"407 426 LINE",
"503 636 LINE",
"467 643 LINE SMOOTH",
"382 659 OFFCURVE",
"341 721 OFFCURVE",
"372 864 CURVE SMOOTH",
"379 898 OFFCURVE",
"429 1093 OFFCURVE",
"567 1093 CURVE SMOOTH",
"657 1093 OFFCURVE",
"707 1004 OFFCURVE",
"631 646 CURVE SMOOTH",
"555 288 OFFCURVE",
"467 197 OFFCURVE",
"377 197 CURVE SMOOTH",
"261 197 OFFCURVE",
"75 232 OFFCURVE",
"75 232 CURVE",
"28 8 LINE",
"28 8 OFFCURVE",
"145 -20 OFFCURVE",
"331 -20 CURVE SMOOTH",
"470 -20 OFFCURVE",
"780 64 OFFCURVE",
"903 646 CURVE SMOOTH",
"1027 1228 OFFCURVE",
"752 1310 OFFCURVE",
"613 1310 CURVE SMOOTH"
);
}
);
width = 976;
}
);
unicode = 05E4;
},
{
glyphname = "finaltsadi-hb";
lastChange = "2013-03-13 10:44:06 +0200";
layers = (
{
anchors = (
{
name = bottom;
position = "{-229, 413}";
},
{
name = bottomleft;
position = "{-117, 0}";
},
{
name = center;
position = "{537, 933}";
},
{
name = top;
position = "{576, 1118}";
},
{
name = topleft;
position = "{194, 1118}";
}
);
layerId = UUID0;
name = "Bold Italic";
paths = (
{
closed = 1;
nodes = (
"746 1290 LINE",
"644 807 LINE SMOOTH",
"616 676 OFFCURVE",
"561 625 OFFCURVE",
"456 625 CURVE SMOOTH",
"443 625 OFFCURVE",
"432 625 OFFCURVE",
"432 625 CURVE",
"434 661 LINE",
"444 1290 LINE",
"149 1290 LINE",
"187 577 LINE",
"-40 -492 LINE",
"226 -492 LINE",
"423 435 LINE",
"423 435 OFFCURVE",
"409 435 OFFCURVE",
"439 435 CURVE SMOOTH",
"756 435 OFFCURVE",
"870 622 OFFCURVE",
"910 810 CURVE SMOOTH",
"1012 1290 LINE"
);
}
);
width = 949;
}
);
unicode = 05E5;
},
{
glyphname = "tsadi-hb";
lastChange = "2013-03-13 10:44:06 +0200";
layers = (
{
anchors = (
{
name = bottom;
position = "{365, 0}";
},
{
name = bottomleft;
position = "{-117, 0}";
},
{
name = center;
position = "{162, 407}";
},
{
name = top;
position = "{603, 1118}";
},
{
name = topleft;
position = "{214, 1118}";
}
);
layerId = UUID0;
name = "Bold Italic";
paths = (
{
closed = 1;
nodes = (
"195 1290 LINE",
"380 459 LINE",
"492 205 LINE",
"492 201 LINE",
"323 215 LINE",
"-23 215 LINE",
"-69 0 LINE",
"762 0 LINE",
"795 158 LINE",
"656 492 LINE",
"907 665 OFFCURVE",
"990 935 OFFCURVE",
"1025 1051 CURVE SMOOTH",
"1097 1289 LINE",
"830 1289 LINE",
"746 1007 LINE SMOOTH",
"699 853 OFFCURVE",
"647 789 OFFCURVE",
"589 731 CURVE",
"472 1290 LINE"
);
}
);
width = 1003;
}
);
unicode = 05E6;
},
{
glyphname = "qof-hb";
lastChange = "2013-03-13 10:57:41 +0200";
layers = (
{
anchors = (
{
name = bottom;
position = "{683, 0}";
},
{
name = bottomleft;
position = "{-117, 0}";
},
{
name = center;
position = "{524, 685}";
},
{
name = top;
position = "{630, 1118}";
},
{
name = topleft;
position = "{308, 1118}";
}
);
layerId = UUID0;
name = "Bold Italic";
paths = (
{
closed = 1;
nodes = (
"271 1290 LINE",
"226 1075 LINE",
"818 1075 LINE",
"549 505 LINE SMOOTH",
"475 353 OFFCURVE",
"400 170 OFFCURVE",
"372 34 CURVE SMOOTH",
"364 0 LINE",
"628 0 LINE",
"636 34 LINE SMOOTH",
"663 161 OFFCURVE",
"735 319 OFFCURVE",
"828 515 CURVE SMOOTH",
"1116 1124 LINE",
"1151 1290 LINE"
);
},
{
closed = 1;
nodes = (
"161 772 LINE",
"-107 -493 LINE",
"159 -493 LINE",
"427 772 LINE"
);
}
);
width = 1057;
}
);
unicode = 05E7;
},
{
glyphname = "resh-hb";
lastChange = "2013-03-13 10:44:06 +0200";
layers = (
{
anchors = (
{
name = bottom;
position = "{454, 0}";
},
{
name = bottomleft;
position = "{-119, 0}";
},
{
name = center;
position = "{213, 559}";
},
{
name = top;
position = "{509, 1118}";
},
{
name = topleft;
position = "{231, 1118}";
}
);
layerId = UUID0;
name = "Bold Italic";
paths = (
{
closed = 1;
nodes = (
"309 1310 OFFCURVE",
"270 1304 OFFCURVE",
"179 1295 CURVE",
"133 1078 LINE",
"225 1087 OFFCURVE",
"268 1093 OFFCURVE",
"357 1093 CURVE SMOOTH",
"517 1093 OFFCURVE",
"531 1020 OFFCURVE",
"497 862 CURVE SMOOTH",
"314 0 LINE",
"581 0 LINE",
"764 861 LINE SMOOTH",
"826 1152 OFFCURVE",
"800 1310 OFFCURVE",
"442 1310 CURVE SMOOTH"
);
}
);
width = 822;
}
);
unicode = 05E8;
},
{
glyphname = "shin-hb";
lastChange = "2013-03-13 10:44:06 +0200";
layers = (
{
anchors = (
{
name = bottom;
position = "{509, 0}";
},
{
name = bottomleft;
position = "{-117, 0}";
},
{
name = center;
position = "{575, 313}";
},
{
name = top;
position = "{747, 1118}";
},
{
name = topleft;
position = "{228, 1118}";
},
{
name = topright;
position = "{1278, 1118}";
}
);
layerId = UUID0;
name = "Bold Italic";
paths = (
{
closed = 1;
nodes = (
"1126 1290 LINE",
"956 710 LINE SMOOTH",
"866 406 OFFCURVE",
"676 215 OFFCURVE",
"418 215 CURVE SMOOTH",
"306 215 LINE",
"334 436 LINE",
"630 447 OFFCURVE",
"747 628 OFFCURVE",
"800 810 CURVE SMOOTH",
"939 1290 LINE",
"676 1290 LINE",
"535 807 LINE SMOOTH",
"499 684 OFFCURVE",
"451 632 OFFCURVE",
"359 626 CURVE",
"445 1290 LINE",
"180 1290 LINE",
"9 0 LINE",
"372 0 LINE SMOOTH",
"994 0 OFFCURVE",
"1169 539 OFFCURVE",
"1220 711 CURVE SMOOTH",
"1391 1290 LINE"
);
}
);
width = 1291;
}
);
unicode = 05E9;
},
{
glyphname = "tav-hb";
lastChange = "2013-03-13 10:44:06 +0200";
layers = (
{
anchors = (
{
name = bottom;
position = "{396, 0}";
},
{
name = bottomleft;
position = "{-117, 0}";
},
{
name = center;
position = "{555, 559}";
},
{
name = top;
position = "{634, 1118}";
},
{
name = topleft;
position = "{274, 1118}";
}
);
layerId = UUID0;
name = "Bold Italic";
paths = (
{
closed = 1;
nodes = (
"402 1310 OFFCURVE",
"218 1262 OFFCURVE",
"218 1262 CURVE",
"173 1049 LINE",
"273 1068 LINE",
"123 364 LINE SMOOTH",
"107 288 OFFCURVE",
"84 203 OFFCURVE",
"8 203 CURVE SMOOTH",
"-31 203 OFFCURVE",
"-58 221 OFFCURVE",
"-58 221 CURVE",
"-104 7 LINE",
"-104 7 OFFCURVE",
"-54 -20 OFFCURVE",
"14 -20 CURVE SMOOTH",
"298 -20 OFFCURVE",
"342 138 OFFCURVE",
"390 364 CURVE SMOOTH",
"545 1092 LINE",
"589 1094 OFFCURVE",
"565 1093 OFFCURVE",
"602 1093 CURVE SMOOTH",
"747 1093 OFFCURVE",
"780 1038 OFFCURVE",
"742 862 CURVE SMOOTH",
"559 0 LINE",
"826 0 LINE",
"1009 861 LINE SMOOTH",
"1071 1152 OFFCURVE",
"1046 1310 OFFCURVE",
"687 1310 CURVE SMOOTH"
);
}
);
width = 1065;
}
);
unicode = 05EA;
},
{
glyphname = zero;
lastChange = "2013-03-13 10:44:06 +0200";
layers = (
{
layerId = UUID0;
name = "Bold Italic";
paths = (
{
closed = 1;
nodes = (
"497 1485 OFFCURVE",
"383 1425 OFFCURVE",
"293 1306 CURVE SMOOTH",
"203 1187 OFFCURVE",
"130 995 OFFCURVE",
"74 731 CURVE SMOOTH",
"18 468 OFFCURVE",
"8 277 OFFCURVE",
"44 158 CURVE SMOOTH",
"81 39 OFFCURVE",
"170 -20 OFFCURVE",
"311 -20 CURVE SMOOTH",
"452 -20 OFFCURVE",
"568 39 OFFCURVE",
"656 157 CURVE SMOOTH",
"745 275 OFFCURVE",
"817 466 OFFCURVE",
"874 731 CURVE SMOOTH",
"931 1000 OFFCURVE",
"941 1193 OFFCURVE",
"903 1310 CURVE SMOOTH",
"865 1427 OFFCURVE",
"776 1485 OFFCURVE",
"635 1485 CURVE SMOOTH"
);
},
{
closed = 1;
nodes = (
"633 1253 OFFCURVE",
"658 1216 OFFCURVE",
"661 1143 CURVE SMOOTH",
"665 1070 OFFCURVE",
"644 932 OFFCURVE",
"602 731 CURVE SMOOTH",
"571 588 OFFCURVE",
"544 480 OFFCURVE",
"521 409 CURVE SMOOTH",
"475 268 OFFCURVE",
"429 211 OFFCURVE",
"362 211 CURVE SMOOTH",
"313 211 OFFCURVE",
"287 246 OFFCURVE",
"284 317 CURVE SMOOTH",
"282 388 OFFCURVE",
"302 526 OFFCURVE",
"346 731 CURVE SMOOTH",
"389 933 OFFCURVE",
"427 1070 OFFCURVE",
"459 1143 CURVE SMOOTH",
"493 1216 OFFCURVE",
"535 1253 OFFCURVE",
"584 1253 CURVE SMOOTH"
);
}
);
width = 948;
}
);
unicode = 0030;
},
{
glyphname = one;
lastChange = "2013-03-13 10:44:06 +0200";
layers = (
{
layerId = UUID0;
name = "Bold Italic";
paths = (
{
closed = 1;
nodes = (
"642 1462 LINE",
"177 1102 LINE",
"294 936 LINE",
"398 1024 OFFCURVE",
"469 1085 OFFCURVE",
"505 1119 CURVE SMOOTH",
"543 1153 OFFCURVE",
"564 1173 OFFCURVE",
"570 1180 CURVE",
"536 1059 OFFCURVE",
"508 951 OFFCURVE",
"488 858 CURVE SMOOTH",
"306 0 LINE",
"574 0 LINE",
"884 1462 LINE"
);
}
);
width = 948;
}
);
unicode = 0031;
},
{
glyphname = two;
lastChange = "2013-03-13 10:44:06 +0200";
layers = (
{
layerId = UUID0;
name = "Bold Italic";
paths = (
{
closed = 1;
nodes = (
"539 1483 OFFCURVE",
"470 1468 OFFCURVE",
"404 1439 CURVE SMOOTH",
"338 1410 OFFCURVE",
"261 1355 OFFCURVE",
"175 1276 CURVE",
"293 1116 LINE",
"347 1165 OFFCURVE",
"391 1198 OFFCURVE",
"426 1217 CURVE SMOOTH",
"461 1236 OFFCURVE",
"496 1245 OFFCURVE",
"531 1245 CURVE SMOOTH",
"611 1245 OFFCURVE",
"654 1189 OFFCURVE",
"630 1077 CURVE SMOOTH",
"620 1029 OFFCURVE",
"604 982 OFFCURVE",
"582 937 CURVE SMOOTH",
"559 892 OFFCURVE",
"530 845 OFFCURVE",
"493 796 CURVE SMOOTH",
"455 747 OFFCURVE",
"390 672 OFFCURVE",
"298 571 CURVE SMOOTH",
"-40 203 LINE",
"-84 0 LINE",
"700 0 LINE",
"752 242 LINE",
"273 242 LINE",
"275 250 LINE",
"469 445 OFFCURVE",
"589 569 OFFCURVE",
"638 623 CURVE SMOOTH",
"687 678 OFFCURVE",
"728 730 OFFCURVE",
"762 780 CURVE SMOOTH",
"833 881 OFFCURVE",
"877 978 OFFCURVE",
"901 1090 CURVE SMOOTH",
"927 1213 OFFCURVE",
"915 1310 OFFCURVE",
"863 1379 CURVE SMOOTH",
"811 1448 OFFCURVE",
"727 1483 OFFCURVE",
"609 1483 CURVE SMOOTH"
);
}
);
width = 948;
}
);
unicode = 0032;
},
{
glyphname = three;
lastChange = "2013-03-13 10:44:06 +0200";
layers = (
{
layerId = UUID0;
name = "Bold Italic";
paths = (
{
closed = 1;
nodes = (
"446 1483 OFFCURVE",
"311 1434 OFFCURVE",
"191 1335 CURVE",
"276 1155 LINE",
"361 1219 OFFCURVE",
"441 1251 OFFCURVE",
"516 1251 CURVE SMOOTH",
"615 1251 OFFCURVE",
"659 1191 OFFCURVE",
"634 1075 CURVE SMOOTH",
"603 927 OFFCURVE",
"500 852 OFFCURVE",
"341 852 CURVE SMOOTH",
"262 852 LINE",
"218 649 LINE",
"301 649 LINE SMOOTH",
"480 649 OFFCURVE",
"555 576 OFFCURVE",
"524 430 CURVE SMOOTH",
"491 275 OFFCURVE",
"398 207 OFFCURVE",
"243 207 CURVE SMOOTH",
"148 207 OFFCURVE",
"47 240 OFFCURVE",
"-30 293 CURVE",
"-82 49 LINE",
"-4 3 OFFCURVE",
"100 -20 OFFCURVE",
"229 -20 CURVE SMOOTH",
"374 -20 OFFCURVE",
"498 20 OFFCURVE",
"598 100 CURVE SMOOTH",
"699 180 OFFCURVE",
"764 287 OFFCURVE",
"792 422 CURVE SMOOTH",
"834 619 OFFCURVE",
"754 735 OFFCURVE",
"576 764 CURVE",
"578 772 LINE",
"753 820 OFFCURVE",
"875 949 OFFCURVE",
"914 1133 CURVE SMOOTH",
"938 1242 OFFCURVE",
"921 1327 OFFCURVE",
"865 1389 CURVE SMOOTH",
"809 1452 OFFCURVE",
"719 1483 OFFCURVE",
"596 1483 CURVE SMOOTH"
);
}
);
width = 948;
}
);
unicode = 0033;
},
{
glyphname = four;
lastChange = "2013-03-13 10:44:06 +0200";
layers = (
{
layerId = UUID0;
name = "Bold Italic";
paths = (
{
closed = 1;
nodes = (
"634 1462 LINE",
"-6 528 LINE",
"-53 307 LINE",
"424 307 LINE",
"359 0 LINE",
"615 0 LINE",
"680 307 LINE",
"828 307 LINE",
"876 532 LINE",
"728 532 LINE",
"925 1462 LINE"
);
},
{
closed = 1;
nodes = (
"571 976 LINE",
"537 840 LINE",
"472 532 LINE",
"224 532 LINE",
"480 909 LINE SMOOTH",
"519 968 OFFCURVE",
"559 1033 OFFCURVE",
"598 1106 CURVE",
"606 1106 LINE"
);
}
);
width = 948;
}
);
unicode = 0034;
},
{
glyphname = five;
lastChange = "2013-03-13 10:44:06 +0200";
layers = (
{
layerId = UUID0;
name = "Bold Italic";
paths = (
{
closed = 1;
nodes = (
"316 1462 LINE",
"115 729 LINE",
"189 664 LINE",
"255 685 OFFCURVE",
"317 696 OFFCURVE",
"372 696 CURVE SMOOTH",
"511 696 OFFCURVE",
"564 618 OFFCURVE",
"531 463 CURVE SMOOTH",
"496 296 OFFCURVE",
"406 213 OFFCURVE",
"263 213 CURVE SMOOTH",
"217 213 OFFCURVE",
"169 222 OFFCURVE",
"119 241 CURVE SMOOTH",
"70 260 OFFCURVE",
"31 282 OFFCURVE",
"2 307 CURVE",
"-52 53 LINE",
"17 4 OFFCURVE",
"115 -20 OFFCURVE",
"243 -20 CURVE SMOOTH",
"387 -20 OFFCURVE",
"509 24 OFFCURVE",
"609 113 CURVE SMOOTH",
"709 202 OFFCURVE",
"776 326 OFFCURVE",
"810 485 CURVE SMOOTH",
"838 618 OFFCURVE",
"827 723 OFFCURVE",
"779 800 CURVE SMOOTH",
"730 877 OFFCURVE",
"651 915 OFFCURVE",
"541 915 CURVE SMOOTH",
"492 915 OFFCURVE",
"448 911 OFFCURVE",
"410 903 CURVE",
"497 1219 LINE",
"888 1219 LINE",
"940 1462 LINE"
);
}
);
width = 948;
}
);
unicode = 0035;
},
{
glyphname = six;
lastChange = "2013-03-13 10:44:06 +0200";
layers = (
{
layerId = UUID0;
name = "Bold Italic";
paths = (
{
closed = 1;
nodes = (
"607 1481 OFFCURVE",
"451 1412 OFFCURVE",
"329 1274 CURVE SMOOTH",
"206 1137 OFFCURVE",
"114 919 OFFCURVE",
"51 621 CURVE SMOOTH",
"-39 198 OFFCURVE",
"52 -20 OFFCURVE",
"313 -20 CURVE SMOOTH",
"436 -20 OFFCURVE",
"544 25 OFFCURVE",
"635 115 CURVE SMOOTH",
"727 206 OFFCURVE",
"788 328 OFFCURVE",
"821 483 CURVE SMOOTH",
"884 779 OFFCURVE",
"804 944 OFFCURVE",
"608 944 CURVE SMOOTH",
"501 944 OFFCURVE",
"406 887 OFFCURVE",
"336 776 CURVE",
"325 776 LINE",
"355 896 OFFCURVE",
"391 989 OFFCURVE",
"430 1055 CURVE SMOOTH",
"509 1188 OFFCURVE",
"618 1255 OFFCURVE",
"770 1255 CURVE SMOOTH",
"815 1255 OFFCURVE",
"859 1250 OFFCURVE",
"903 1239 CURVE",
"951 1464 LINE",
"922 1472 OFFCURVE",
"857 1481 OFFCURVE",
"797 1481 CURVE SMOOTH"
);
},
{
closed = 1;
nodes = (
"564 725 OFFCURVE",
"587 632 OFFCURVE",
"555 481 CURVE SMOOTH",
"515 294 OFFCURVE",
"444 209 OFFCURVE",
"364 209 CURVE SMOOTH",
"281 209 OFFCURVE",
"256 315 OFFCURVE",
"297 510 CURVE SMOOTH",
"310 572 OFFCURVE",
"333 623 OFFCURVE",
"367 664 CURVE SMOOTH",
"401 705 OFFCURVE",
"437 725 OFFCURVE",
"476 725 CURVE SMOOTH"
);
}
);
width = 948;
}
);
unicode = 0036;
},
{
glyphname = seven;
lastChange = "2013-03-13 10:44:06 +0200";
layers = (
{
layerId = UUID0;
name = "Bold Italic";
paths = (
{
closed = 1;
nodes = (
"235 1460 LINE",
"184 1219 LINE",
"694 1219 LINE",
"25 0 LINE",
"306 0 LINE",
"980 1276 LINE",
"1019 1460 LINE"
);
}
);
width = 948;
}
);
unicode = 0037;
},
{
glyphname = eight;
lastChange = "2013-03-13 10:44:06 +0200";
layers = (
{
layerId = UUID0;
name = "Bold Italic";
paths = (
{
closed = 1;
nodes = (
"524 1481 OFFCURVE",
"427 1448 OFFCURVE",
"341 1382 CURVE SMOOTH",
"258 1317 OFFCURVE",
"204 1229 OFFCURVE",
"181 1120 CURVE SMOOTH",
"166 1049 OFFCURVE",
"167 986 OFFCURVE",
"184 929 CURVE SMOOTH",
"202 873 OFFCURVE",
"240 817 OFFCURVE",
"298 762 CURVE",
"128 666 OFFCURVE",
"31 539 OFFCURVE",
"-4 371 CURVE SMOOTH",
"-31 246 OFFCURVE",
"-16 149 OFFCURVE",
"41 81 CURVE SMOOTH",
"98 14 OFFCURVE",
"189 -20 OFFCURVE",
"315 -20 CURVE SMOOTH",
"436 -20 OFFCURVE",
"542 17 OFFCURVE",
"631 90 CURVE SMOOTH",
"719 163 OFFCURVE",
"777 260 OFFCURVE",
"802 379 CURVE SMOOTH",
"834 530 OFFCURVE",
"796 653 OFFCURVE",
"650 774 CURVE",
"824 875 OFFCURVE",
"904 983 OFFCURVE",
"933 1120 CURVE SMOOTH",
"956 1231 OFFCURVE",
"941 1319 OFFCURVE",
"887 1384 CURVE SMOOTH",
"833 1449 OFFCURVE",
"749 1481 OFFCURVE",
"635 1481 CURVE SMOOTH"
);
},
{
closed = 1;
nodes = (
"456 633 LINE",
"501 584 OFFCURVE",
"530 541 OFFCURVE",
"541 504 CURVE SMOOTH",
"552 467 OFFCURVE",
"553 427 OFFCURVE",
"545 385 CURVE SMOOTH",
"520 268 OFFCURVE",
"456 193 OFFCURVE",
"357 193 CURVE SMOOTH",
"266 193 OFFCURVE",
"232 268 OFFCURVE",
"257 385 CURVE SMOOTH",
"282 506 OFFCURVE",
"345 583 OFFCURVE",
"445 647 CURVE"
);
},
{
closed = 1;
nodes = (
"666 1270 OFFCURVE",
"693 1217 OFFCURVE",
"671 1110 CURVE SMOOTH",
"652 1022 OFFCURVE",
"612 959 OFFCURVE",
"509 891 CURVE",
"471 928 OFFCURVE",
"447 962 OFFCURVE",
"438 995 CURVE SMOOTH",
"429 1028 OFFCURVE",
"429 1066 OFFCURVE",
"439 1110 CURVE SMOOTH",
"461 1213 OFFCURVE",
"512 1270 OFFCURVE",
"588 1270 CURVE SMOOTH"
);
}
);
width = 948;
}
);
unicode = 0038;
},
{
glyphname = nine;
lastChange = "2013-03-13 10:44:06 +0200";
layers = (
{
layerId = UUID0;
name = "Bold Italic";
paths = (
{
closed = 1;
nodes = (
"503 1481 OFFCURVE",
"397 1435 OFFCURVE",
"305 1344 CURVE SMOOTH",
"215 1253 OFFCURVE",
"153 1129 OFFCURVE",
"120 973 CURVE SMOOTH",
"89 831 OFFCURVE",
"93 719 OFFCURVE",
"130 638 CURVE SMOOTH",
"168 557 OFFCURVE",
"236 516 OFFCURVE",
"335 516 CURVE SMOOTH",
"444 516 OFFCURVE",
"539 579 OFFCURVE",
"604 684 CURVE",
"613 684 LINE",
"531 352 OFFCURVE",
"385 203 OFFCURVE",
"162 203 CURVE SMOOTH",
"123 203 OFFCURVE",
"81 210 OFFCURVE",
"40 225 CURVE",
"-9 -4 LINE",
"30 -15 OFFCURVE",
"80 -20 OFFCURVE",
"143 -20 CURVE SMOOTH",
"520 -20 OFFCURVE",
"768 262 OFFCURVE",
"888 825 CURVE SMOOTH",
"978 1249 OFFCURVE",
"884 1481 OFFCURVE",
"623 1481 CURVE SMOOTH"
);
},
{
closed = 1;
nodes = (
"616 1249 OFFCURVE",
"642 1221 OFFCURVE",
"655 1164 CURVE SMOOTH",
"668 1108 OFFCURVE",
"665 1037 OFFCURVE",
"647 950 CURVE SMOOTH",
"635 894 OFFCURVE",
"610 844 OFFCURVE",
"573 800 CURVE SMOOTH",
"536 757 OFFCURVE",
"498 735 OFFCURVE",
"460 735 CURVE SMOOTH",
"376 735 OFFCURVE",
"354 826 OFFCURVE",
"387 979 CURVE SMOOTH",
"427 1166 OFFCURVE",
"495 1249 OFFCURVE",
"575 1249 CURVE SMOOTH"
);
}
);
width = 948;
}
);
unicode = 0039;
},
{
glyphname = fraction;
lastChange = "2013-03-13 10:44:06 +0200";
layers = (
{
layerId = UUID0;
name = "Bold Italic";
paths = (
{
closed = 1;
nodes = (
"524 1462 LINE",
"-528 0 LINE",
"-325 0 LINE",
"728 1462 LINE"
);
}
);
width = 201;
}
);
unicode = 2044;
},
{
glyphname = onehalf;
lastChange = "2013-03-13 10:44:06 +0200";
layers = (
{
layerId = UUID0;
name = "Bold Italic";
paths = (
{
closed = 1;
nodes = (
"1173 1462 LINE",
"121 0 LINE",
"324 0 LINE",
"1377 1462 LINE"
);
},
{
closed = 1;
nodes = (
"486 1462 LINE",
"166 1235 LINE",
"233 1118 LINE",
"388 1231 LINE SMOOTH",
"400 1240 OFFCURVE",
"409 1248 OFFCURVE",
"415 1255 CURVE",
"390 1159 LINE",
"363 1047 LINE",
"265 586 LINE",
"462 586 LINE",
"648 1462 LINE"
);
},
{
closed = 1;
nodes = (
"1160 898 OFFCURVE",
"1056 856 OFFCURVE",
"953 771 CURVE",
"1026 632 LINE",
"1097 691 OFFCURVE",
"1158 720 OFFCURVE",
"1208 720 CURVE SMOOTH",
"1260 720 OFFCURVE",
"1287 688 OFFCURVE",
"1275 632 CURVE SMOOTH",
"1268 597 OFFCURVE",
"1252 564 OFFCURVE",
"1227 533 CURVE SMOOTH",
"1202 502 OFFCURVE",
"1150 451 OFFCURVE",
"1072 380 CURVE SMOOTH",
"826 158 LINE",
"793 1 LINE",
"1363 1 LINE",
"1402 187 LINE",
"1076 187 LINE",
"1201 294 LINE SMOOTH",
"1300 379 OFFCURVE",
"1368 445 OFFCURVE",
"1404 494 CURVE SMOOTH",
"1440 543 OFFCURVE",
"1464 594 OFFCURVE",
"1475 648 CURVE SMOOTH",
"1508 803 OFFCURVE",
"1431 898 OFFCURVE",
"1268 898 CURVE SMOOTH"
);
}
);
width = 1597;
}
);
unicode = 00BD;
},
{
glyphname = onequarter;
lastChange = "2013-03-13 10:44:06 +0200";
layers = (
{
layerId = UUID0;
name = "Bold Italic";
paths = (
{
closed = 1;
nodes = (
"1173 1462 LINE",
"121 0 LINE",
"324 0 LINE",
"1377 1462 LINE"
);
},
{
closed = 1;
nodes = (
"486 1462 LINE",
"166 1235 LINE",
"233 1118 LINE",
"388 1231 LINE SMOOTH",
"400 1240 OFFCURVE",
"409 1248 OFFCURVE",
"415 1255 CURVE",
"390 1159 LINE",
"363 1047 LINE",
"265 586 LINE",
"462 586 LINE",
"648 1462 LINE"
);
},
{
closed = 1;
nodes = (
"1123 490 LINE",
"1087 320 LINE",
"900 320 LINE",
"1063 521 LINE SMOOTH",
"1075 535 OFFCURVE",
"1091 559 OFFCURVE",
"1114 593 CURVE SMOOTH",
"1136 627 OFFCURVE",
"1154 655 OFFCURVE",
"1167 677 CURVE"
);
},
{
closed = 1;
nodes = (
"1208 883 LINE",
"739 306 LINE",
"708 160 LINE",
"1053 160 LINE",
"1019 1 LINE",
"1215 1 LINE",
"1249 160 LINE",
"1360 160 LINE",
"1394 320 LINE",
"1283 320 LINE",
"1402 883 LINE"
);
}
);
width = 1597;
}
);
unicode = 00BC;
},
{
glyphname = threequarters;
lastChange = "2013-03-13 10:44:06 +0200";
layers = (
{
layerId = UUID0;
name = "Bold Italic";
paths = (
{
closed = 1;
nodes = (
"1206 1462 LINE",
"154 0 LINE",
"357 0 LINE",
"1410 1462 LINE"
);
},
{
closed = 1;
nodes = (
"396 1481 OFFCURVE",
"307 1453 OFFCURVE",
"196 1374 CURVE",
"253 1241 LINE",
"330 1294 OFFCURVE",
"381 1319 OFFCURVE",
"440 1319 CURVE SMOOTH",
"503 1319 OFFCURVE",
"527 1282 OFFCURVE",
"515 1225 CURVE SMOOTH",
"497 1142 OFFCURVE",
"439 1108 OFFCURVE",
"342 1108 CURVE SMOOTH",
"258 1108 LINE",
"226 958 LINE",
"324 958 LINE SMOOTH",
"427 958 OFFCURVE",
"470 921 OFFCURVE",
"454 846 CURVE SMOOTH",
"438 768 OFFCURVE",
"385 729 OFFCURVE",
"295 729 CURVE SMOOTH",
"212 729 OFFCURVE",
"141 753 OFFCURVE",
"80 801 CURVE",
"42 625 LINE",
"94 588 OFFCURVE",
"171 569 OFFCURVE",
"275 569 CURVE SMOOTH",
"476 569 OFFCURVE",
"603 670 OFFCURVE",
"637 831 CURVE SMOOTH",
"658 928 OFFCURVE",
"621 1012 OFFCURVE",
"508 1040 CURVE",
"510 1051 LINE",
"616 1085 OFFCURVE",
"679 1152 OFFCURVE",
"701 1251 CURVE SMOOTH",
"715 1321 OFFCURVE",
"703 1377 OFFCURVE",
"664 1418 CURVE SMOOTH",
"626 1460 OFFCURVE",
"569 1481 OFFCURVE",
"495 1481 CURVE SMOOTH"
);
},
{
closed = 1;
nodes = (
"1127 490 LINE",
"1091 320 LINE",
"904 320 LINE",
"1067 521 LINE SMOOTH",
"1079 535 OFFCURVE",
"1095 559 OFFCURVE",
"1118 593 CURVE SMOOTH",
"1140 627 OFFCURVE",
"1158 655 OFFCURVE",
"1171 677 CURVE"
);
},
{
closed = 1;
nodes = (
"1212 883 LINE",
"743 306 LINE",
"712 160 LINE",
"1057 160 LINE",
"1023 1 LINE",
"1219 1 LINE",
"1253 160 LINE",
"1364 160 LINE",
"1398 320 LINE",
"1287 320 LINE",
"1406 883 LINE"
);
}
);
width = 1597;
}
);
unicode = 00BE;
},
{
glyphname = onesuperior;
lastChange = "2013-03-13 10:44:06 +0200";
layers = (
{
layerId = UUID0;
name = "Bold Italic";
paths = (
{
closed = 1;
nodes = (
"431 1462 LINE",
"111 1235 LINE",
"178 1118 LINE",
"333 1231 LINE SMOOTH",
"345 1240 OFFCURVE",
"354 1248 OFFCURVE",
"360 1255 CURVE",
"335 1159 LINE",
"308 1047 LINE",
"210 586 LINE",
"407 586 LINE",
"593 1462 LINE"
);
}
);
width = 688;
}
);
unicode = 00B9;
},
{
glyphname = twosuperior;
lastChange = "2013-03-13 10:44:06 +0200";
layers = (
{
layerId = UUID0;
name = "Bold Italic";
paths = (
{
closed = 1;
nodes = (
"325 1483 OFFCURVE",
"220 1441 OFFCURVE",
"117 1356 CURVE",
"191 1217 LINE",
"262 1276 OFFCURVE",
"322 1305 OFFCURVE",
"372 1305 CURVE SMOOTH",
"424 1305 OFFCURVE",
"452 1273 OFFCURVE",
"440 1217 CURVE SMOOTH",
"432 1182 OFFCURVE",
"416 1149 OFFCURVE",
"392 1118 CURVE SMOOTH",
"367 1087 OFFCURVE",
"315 1036 OFFCURVE",
"237 965 CURVE SMOOTH",
"-9 743 LINE",
"-42 586 LINE",
"528 586 LINE",
"567 772 LINE",
"241 772 LINE",
"366 879 LINE SMOOTH",
"465 964 OFFCURVE",
"533 1030 OFFCURVE",
"568 1079 CURVE SMOOTH",
"605 1128 OFFCURVE",
"629 1179 OFFCURVE",
"640 1233 CURVE SMOOTH",
"673 1388 OFFCURVE",
"596 1483 OFFCURVE",
"433 1483 CURVE SMOOTH"
);
}
);
width = 688;
}
);
unicode = 00B2;
},
{
glyphname = threesuperior;
lastChange = "2013-03-13 10:44:06 +0200";
layers = (
{
layerId = UUID0;
name = "Bold Italic";
paths = (
{
closed = 1;
nodes = (
"332 1481 OFFCURVE",
"243 1453 OFFCURVE",
"131 1374 CURVE",
"189 1241 LINE",
"265 1294 OFFCURVE",
"316 1319 OFFCURVE",
"375 1319 CURVE SMOOTH",
"438 1319 OFFCURVE",
"463 1282 OFFCURVE",
"451 1225 CURVE SMOOTH",
"433 1142 OFFCURVE",
"375 1108 OFFCURVE",
"278 1108 CURVE SMOOTH",
"194 1108 LINE",
"162 958 LINE",
"260 958 LINE SMOOTH",
"363 958 OFFCURVE",
"406 921 OFFCURVE",
"390 846 CURVE SMOOTH",
"373 768 OFFCURVE",
"320 729 OFFCURVE",
"230 729 CURVE SMOOTH",
"147 729 OFFCURVE",
"76 753 OFFCURVE",
"15 801 CURVE",
"-22 625 LINE",
"29 588 OFFCURVE",
"106 569 OFFCURVE",
"210 569 CURVE SMOOTH",
"411 569 OFFCURVE",
"539 670 OFFCURVE",
"573 831 CURVE SMOOTH",
"593 928 OFFCURVE",
"556 1012 OFFCURVE",
"443 1040 CURVE",
"446 1051 LINE",
"552 1085 OFFCURVE",
"615 1152 OFFCURVE",
"636 1251 CURVE SMOOTH",
"651 1321 OFFCURVE",
"639 1377 OFFCURVE",
"600 1418 CURVE SMOOTH",
"561 1460 OFFCURVE",
"505 1481 OFFCURVE",
"431 1481 CURVE SMOOTH"
);
}
);
width = 688;
}
);
unicode = 00B3;
},
{
glyphname = asterisk;
lastChange = "2013-03-13 10:44:06 +0200";
layers = (
{
layerId = UUID0;
name = "Bold Italic";
paths = (
{
closed = 1;
nodes = (
"443 1556 LINE",
"415 1249 LINE",
"130 1335 LINE",
"46 1114 LINE",
"322 1092 LINE",
"88 846 LINE",
"269 737 LINE",
"441 997 LINE",
"515 737 LINE",
"737 846 LINE",
"604 1092 LINE",
"893 1110 LINE",
"908 1335 LINE",
"579 1249 LINE",
"681 1556 LINE"
);
}
);
width = 952;
}
);
unicode = 002A;
},
{
glyphname = backslash;
lastChange = "2013-03-13 10:44:06 +0200";
layers = (
{
layerId = UUID0;
name = "Bold Italic";
paths = (
{
closed = 1;
nodes = (
"169 1462 LINE",
"404 0 LINE",
"662 0 LINE",
"427 1462 LINE"
);
}
);
width = 829;
}
);
unicode = 005C;
},
{
glyphname = bullet;
lastChange = "2013-03-13 10:44:06 +0200";
layers = (
{
layerId = UUID0;
name = "Bold Italic";
paths = (
{
closed = 1;
nodes = (
"261 1055 OFFCURVE",
"140 945 OFFCURVE",
"98 748 CURVE SMOOTH",
"57 553 OFFCURVE",
"133 440 OFFCURVE",
"310 440 CURVE SMOOTH",
"483 440 OFFCURVE",
"610 555 OFFCURVE",
"651 748 CURVE SMOOTH",
"693 943 OFFCURVE",
"616 1055 OFFCURVE",
"440 1055 CURVE SMOOTH"
);
}
);
width = 750;
}
);
unicode = 2022;
},
{
glyphname = colon;
lastChange = "2013-03-13 10:44:06 +0200";
layers = (
{
layerId = UUID0;
name = "Bold Italic";
paths = (
{
closed = 1;
nodes = (
"291 1137 OFFCURVE",
"222 1077 OFFCURVE",
"200 973 CURVE SMOOTH",
"178 870 OFFCURVE",
"222 809 OFFCURVE",
"330 809 CURVE SMOOTH",
"435 809 OFFCURVE",
"509 869 OFFCURVE",
"531 973 CURVE SMOOTH",
"553 1078 OFFCURVE",
"509 1137 OFFCURVE",
"400 1137 CURVE SMOOTH"
);
},
{
closed = 1;
nodes = (
"113 301 OFFCURVE",
"44 241 OFFCURVE",
"22 137 CURVE SMOOTH",
"0 34 OFFCURVE",
"44 -27 OFFCURVE",
"152 -27 CURVE SMOOTH",
"257 -27 OFFCURVE",
"331 33 OFFCURVE",
"353 137 CURVE SMOOTH",
"375 242 OFFCURVE",
"331 301 OFFCURVE",
"222 301 CURVE SMOOTH"
);
}
);
width = 553;
}
);
unicode = 003A;
},
{
glyphname = comma;
lastChange = "2013-03-13 10:44:55 +0200";
layers = (
{
layerId = UUID0;
name = "Bold Italic";
paths = (
{
closed = 1;
nodes = (
"90 238 LINE",
"33 81 OFFCURVE",
"-37 -87 OFFCURVE",
"-117 -264 CURVE",
"86 -264 LINE",
"208 -79 OFFCURVE",
"300 80 OFFCURVE",
"363 215 CURVE",
"354 238 LINE"
);
}
);
width = 553;
}
);
unicode = 002C;
},
{
glyphname = ellipsis;
lastChange = "2013-03-13 10:45:02 +0200";
layers = (
{
layerId = UUID0;
name = "Bold Italic";
paths = (
{
closed = 1;
nodes = (
"1242 301 OFFCURVE",
"1173 241 OFFCURVE",
"1151 137 CURVE SMOOTH",
"1129 34 OFFCURVE",
"1173 -27 OFFCURVE",
"1281 -27 CURVE SMOOTH",
"1386 -27 OFFCURVE",
"1460 33 OFFCURVE",
"1482 137 CURVE SMOOTH",
"1504 242 OFFCURVE",
"1460 301 OFFCURVE",
"1351 301 CURVE SMOOTH"
);
},
{
closed = 1;
nodes = (
"136 301 OFFCURVE",
"67 241 OFFCURVE",
"45 137 CURVE SMOOTH",
"23 34 OFFCURVE",
"67 -27 OFFCURVE",
"175 -27 CURVE SMOOTH",
"280 -27 OFFCURVE",
"354 33 OFFCURVE",
"376 137 CURVE SMOOTH",
"398 242 OFFCURVE",
"354 301 OFFCURVE",
"245 301 CURVE SMOOTH"
);
},
{
closed = 1;
nodes = (
"689 301 OFFCURVE",
"620 241 OFFCURVE",
"598 137 CURVE SMOOTH",
"576 34 OFFCURVE",
"620 -27 OFFCURVE",
"728 -27 CURVE SMOOTH",
"833 -27 OFFCURVE",
"907 33 OFFCURVE",
"929 137 CURVE SMOOTH",
"951 242 OFFCURVE",
"907 301 OFFCURVE",
"798 301 CURVE SMOOTH"
);
}
);
width = 1659;
}
);
unicode = 2026;
},
{
glyphname = exclam;
lastChange = "2013-03-13 10:44:06 +0200";
layers = (
{
layerId = UUID0;
name = "Bold Italic";
paths = (
{
closed = 1;
nodes = (
"277 1462 LINE",
"116 471 LINE",
"335 471 LINE",
"596 1462 LINE"
);
},
{
closed = 1;
nodes = (
"78 301 OFFCURVE",
"10 241 OFFCURVE",
"-12 137 CURVE SMOOTH",
"-34 34 OFFCURVE",
"10 -27 OFFCURVE",
"118 -27 CURVE SMOOTH",
"223 -27 OFFCURVE",
"297 33 OFFCURVE",
"319 137 CURVE SMOOTH",
"341 242 OFFCURVE",
"296 301 OFFCURVE",
"187 301 CURVE SMOOTH"
);
}
);
width = 555;
}
);
unicode = 0021;
},
{
glyphname = exclamdown;
lastChange = "2013-03-13 10:44:06 +0200";
layers = (
{
layerId = UUID0;
name = "Bold Italic";
paths = (
{
closed = 1;
nodes = (
"216 621 LINE",
"-45 -369 LINE",
"278 -369 LINE",
"437 621 LINE"
);
},
{
closed = 1;
nodes = (
"331 1118 OFFCURVE",
"256 1058 OFFCURVE",
"234 954 CURVE SMOOTH",
"212 849 OFFCURVE",
"259 791 OFFCURVE",
"363 791 CURVE SMOOTH",
"472 791 OFFCURVE",
"543 849 OFFCURVE",
"565 954 CURVE SMOOTH",
"587 1057 OFFCURVE",
"541 1118 OFFCURVE",
"432 1118 CURVE SMOOTH"
);
}
);
width = 555;
}
);
unicode = 00A1;
},
{
glyphname = numbersign;
lastChange = "2013-03-13 10:44:06 +0200";
layers = (
{
layerId = UUID0;
name = "Bold Italic";
paths = (
{
closed = 1;
nodes = (
"911 1462 LINE",
"762 1049 LINE",
"580 1049 LINE",
"726 1462 LINE",
"538 1462 LINE",
"392 1049 LINE",
"162 1049 LINE",
"121 856 LINE",
"322 856 LINE",
"231 604 LINE",
"14 604 LINE",
"-27 410 LINE",
"161 410 LINE",
"15 0 LINE",
"207 0 LINE",
"352 410 LINE",
"534 410 LINE",
"386 0 LINE",
"578 0 LINE",
"725 410 LINE",
"954 410 LINE",
"995 604 LINE",
"792 604 LINE",
"883 856 LINE",
"1102 856 LINE",
"1143 1049 LINE",
"953 1049 LINE",
"1099 1462 LINE"
);
},
{
closed = 1;
nodes = (
"602 604 LINE",
"422 604 LINE",
"510 856 LINE",
"693 856 LINE"
);
}
);
width = 1114;
}
);
unicode = 0023;
},
{
glyphname = period;
lastChange = "2013-03-13 10:45:17 +0200";
layers = (
{
layerId = UUID0;
name = "Bold Italic";
paths = (
{
closed = 1;
nodes = (
"90 301 OFFCURVE",
"21 241 OFFCURVE",
"-1 137 CURVE SMOOTH",
"-23 34 OFFCURVE",
"21 -27 OFFCURVE",
"129 -27 CURVE SMOOTH",
"234 -27 OFFCURVE",
"308 33 OFFCURVE",
"330 137 CURVE SMOOTH",
"352 242 OFFCURVE",
"308 301 OFFCURVE",
"199 301 CURVE SMOOTH"
);
}
);
width = 553;
}
);
unicode = 002E;
},
{
glyphname = periodcentered;
lastChange = "2013-03-13 10:44:06 +0200";
layers = (
{
layerId = UUID0;
name = "Bold Italic";
paths = (
{
closed = 1;
nodes = (
"202 887 OFFCURVE",
"133 827 OFFCURVE",
"111 723 CURVE SMOOTH",
"89 620 OFFCURVE",
"133 559 OFFCURVE",
"241 559 CURVE SMOOTH",
"346 559 OFFCURVE",
"420 619 OFFCURVE",
"442 723 CURVE SMOOTH",
"464 828 OFFCURVE",
"420 887 OFFCURVE",
"311 887 CURVE SMOOTH"
);
}
);
width = 553;
}
);
unicode = 00B7;
},
{
glyphname = question;
lastChange = "2013-03-13 10:44:06 +0200";
layers = (
{
layerId = UUID0;
name = "Bold Italic";
paths = (
{
closed = 1;
nodes = (
"406 1483 OFFCURVE",
"283 1447 OFFCURVE",
"163 1376 CURVE",
"214 1176 LINE",
"304 1227 OFFCURVE",
"386 1253 OFFCURVE",
"458 1253 CURVE SMOOTH",
"545 1253 OFFCURVE",
"570 1193 OFFCURVE",
"551 1106 CURVE SMOOTH",
"541 1059 OFFCURVE",
"526 1020 OFFCURVE",
"505 989 CURVE SMOOTH",
"486 958 OFFCURVE",
"445 916 OFFCURVE",
"384 862 CURVE SMOOTH",
"321 807 OFFCURVE",
"274 756 OFFCURVE",
"244 708 CURVE SMOOTH",
"215 661 OFFCURVE",
"193 605 OFFCURVE",
"179 541 CURVE SMOOTH",
"164 471 LINE",
"400 471 LINE",
"413 532 LINE SMOOTH",
"423 577 OFFCURVE",
"437 613 OFFCURVE",
"454 639 CURVE SMOOTH",
"473 666 OFFCURVE",
"509 703 OFFCURVE",
"564 752 CURVE SMOOTH",
"649 827 OFFCURVE",
"708 890 OFFCURVE",
"742 943 CURVE SMOOTH",
"775 996 OFFCURVE",
"800 1061 OFFCURVE",
"816 1137 CURVE SMOOTH",
"839 1246 OFFCURVE",
"825 1330 OFFCURVE",
"774 1391 CURVE SMOOTH",
"724 1452 OFFCURVE",
"643 1483 OFFCURVE",
"533 1483 CURVE SMOOTH"
);
},
{
closed = 1;
nodes = (
"139 301 OFFCURVE",
"69 242 OFFCURVE",
"46 137 CURVE SMOOTH",
"24 33 OFFCURVE",
"71 -27 OFFCURVE",
"178 -27 CURVE SMOOTH",
"285 -27 OFFCURVE",
"357 36 OFFCURVE",
"378 137 CURVE SMOOTH",
"400 240 OFFCURVE",
"356 301 OFFCURVE",
"247 301 CURVE SMOOTH"
);
}
);
width = 782;
}
);
unicode = 003F;
},
{
glyphname = questiondown;
lastChange = "2013-03-13 10:44:06 +0200";
layers = (
{
layerId = UUID0;
name = "Bold Italic";
paths = (
{
closed = 1;
nodes = (
"383 621 LINE",
"370 559 LINE SMOOTH",
"360 515 OFFCURVE",
"346 479 OFFCURVE",
"327 451 CURVE SMOOTH",
"308 424 OFFCURVE",
"272 387 OFFCURVE",
"218 340 CURVE SMOOTH",
"150 280 OFFCURVE",
"103 233 OFFCURVE",
"76 198 CURVE SMOOTH",
"21 130 OFFCURVE",
"-12 56 OFFCURVE",
"-34 -45 CURVE SMOOTH",
"-57 -155 OFFCURVE",
"-43 -240 OFFCURVE",
"7 -300 CURVE SMOOTH",
"57 -361 OFFCURVE",
"139 -391 OFFCURVE",
"250 -391 CURVE SMOOTH",
"377 -391 OFFCURVE",
"500 -356 OFFCURVE",
"620 -285 CURVE",
"567 -84 LINE",
"478 -136 OFFCURVE",
"397 -162 OFFCURVE",
"324 -162 CURVE SMOOTH",
"240 -162 OFFCURVE",
"212 -100 OFFCURVE",
"230 -16 CURVE SMOOTH",
"240 31 OFFCURVE",
"255 69 OFFCURVE",
"275 100 CURVE SMOOTH",
"296 131 OFFCURVE",
"337 173 OFFCURVE",
"397 227 CURVE SMOOTH",
"461 284 OFFCURVE",
"508 336 OFFCURVE",
"537 383 CURVE SMOOTH",
"567 431 OFFCURVE",
"589 486 OFFCURVE",
"602 549 CURVE SMOOTH",
"618 621 LINE"
);
},
{
closed = 1;
nodes = (
"501 1118 OFFCURVE",
"427 1058 OFFCURVE",
"405 954 CURVE SMOOTH",
"382 849 OFFCURVE",
"429 791 OFFCURVE",
"533 791 CURVE SMOOTH",
"642 791 OFFCURVE",
"713 849 OFFCURVE",
"736 954 CURVE SMOOTH",
"757 1057 OFFCURVE",
"711 1118 OFFCURVE",
"602 1118 CURVE SMOOTH"
);
}
);
width = 782;
}
);
unicode = 00BF;
},
{
glyphname = quotedbl;
lastChange = "2013-03-13 10:44:06 +0200";
layers = (
{
layerId = UUID0;
name = "Bold Italic";
paths = (
{
closed = 1;
nodes = (
"586 1462 LINE",
"515 934 LINE",
"696 934 LINE",
"849 1462 LINE"
);
},
{
closed = 1;
nodes = (
"177 1462 LINE",
"106 934 LINE",
"286 934 LINE",
"439 1462 LINE"
);
}
);
width = 913;
}
);
unicode = 0022;
},
{
glyphname = quotesingle;
lastChange = "2013-03-13 10:44:06 +0200";
layers = (
{
layerId = UUID0;
name = "Bold Italic";
paths = (
{
closed = 1;
nodes = (
"177 1462 LINE",
"106 934 LINE",
"286 934 LINE",
"439 1462 LINE"
);
}
);
width = 504;
}
);
unicode = 0027;
},
{
glyphname = semicolon;
lastChange = "2013-03-13 10:45:28 +0200";
layers = (
{
layerId = UUID0;
name = "Bold Italic";
paths = (
{
closed = 1;
nodes = (
"70 238 LINE",
"12 81 OFFCURVE",
"-57 -87 OFFCURVE",
"-138 -264 CURVE",
"65 -264 LINE",
"187 -79 OFFCURVE",
"279 80 OFFCURVE",
"343 215 CURVE",
"334 238 LINE"
);
},
{
closed = 1;
nodes = (
"276 1137 OFFCURVE",
"207 1077 OFFCURVE",
"185 973 CURVE SMOOTH",
"163 870 OFFCURVE",
"207 809 OFFCURVE",
"315 809 CURVE SMOOTH",
"420 809 OFFCURVE",
"494 869 OFFCURVE",
"516 973 CURVE SMOOTH",
"538 1078 OFFCURVE",
"494 1137 OFFCURVE",
"385 1137 CURVE SMOOTH"
);
}
);
width = 553;
}
);
unicode = 003B;
},
{
glyphname = slash;
lastChange = "2013-03-13 10:44:06 +0200";
layers = (
{
layerId = UUID0;
name = "Bold Italic";
paths = (
{
closed = 1;
nodes = (
"716 1462 LINE",
"-139 0 LINE",
"117 0 LINE",
"972 1462 LINE"
);
}
);
width = 829;
}
);
unicode = 002F;
},
{
glyphname = underscore;
lastChange = "2013-03-13 10:44:06 +0200";
layers = (
{
layerId = UUID0;
name = "Bold Italic";
paths = (
{
closed = 1;
nodes = (
"11 -184 LINE",
"-19 -324 LINE",
"685 -324 LINE",
"715 -184 LINE"
);
}
);
width = 696;
}
);
unicode = 005F;
},
{
glyphname = braceleft;
lastChange = "2013-03-13 10:44:06 +0200";
layers = (
{
layerId = UUID0;
name = "Bold Italic";
paths = (
{
closed = 1;
nodes = (
"582 1457 OFFCURVE",
"462 1395 OFFCURVE",
"413 1180 CURVE SMOOTH",
"345 860 LINE",
"343 852 LINE SMOOTH",
"317 729 OFFCURVE",
"214 680 OFFCURVE",
"49 680 CURVE",
"1 457 LINE",
"166 457 OFFCURVE",
"249 408 OFFCURVE",
"221 276 CURVE SMOOTH",
"153 -41 LINE SMOOTH",
"113 -256 OFFCURVE",
"201 -320 OFFCURVE",
"515 -324 CURVE",
"560 -113 LINE",
"492 -111 OFFCURVE",
"449 -98 OFFCURVE",
"429 -75 CURVE SMOOTH",
"410 -52 OFFCURVE",
"406 -16 OFFCURVE",
"416 33 CURVE SMOOTH",
"480 336 LINE",
"483 348 LINE SMOOTH",
"509 469 OFFCURVE",
"447 540 OFFCURVE",
"298 563 CURVE",
"300 575 LINE",
"457 598 OFFCURVE",
"550 674 OFFCURVE",
"580 803 CURVE SMOOTH",
"644 1106 LINE SMOOTH",
"655 1155 OFFCURVE",
"674 1190 OFFCURVE",
"704 1213 CURVE SMOOTH",
"734 1236 OFFCURVE",
"783 1249 OFFCURVE",
"850 1251 CURVE",
"895 1462 LINE"
);
}
);
width = 737;
}
);
unicode = 007B;
},
{
glyphname = braceright;
lastChange = "2013-03-13 10:44:06 +0200";
layers = (
{
layerId = UUID0;
name = "Bold Italic";
paths = (
{
closed = 1;
nodes = (
"178 1251 LINE",
"246 1249 OFFCURVE",
"289 1237 OFFCURVE",
"309 1214 CURVE SMOOTH",
"329 1191 OFFCURVE",
"334 1155 OFFCURVE",
"323 1106 CURVE SMOOTH",
"259 803 LINE SMOOTH",
"234 674 OFFCURVE",
"295 598 OFFCURVE",
"443 575 CURVE",
"441 563 LINE",
"284 540 OFFCURVE",
"187 466 OFFCURVE",
"161 345 CURVE SMOOTH",
"159 336 LINE",
"95 33 LINE SMOOTH",
"85 -16 OFFCURVE",
"65 -52 OFFCURVE",
"35 -75 CURVE SMOOTH",
"5 -98 OFFCURVE",
"-44 -111 OFFCURVE",
"-112 -113 CURVE",
"-157 -324 LINE",
"-2 -324 OFFCURVE",
"113 -303 OFFCURVE",
"185 -260 CURVE SMOOTH",
"258 -218 OFFCURVE",
"305 -145 OFFCURVE",
"327 -41 CURVE SMOOTH",
"395 276 LINE SMOOTH",
"423 408 OFFCURVE",
"522 457 OFFCURVE",
"689 457 CURVE",
"737 680 LINE",
"570 680 OFFCURVE",
"491 729 OFFCURVE",
"517 852 CURVE SMOOTH",
"519 860 LINE",
"587 1180 LINE SMOOTH",
"609 1283 OFFCURVE",
"592 1356 OFFCURVE",
"538 1398 CURVE SMOOTH",
"484 1441 OFFCURVE",
"379 1462 OFFCURVE",
"223 1462 CURVE"
);
}
);
width = 737;
}
);
unicode = 007D;
},
{
glyphname = bracketleft;
lastChange = "2013-03-13 10:44:06 +0200";
layers = (
{
layerId = UUID0;
name = "Bold Italic";
paths = (
{
closed = 1;
nodes = (
"323 1462 LINE",
"-57 -324 LINE",
"412 -324 LINE",
"454 -125 LINE",
"231 -125 LINE",
"527 1264 LINE",
"750 1264 LINE",
"792 1462 LINE"
);
}
);
width = 649;
}
);
unicode = 005B;
},
{
glyphname = bracketright;
lastChange = "2013-03-13 10:44:06 +0200";
layers = (
{
layerId = UUID0;
name = "Bold Italic";
paths = (
{
closed = 1;
nodes = (
"237 1462 LINE",
"195 1264 LINE",
"418 1264 LINE",
"122 -125 LINE",
"-101 -125 LINE",
"-143 -324 LINE",
"326 -324 LINE",
"706 1462 LINE"
);
}
);
width = 649;
}
);
unicode = 005D;
},
{
glyphname = parenleft;
lastChange = "2013-03-13 10:44:06 +0200";
layers = (
{
layerId = UUID0;
name = "Bold Italic";
paths = (
{
closed = 1;
nodes = (
"565 1462 LINE",
"320 1230 OFFCURVE",
"147 914 OFFCURVE",
"72 561 CURVE SMOOTH",
"-2 213 OFFCURVE",
"37 -97 OFFCURVE",
"185 -324 CURVE",
"418 -324 LINE",
"356 -204 OFFCURVE",
"316 -67 OFFCURVE",
"298 86 CURVE SMOOTH",
"281 239 OFFCURVE",
"290 398 OFFCURVE",
"325 563 CURVE SMOOTH",
"394 888 OFFCURVE",
"558 1205 OFFCURVE",
"800 1462 CURVE"
);
}
);
width = 666;
}
);
unicode = 0028;
},
{
glyphname = parenright;
lastChange = "2013-03-13 10:44:06 +0200";
layers = (
{
layerId = UUID0;
name = "Bold Italic";
paths = (
{
closed = 1;
nodes = (
"245 1462 LINE",
"378 1205 OFFCURVE",
"408 888 OFFCURVE",
"339 563 CURVE SMOOTH",
"304 399 OFFCURVE",
"245 241 OFFCURVE",
"164 88 CURVE SMOOTH",
"82 -64 OFFCURVE",
"-17 -201 OFFCURVE",
"-133 -324 CURVE",
"101 -324 LINE",
"344 -100 OFFCURVE",
"516 210 OFFCURVE",
"590 561 CURVE SMOOTH",
"627 736 OFFCURVE",
"637 901 OFFCURVE",
"618 1055 CURVE SMOOTH",
"600 1210 OFFCURVE",
"554 1345 OFFCURVE",
"481 1462 CURVE"
);
}
);
width = 666;
}
);
unicode = 0029;
},
{
glyphname = emdash;
lastChange = "2013-03-13 10:44:06 +0200";
layers = (
{
layerId = UUID0;
name = "Bold Italic";
paths = (
{
closed = 1;
nodes = (
"93 659 LINE",
"47 442 LINE",
"1484 442 LINE",
"1530 659 LINE"
);
}
);
width = 1579;
}
);
unicode = 2014;
},
{
glyphname = endash;
lastChange = "2013-03-13 10:44:06 +0200";
layers = (
{
layerId = UUID0;
name = "Bold Italic";
paths = (
{
closed = 1;
nodes = (
"93 659 LINE",
"47 442 LINE",
"880 442 LINE",
"926 659 LINE"
);
}
);
width = 972;
}
);
unicode = 2013;
},
{
glyphname = hyphen;
lastChange = "2013-03-13 10:44:06 +0200";
layers = (
{
layerId = UUID0;
name = "Bold Italic";
paths = (
{
closed = 1;
nodes = (
"97 666 LINE",
"47 432 LINE",
"550 432 LINE",
"600 666 LINE"
);
}
);
width = 647;
}
);
unicode = 002D;
},
{
glyphname = uni00AD;
lastChange = "2013-03-13 10:44:06 +0200";
layers = (
{
layerId = UUID0;
name = "Bold Italic";
paths = (
{
closed = 1;
nodes = (
"97 666 LINE",
"47 432 LINE",
"550 432 LINE",
"600 666 LINE"
);
}
);
width = 647;
}
);
unicode = 00AD;
},
{
glyphname = guillemotleft;
lastChange = "2013-03-13 10:44:06 +0200";
layers = (
{
layerId = UUID0;
name = "Bold Italic";
paths = (
{
closed = 1;
nodes = (
"564 569 LINE",
"558 543 LINE",
"770 98 LINE",
"993 209 LINE",
"848 557 LINE",
"1141 905 LINE",
"966 1016 LINE"
);
},
{
closed = 1;
nodes = (
"77 569 LINE",
"71 543 LINE",
"283 98 LINE",
"506 209 LINE",
"360 557 LINE",
"654 905 LINE",
"479 1016 LINE"
);
}
);
width = 1141;
}
);
unicode = 00AB;
},
{
glyphname = guillemotright;
lastChange = "2013-03-13 10:44:06 +0200";
layers = (
{
layerId = UUID0;
name = "Bold Italic";
paths = (
{
closed = 1;
nodes = (
"635 905 LINE",
"780 557 LINE",
"487 209 LINE",
"662 98 LINE",
"1064 543 LINE",
"1070 569 LINE",
"858 1016 LINE"
);
},
{
closed = 1;
nodes = (
"148 905 LINE",
"293 557 LINE",
"0 209 LINE",
"174 98 LINE",
"577 543 LINE",
"583 569 LINE",
"370 1016 LINE"
);
}
);
width = 1141;
}
);
unicode = 00BB;
},
{
glyphname = guilsinglleft;
lastChange = "2013-03-13 10:44:06 +0200";
layers = (
{
layerId = UUID0;
name = "Bold Italic";
paths = (
{
closed = 1;
nodes = (
"77 569 LINE",
"71 543 LINE",
"283 98 LINE",
"506 209 LINE",
"360 557 LINE",
"654 905 LINE",
"479 1016 LINE"
);
}
);
width = 653;
}
);
unicode = 2039;
},
{
glyphname = guilsinglright;
lastChange = "2013-03-13 10:44:06 +0200";
layers = (
{
layerId = UUID0;
name = "Bold Italic";
paths = (
{
closed = 1;
nodes = (
"148 905 LINE",
"293 557 LINE",
"0 209 LINE",
"174 98 LINE",
"577 543 LINE",
"583 569 LINE",
"370 1016 LINE"
);
}
);
width = 653;
}
);
unicode = 203A;
},
{
glyphname = quotedblbase;
lastChange = "2013-03-13 10:44:06 +0200";
layers = (
{
layerId = UUID0;
name = "Bold Italic";
paths = (
{
closed = 1;
nodes = (
"639 238 LINE",
"582 81 OFFCURVE",
"512 -87 OFFCURVE",
"432 -264 CURVE",
"635 -264 LINE",
"757 -79 OFFCURVE",
"849 80 OFFCURVE",
"912 215 CURVE",
"903 238 LINE"
);
},
{
closed = 1;
nodes = (
"205 238 LINE",
"148 81 OFFCURVE",
"78 -87 OFFCURVE",
"-2 -264 CURVE",
"201 -264 LINE",
"323 -79 OFFCURVE",
"415 80 OFFCURVE",
"478 215 CURVE",
"469 238 LINE"
);
}
);
width = 986;
}
);
unicode = 201E;
},
{
glyphname = quotedblleft;
lastChange = "2013-03-13 10:44:06 +0200";
layers = (
{
layerId = UUID0;
name = "Bold Italic";
paths = (
{
closed = 1;
nodes = (
"684 1462 LINE",
"645 1403 OFFCURVE",
"598 1328 OFFCURVE",
"543 1237 CURVE SMOOTH",
"489 1146 OFFCURVE",
"444 1062 OFFCURVE",
"406 983 CURVE",
"416 961 LINE",
"680 961 LINE",
"736 1117 OFFCURVE",
"805 1284 OFFCURVE",
"887 1462 CURVE"
);
},
{
closed = 1;
nodes = (
"250 1462 LINE",
"196 1382 OFFCURVE",
"143 1298 OFFCURVE",
"93 1211 CURVE SMOOTH",
"42 1124 OFFCURVE",
"2 1048 OFFCURVE",
"-29 983 CURVE",
"-18 961 LINE",
"246 961 LINE",
"262 1009 OFFCURVE",
"291 1084 OFFCURVE",
"332 1185 CURVE SMOOTH",
"374 1286 OFFCURVE",
"414 1379 OFFCURVE",
"452 1462 CURVE"
);
}
);
width = 854;
}
);
unicode = 201C;
},
{
glyphname = quotedblright;
lastChange = "2013-03-13 10:44:06 +0200";
layers = (
{
layerId = UUID0;
name = "Bold Italic";
paths = (
{
closed = 1;
nodes = (
"608 1462 LINE",
"547 1292 OFFCURVE",
"478 1125 OFFCURVE",
"402 961 CURVE",
"604 961 LINE",
"729 1152 OFFCURVE",
"822 1312 OFFCURVE",
"883 1440 CURVE",
"872 1462 LINE"
);
},
{
closed = 1;
nodes = (
"174 1462 LINE",
"115 1299 OFFCURVE",
"46 1132 OFFCURVE",
"-33 961 CURVE",
"170 961 LINE",
"294 1149 OFFCURVE",
"387 1309 OFFCURVE",
"448 1440 CURVE",
"438 1462 LINE"
);
}
);
width = 854;
}
);
unicode = 201D;
},
{
glyphname = quoteleft;
lastChange = "2013-03-13 10:44:06 +0200";
layers = (
{
layerId = UUID0;
name = "Bold Italic";
paths = (
{
closed = 1;
nodes = (
"250 1462 LINE",
"196 1382 OFFCURVE",
"143 1298 OFFCURVE",
"93 1211 CURVE SMOOTH",
"42 1124 OFFCURVE",
"2 1048 OFFCURVE",
"-29 983 CURVE",
"-18 961 LINE",
"246 961 LINE",
"262 1009 OFFCURVE",
"291 1084 OFFCURVE",
"332 1185 CURVE SMOOTH",
"374 1286 OFFCURVE",
"414 1379 OFFCURVE",
"452 1462 CURVE"
);
}
);
width = 420;
}
);
unicode = 2018;
},
{
glyphname = quoteright;
lastChange = "2013-03-13 10:44:06 +0200";
layers = (
{
layerId = UUID0;
name = "Bold Italic";
paths = (
{
closed = 1;
nodes = (
"174 1462 LINE",
"115 1299 OFFCURVE",
"46 1132 OFFCURVE",
"-33 961 CURVE",
"170 961 LINE",
"294 1149 OFFCURVE",
"387 1309 OFFCURVE",
"448 1440 CURVE",
"438 1462 LINE"
);
}
);
width = 420;
}
);
unicode = 2019;
},
{
glyphname = quotesinglbase;
lastChange = "2013-03-13 10:44:06 +0200";
layers = (
{
layerId = UUID0;
name = "Bold Italic";
paths = (
{
closed = 1;
nodes = (
"205 238 LINE",
"148 81 OFFCURVE",
"78 -87 OFFCURVE",
"-2 -264 CURVE",
"201 -264 LINE",
"323 -79 OFFCURVE",
"415 80 OFFCURVE",
"478 215 CURVE",
"469 238 LINE"
);
}
);
width = 553;
}
);
unicode = 201A;
},
{
glyphname = "geresh-hb";
lastChange = "2013-03-13 10:45:58 +0200";
layers = (
{
layerId = UUID0;
name = "Bold Italic";
paths = (
{
closed = 1;
nodes = (
"273 1290 LINE",
"214 1127 OFFCURVE",
"145 960 OFFCURVE",
"66 789 CURVE",
"269 789 LINE",
"393 977 OFFCURVE",
"486 1137 OFFCURVE",
"547 1268 CURVE",
"537 1290 LINE"
);
}
);
width = 420;
}
);
unicode = 05F3;
},
{
glyphname = "gershayim-hb";
lastChange = "2013-03-13 10:46:09 +0200";
layers = (
{
layerId = UUID0;
name = "Bold Italic";
paths = (
{
closed = 1;
nodes = (
"713 1290 LINE",
"652 1120 OFFCURVE",
"583 953 OFFCURVE",
"507 789 CURVE",
"709 789 LINE",
"834 980 OFFCURVE",
"927 1140 OFFCURVE",
"988 1268 CURVE",
"977 1290 LINE"
);
},
{
closed = 1;
nodes = (
"279 1290 LINE",
"220 1127 OFFCURVE",
"151 960 OFFCURVE",
"72 789 CURVE",
"275 789 LINE",
"399 977 OFFCURVE",
"492 1137 OFFCURVE",
"553 1268 CURVE",
"543 1290 LINE"
);
}
);
width = 855;
}
);
unicode = 05F4;
},
{
glyphname = "maqaf-hb";
lastChange = "2013-03-13 10:46:16 +0200";
layers = (
{
layerId = UUID0;
name = "Bold Italic";
paths = (
{
closed = 1;
nodes = (
"227 1290 LINE",
"177 1056 LINE",
"680 1056 LINE",
"730 1290 LINE"
);
}
);
width = 647;
}
);
unicode = 05BE;
},
{
glyphname = .notdef;
lastChange = "2013-03-13 10:44:06 +0200";
layers = (
{
layerId = UUID0;
name = "Bold Italic";
paths = (
{
closed = 1;
nodes = (
"329 1462 LINE",
"19 0 LINE",
"861 0 LINE",
"1171 1462 LINE"
);
},
{
closed = 1;
nodes = (
"778 104 LINE",
"146 104 LINE",
"412 1358 LINE",
"1044 1358 LINE"
);
}
);
width = 1192;
}
);
},
{
glyphname = florin;
lastChange = "2013-03-13 10:44:06 +0200";
layers = (
{
layerId = UUID0;
name = "Bold Italic";
paths = (
{
closed = 1;
nodes = (
"613 1483 OFFCURVE",
"484 1367 OFFCURVE",
"431 1116 CURVE SMOOTH",
"413 1030 LINE",
"230 952 LINE",
"201 817 LINE",
"367 817 LINE",
"175 -86 LINE SMOOTH",
"149 -209 OFFCURVE",
"97 -264 OFFCURVE",
"5 -264 CURVE SMOOTH",
"-34 -264 OFFCURVE",
"-72 -258 OFFCURVE",
"-109 -246 CURVE",
"-156 -469 LINE",
"-104 -484 OFFCURVE",
"-49 -492 OFFCURVE",
"11 -492 CURVE SMOOTH",
"243 -492 OFFCURVE",
"395 -364 OFFCURVE",
"447 -121 CURVE SMOOTH",
"648 817 LINE",
"867 817 LINE",
"913 1030 LINE",
"694 1030 LINE",
"710 1106 LINE SMOOTH",
"731 1205 OFFCURVE",
"772 1260 OFFCURVE",
"852 1260 CURVE SMOOTH",
"893 1260 OFFCURVE",
"936 1250 OFFCURVE",
"983 1231 CURVE",
"1095 1438 LINE",
"1031 1468 OFFCURVE",
"953 1483 OFFCURVE",
"861 1483 CURVE SMOOTH"
);
}
);
width = 948;
}
);
unicode = 0192;
},
{
glyphname = Euro;
lastChange = "2013-03-13 10:44:06 +0200";
layers = (
{
layerId = UUID0;
name = "Bold Italic";
paths = (
{
closed = 1;
nodes = (
"552 1485 OFFCURVE",
"341 1297 OFFCURVE",
"215 946 CURVE",
"86 946 LINE",
"51 778 LINE",
"168 778 LINE",
"142 655 LINE",
"25 655 LINE",
"-11 487 LINE",
"120 487 LINE",
"98 156 OFFCURVE",
"226 -20 OFFCURVE",
"485 -20 CURVE SMOOTH",
"587 -20 OFFCURVE",
"679 4 OFFCURVE",
"762 51 CURVE",
"814 293 LINE",
"720 244 OFFCURVE",
"637 219 OFFCURVE",
"565 219 CURVE SMOOTH",
"444 219 OFFCURVE",
"386 308 OFFCURVE",
"390 487 CURVE",
"638 487 LINE",
"674 655 LINE",
"410 655 LINE",
"436 778 LINE",
"745 778 LINE",
"780 946 LINE",
"485 946 LINE",
"558 1141 OFFCURVE",
"655 1247 OFFCURVE",
"768 1247 CURVE SMOOTH",
"823 1247 OFFCURVE",
"880 1231 OFFCURVE",
"937 1200 CURVE",
"1073 1415 LINE",
"996 1464 OFFCURVE",
"923 1485 OFFCURVE",
"807 1485 CURVE SMOOTH"
);
}
);
width = 948;
}
);
unicode = 20AC;
},
{
glyphname = cent;
lastChange = "2013-03-13 10:44:06 +0200";
layers = (
{
layerId = UUID0;
name = "Bold Italic";
paths = (
{
closed = 1;
nodes = (
"605 1479 LINE",
"570 1311 LINE",
"356 1263 OFFCURVE",
"220 1073 OFFCURVE",
"149 737 CURVE SMOOTH",
"81 418 OFFCURVE",
"141 233 OFFCURVE",
"329 180 CURVE",
"287 -20 LINE",
"453 -20 LINE",
"493 172 LINE",
"560 179 OFFCURVE",
"622 200 OFFCURVE",
"680 233 CURVE",
"730 467 LINE",
"648 419 OFFCURVE",
"574 395 OFFCURVE",
"507 395 CURVE SMOOTH",
"395 395 OFFCURVE",
"374 511 OFFCURVE",
"422 739 CURVE SMOOTH",
"473 979 OFFCURVE",
"544 1094 OFFCURVE",
"657 1094 CURVE SMOOTH",
"698 1094 OFFCURVE",
"744 1077 OFFCURVE",
"794 1044 CURVE",
"916 1253 LINE",
"865 1286 OFFCURVE",
"806 1308 OFFCURVE",
"737 1319 CURVE",
"771 1479 LINE"
);
}
);
width = 948;
}
);
unicode = 00A2;
},
{
glyphname = currency;
lastChange = "2013-03-13 10:44:06 +0200";
layers = (
{
layerId = UUID0;
name = "Bold Italic";
paths = (
{
closed = 1;
nodes = (
"825 1059 LINE",
"772 1097 OFFCURVE",
"709 1116 OFFCURVE",
"638 1116 CURVE SMOOTH",
"566 1116 OFFCURVE",
"495 1098 OFFCURVE",
"426 1061 CURVE",
"326 1188 LINE",
"160 1051 LINE",
"262 924 LINE",
"209 858 OFFCURVE",
"176 791 OFFCURVE",
"162 723 CURVE SMOOTH",
"146 650 OFFCURVE",
"151 583 OFFCURVE",
"176 522 CURVE",
"22 397 LINE",
"129 262 LINE",
"280 385 LINE",
"328 350 OFFCURVE",
"392 332 OFFCURVE",
"472 332 CURVE SMOOTH",
"543 332 OFFCURVE",
"613 350 OFFCURVE",
"682 385 CURVE",
"784 260 LINE",
"948 395 LINE",
"850 520 LINE",
"899 579 OFFCURVE",
"932 647 OFFCURVE",
"948 723 CURVE SMOOTH",
"963 796 OFFCURVE",
"960 864 OFFCURVE",
"936 926 CURVE",
"1092 1055 LINE",
"982 1188 LINE"
);
},
{
closed = 1;
nodes = (
"655 924 OFFCURVE",
"698 904 OFFCURVE",
"729 865 CURVE SMOOTH",
"760 826 OFFCURVE",
"770 779 OFFCURVE",
"758 723 CURVE SMOOTH",
"746 668 OFFCURVE",
"716 621 OFFCURVE",
"669 582 CURVE SMOOTH",
"622 543 OFFCURVE",
"569 524 OFFCURVE",
"512 524 CURVE SMOOTH",
"457 524 OFFCURVE",
"415 543 OFFCURVE",
"384 582 CURVE SMOOTH",
"353 621 OFFCURVE",
"344 668 OFFCURVE",
"356 723 CURVE SMOOTH",
"368 780 OFFCURVE",
"397 827 OFFCURVE",
"444 866 CURVE SMOOTH",
"491 905 OFFCURVE",
"543 924 OFFCURVE",
"598 924 CURVE SMOOTH"
);
}
);
width = 1112;
}
);
unicode = 00A4;
},
{
glyphname = dollar;
lastChange = "2013-03-13 10:44:06 +0200";
layers = (
{
layerId = UUID0;
name = "Bold Italic";
paths = (
{
closed = 1;
nodes = (
"592 1556 LINE",
"558 1395 LINE",
"337 1371 OFFCURVE",
"186 1244 OFFCURVE",
"143 1044 CURVE SMOOTH",
"125 957 OFFCURVE",
"131 884 OFFCURVE",
"164 826 CURVE SMOOTH",
"197 769 OFFCURVE",
"265 713 OFFCURVE",
"366 659 CURVE SMOOTH",
"398 643 LINE",
"326 305 LINE",
"218 310 OFFCURVE",
"103 353 OFFCURVE",
"10 416 CURVE",
"-43 170 LINE",
"46 118 OFFCURVE",
"153 90 OFFCURVE",
"280 86 CURVE",
"236 -119 LINE",
"352 -119 LINE",
"396 90 LINE",
"621 113 OFFCURVE",
"773 245 OFFCURVE",
"818 457 CURVE SMOOTH",
"831 517 OFFCURVE",
"832 569 OFFCURVE",
"822 613 CURVE SMOOTH",
"811 658 OFFCURVE",
"788 697 OFFCURVE",
"754 731 CURVE SMOOTH",
"719 766 OFFCURVE",
"664 801 OFFCURVE",
"586 838 CURVE",
"587 839 OFFCURVE",
"578 844 OFFCURVE",
"558 852 CURVE",
"626 1169 LINE",
"691 1163 OFFCURVE",
"762 1139 OFFCURVE",
"839 1098 CURVE",
"964 1311 LINE",
"873 1362 OFFCURVE",
"776 1390 OFFCURVE",
"674 1397 CURVE",
"708 1556 LINE"
);
},
{
closed = 1;
nodes = (
"545 567 OFFCURVE",
"569 545 OFFCURVE",
"578 525 CURVE SMOOTH",
"587 506 OFFCURVE",
"589 481 OFFCURVE",
"582 451 CURVE SMOOTH",
"565 370 OFFCURVE",
"519 324 OFFCURVE",
"443 311 CURVE",
"503 590 LINE"
);
},
{
closed = 1;
nodes = (
"454 907 LINE",
"385 938 OFFCURVE",
"364 976 OFFCURVE",
"378 1044 CURVE SMOOTH",
"394 1117 OFFCURVE",
"437 1158 OFFCURVE",
"510 1169 CURVE"
);
}
);
width = 948;
}
);
unicode = 0024;
},
{
glyphname = sterling;
lastChange = "2013-03-13 10:44:06 +0200";
layers = (
{
layerId = UUID0;
name = "Bold Italic";
paths = (
{
closed = 1;
nodes = (
"519 1483 OFFCURVE",
"360 1338 OFFCURVE",
"303 1073 CURVE SMOOTH",
"257 854 LINE",
"102 854 LINE",
"59 651 LINE",
"214 651 LINE",
"180 494 LINE SMOOTH",
"167 429 OFFCURVE",
"145 377 OFFCURVE",
"114 337 CURVE SMOOTH",
"85 298 OFFCURVE",
"35 262 OFFCURVE",
"-33 229 CURVE",
"-82 0 LINE",
"745 0 LINE",
"797 242 LINE",
"263 242 LINE",
"370 309 OFFCURVE",
"427 397 OFFCURVE",
"452 518 CURVE SMOOTH",
"481 651 LINE",
"722 651 LINE",
"765 854 LINE",
"524 854 LINE",
"569 1067 LINE SMOOTH",
"596 1191 OFFCURVE",
"647 1253 OFFCURVE",
"723 1253 CURVE SMOOTH",
"784 1253 OFFCURVE",
"841 1235 OFFCURVE",
"894 1200 CURVE",
"1023 1411 LINE",
"950 1459 OFFCURVE",
"861 1483 OFFCURVE",
"756 1483 CURVE SMOOTH"
);
}
);
width = 948;
}
);
unicode = 00A3;
},
{
glyphname = uni20AA;
lastChange = "2013-03-13 10:44:06 +0200";
layers = (
{
layerId = UUID0;
name = "Bold Italic";
paths = (
{
closed = 1;
nodes = (
"270 1290 LINE",
"-4 0 LINE",
"261 0 LINE",
"486 1057 LINE",
"678 1057 LINE SMOOTH",
"917 1057 OFFCURVE",
"934 975 OFFCURVE",
"881 727 CURVE SMOOTH",
"825 463 LINE",
"1078 463 LINE",
"1134 727 LINE SMOOTH",
"1196 1019 OFFCURVE",
"1235 1290 OFFCURVE",
"727 1290 CURVE SMOOTH"
);
},
{
closed = 1;
nodes = (
"1370 1290 LINE",
"1261 776 LINE SMOOTH",
"1190 445 OFFCURVE",
"1052 233 OFFCURVE",
"736 233 CURVE SMOOTH",
"680 233 LINE",
"807 827 LINE",
"542 827 LINE",
"366 0 LINE",
"688 0 LINE SMOOTH",
"1274 0 OFFCURVE",
"1445 454 OFFCURVE",
"1514 776 CURVE SMOOTH",
"1623 1290 LINE"
);
}
);
width = 1588;
}
);
unicode = 20AA;
},
{
glyphname = yen;
lastChange = "2013-03-13 10:44:06 +0200";
layers = (
{
layerId = UUID0;
name = "Bold Italic";
paths = (
{
closed = 1;
nodes = (
"814 1462 LINE",
"499 844 LINE",
"444 1462 LINE",
"161 1462 LINE",
"279 711 LINE",
"92 711 LINE",
"56 541 LINE",
"302 541 LINE",
"271 399 LINE",
"25 399 LINE",
"-11 229 LINE",
"235 229 LINE",
"187 0 LINE",
"453 0 LINE",
"501 229 LINE",
"745 229 LINE",
"781 399 LINE",
"537 399 LINE",
"568 541 LINE",
"812 541 LINE",
"848 711 LINE",
"662 711 LINE",
"1097 1462 LINE"
);
}
);
width = 948;
}
);
unicode = 00A5;
},
{
glyphname = asciitilde;
lastChange = "2013-03-13 10:44:06 +0200";
layers = (
{
layerId = UUID0;
name = "Bold Italic";
paths = (
{
closed = 1;
nodes = (
"795 806 OFFCURVE",
"724 766 OFFCURVE",
"666 766 CURVE SMOOTH",
"639 766 OFFCURVE",
"615 769 OFFCURVE",
"595 776 CURVE SMOOTH",
"576 783 OFFCURVE",
"546 798 OFFCURVE",
"506 821 CURVE SMOOTH",
"455 850 OFFCURVE",
"417 867 OFFCURVE",
"393 874 CURVE SMOOTH",
"370 881 OFFCURVE",
"345 885 OFFCURVE",
"316 885 CURVE SMOOTH",
"238 885 OFFCURVE",
"161 849 OFFCURVE",
"85 776 CURVE",
"39 557 LINE",
"124 638 OFFCURVE",
"196 678 OFFCURVE",
"255 678 CURVE SMOOTH",
"276 678 OFFCURVE",
"295 676 OFFCURVE",
"311 671 CURVE SMOOTH",
"327 666 OFFCURVE",
"360 650 OFFCURVE",
"409 623 CURVE SMOOTH",
"479 582 OFFCURVE",
"534 559 OFFCURVE",
"602 559 CURVE SMOOTH",
"686 559 OFFCURVE",
"763 595 OFFCURVE",
"833 668 CURVE",
"879 887 LINE"
);
}
);
width = 918;
}
);
unicode = 007E;
},
{
glyphname = divide;
lastChange = "2013-03-13 10:44:06 +0200";
layers = (
{
layerId = UUID0;
name = "Bold Italic";
paths = (
{
closed = 1;
nodes = (
"128 825 LINE",
"84 618 LINE",
"789 618 LINE",
"833 825 LINE"
);
},
{
closed = 1;
nodes = (
"331 518 OFFCURVE",
"278 470 OFFCURVE",
"258 373 CURVE SMOOTH",
"236 270 OFFCURVE",
"280 227 OFFCURVE",
"352 227 CURVE SMOOTH",
"429 227 OFFCURVE",
"486 282 OFFCURVE",
"506 373 CURVE SMOOTH",
"526 466 OFFCURVE",
"495 518 OFFCURVE",
"414 518 CURVE SMOOTH"
);
},
{
closed = 1;
nodes = (
"479 1217 OFFCURVE",
"427 1168 OFFCURVE",
"406 1071 CURVE SMOOTH",
"384 968 OFFCURVE",
"428 926 OFFCURVE",
"500 926 CURVE SMOOTH",
"577 926 OFFCURVE",
"635 982 OFFCURVE",
"654 1071 CURVE SMOOTH",
"674 1166 OFFCURVE",
"643 1217 OFFCURVE",
"562 1217 CURVE SMOOTH"
);
}
);
width = 918;
}
);
unicode = 00F7;
},
{
glyphname = equal;
lastChange = "2013-03-13 10:44:06 +0200";
layers = (
{
layerId = UUID0;
name = "Bold Italic";
paths = (
{
closed = 1;
nodes = (
"86 629 LINE",
"42 422 LINE",
"747 422 LINE",
"791 629 LINE"
);
},
{
closed = 1;
nodes = (
"170 1020 LINE",
"126 815 LINE",
"831 815 LINE",
"875 1020 LINE"
);
}
);
width = 918;
}
);
unicode = 003D;
},
{
glyphname = greater;
lastChange = "2013-03-13 10:44:06 +0200";
layers = (
{
layerId = UUID0;
name = "Bold Italic";
paths = (
{
closed = 1;
nodes = (
"167 1010 LINE",
"596 723 LINE",
"45 434 LINE",
"-3 209 LINE",
"795 645 LINE",
"828 801 LINE",
"215 1235 LINE"
);
}
);
width = 918;
}
);
unicode = 003E;
},
{
glyphname = less;
lastChange = "2013-03-13 10:44:06 +0200";
layers = (
{
layerId = UUID0;
name = "Bold Italic";
paths = (
{
closed = 1;
nodes = (
"123 801 LINE",
"90 645 LINE",
"702 209 LINE",
"750 434 LINE",
"324 723 LINE",
"872 1010 LINE",
"920 1235 LINE"
);
}
);
width = 918;
}
);
unicode = 003C;
},
{
glyphname = logicalnot;
lastChange = "2013-03-13 10:44:06 +0200";
layers = (
{
layerId = UUID0;
name = "Bold Italic";
paths = (
{
closed = 1;
nodes = (
"167 825 LINE",
"123 618 LINE",
"633 618 LINE",
"555 250 LINE",
"750 250 LINE",
"872 825 LINE"
);
}
);
width = 918;
}
);
unicode = 00AC;
},
{
glyphname = multiply;
lastChange = "2013-03-13 10:44:06 +0200";
layers = (
{
layerId = UUID0;
name = "Bold Italic";
paths = (
{
closed = 1;
nodes = (
"492 883 LINE",
"338 1165 LINE",
"163 1053 LINE",
"339 723 LINE",
"22 389 LINE",
"150 276 LINE",
"424 565 LINE",
"578 276 LINE",
"753 389 LINE",
"579 723 LINE",
"894 1053 LINE",
"766 1165 LINE"
);
}
);
width = 918;
}
);
unicode = 00D7;
},
{
glyphname = percent;
lastChange = "2013-03-13 10:44:06 +0200";
layers = (
{
layerId = UUID0;
name = "Bold Italic";
paths = (
{
closed = 1;
nodes = (
"1128 1462 LINE",
"215 0 LINE",
"422 0 LINE",
"1337 1462 LINE"
);
},
{
closed = 1;
nodes = (
"528 1290 OFFCURVE",
"535 1209 OFFCURVE",
"496 1024 CURVE SMOOTH",
"457 839 OFFCURVE",
"415 758 OFFCURVE",
"359 758 CURVE SMOOTH",
"303 758 OFFCURVE",
"299 839 OFFCURVE",
"338 1024 CURVE SMOOTH",
"377 1209 OFFCURVE",
"417 1290 OFFCURVE",
"473 1290 CURVE SMOOTH"
);
},
{
closed = 1;
nodes = (
"319 1483 OFFCURVE",
"190 1329 OFFCURVE",
"125 1022 CURVE SMOOTH",
"60 719 OFFCURVE",
"117 565 OFFCURVE",
"316 565 CURVE SMOOTH",
"508 565 OFFCURVE",
"645 725 OFFCURVE",
"709 1026 CURVE SMOOTH",
"774 1331 OFFCURVE",
"709 1483 OFFCURVE",
"512 1483 CURVE SMOOTH"
);
},
{
closed = 1;
nodes = (
"1247 705 OFFCURVE",
"1255 625 OFFCURVE",
"1216 440 CURVE SMOOTH",
"1177 255 OFFCURVE",
"1135 174 OFFCURVE",
"1079 174 CURVE SMOOTH",
"1023 174 OFFCURVE",
"1019 255 OFFCURVE",
"1058 440 CURVE SMOOTH",
"1097 625 OFFCURVE",
"1137 705 OFFCURVE",
"1192 705 CURVE SMOOTH"
);
},
{
closed = 1;
nodes = (
"1036 899 OFFCURVE",
"908 737 OFFCURVE",
"844 438 CURVE SMOOTH",
"780 135 OFFCURVE",
"836 -18 OFFCURVE",
"1036 -18 CURVE SMOOTH",
"1227 -18 OFFCURVE",
"1365 141 OFFCURVE",
"1429 442 CURVE SMOOTH",
"1494 747 OFFCURVE",
"1428 899 OFFCURVE",
"1231 899 CURVE SMOOTH"
);
}
);
width = 1554;
}
);
unicode = 0025;
},
{
glyphname = perthousand;
lastChange = "2013-03-13 10:44:06 +0200";
layers = (
{
layerId = UUID0;
name = "Bold Italic";
paths = (
{
closed = 1;
nodes = (
"1130 1462 LINE",
"215 0 LINE",
"422 0 LINE",
"1337 1462 LINE"
);
},
{
closed = 1;
nodes = (
"319 1483 OFFCURVE",
"190 1329 OFFCURVE",
"125 1022 CURVE SMOOTH",
"60 719 OFFCURVE",
"117 565 OFFCURVE",
"316 565 CURVE SMOOTH",
"508 565 OFFCURVE",
"645 725 OFFCURVE",
"709 1026 CURVE SMOOTH",
"774 1331 OFFCURVE",
"709 1483 OFFCURVE",
"512 1483 CURVE SMOOTH"
);
},
{
closed = 1;
nodes = (
"529 1290 OFFCURVE",
"535 1209 OFFCURVE",
"496 1024 CURVE SMOOTH",
"457 839 OFFCURVE",
"415 758 OFFCURVE",
"359 758 CURVE SMOOTH",
"303 758 OFFCURVE",
"299 839 OFFCURVE",
"338 1024 CURVE SMOOTH",
"377 1209 OFFCURVE",
"417 1290 OFFCURVE",
"473 1290 CURVE SMOOTH"
);
},
{
closed = 1;
nodes = (
"1247 705 OFFCURVE",
"1255 617 OFFCURVE",
"1218 440 CURVE SMOOTH",
"1180 263 OFFCURVE",
"1134 174 OFFCURVE",
"1081 174 CURVE SMOOTH",
"1025 174 OFFCURVE",
"1019 255 OFFCURVE",
"1058 440 CURVE SMOOTH",
"1097 625 OFFCURVE",
"1137 705 OFFCURVE",
"1192 705 CURVE SMOOTH"
);
},
{
closed = 1;
nodes = (
"1039 899 OFFCURVE",
"910 745 OFFCURVE",
"844 438 CURVE SMOOTH",
"780 135 OFFCURVE",
"838 -18 OFFCURVE",
"1038 -18 CURVE SMOOTH",
"1227 -18 OFFCURVE",
"1367 141 OFFCURVE",
"1431 442 CURVE SMOOTH",
"1496 747 OFFCURVE",
"1430 899 OFFCURVE",
"1233 899 CURVE SMOOTH"
);
},
{
closed = 1;
nodes = (
"1896 705 OFFCURVE",
"1904 617 OFFCURVE",
"1867 440 CURVE SMOOTH",
"1828 255 OFFCURVE",
"1786 174 OFFCURVE",
"1730 174 CURVE SMOOTH",
"1674 174 OFFCURVE",
"1671 255 OFFCURVE",
"1710 440 CURVE SMOOTH",
"1749 625 OFFCURVE",
"1788 705 OFFCURVE",
"1843 705 CURVE SMOOTH"
);
},
{
closed = 1;
nodes = (
"1690 899 OFFCURVE",
"1562 745 OFFCURVE",
"1496 438 CURVE SMOOTH",
"1432 135 OFFCURVE",
"1488 -18 OFFCURVE",
"1687 -18 CURVE SMOOTH",
"1879 -18 OFFCURVE",
"2016 141 OFFCURVE",
"2080 442 CURVE SMOOTH",
"2145 747 OFFCURVE",
"2079 899 OFFCURVE",
"1882 899 CURVE SMOOTH"
);
}
);
width = 2206;
}
);
unicode = 2030;
},
{
glyphname = plus;
lastChange = "2013-03-13 10:44:06 +0200";
layers = (
{
layerId = UUID0;
name = "Bold Italic";
paths = (
{
closed = 1;
nodes = (
"461 1198 LINE",
"381 825 LINE",
"127 825 LINE",
"83 618 LINE",
"337 618 LINE",
"259 250 LINE",
"456 250 LINE",
"534 618 LINE",
"788 618 LINE",
"832 825 LINE",
"578 825 LINE",
"658 1198 LINE"
);
}
);
width = 918;
}
);
unicode = 002B;
},
{
glyphname = plusminus;
lastChange = "2013-03-13 10:44:06 +0200";
layers = (
{
layerId = UUID0;
name = "Bold Italic";
paths = (
{
closed = 1;
nodes = (
"487 1198 LINE",
"408 825 LINE",
"154 825 LINE",
"110 618 LINE",
"364 618 LINE",
"286 250 LINE",
"483 250 LINE",
"561 618 LINE",
"815 618 LINE",
"859 825 LINE",
"605 825 LINE",
"684 1198 LINE"
);
},
{
closed = 1;
nodes = (
"23 207 LINE",
"-21 0 LINE",
"684 0 LINE",
"728 207 LINE"
);
}
);
width = 918;
}
);
unicode = 00B1;
},
